<?xml version="1.0" encoding="UTF-8"?><svg id="Layer_2" xmlns="http://www.w3.org/2000/svg" viewBox="0 0 327.89 419.85"><defs><style>.cls-1{fill:#68afbd;stroke-width:0px;}</style></defs><g id="Layer_3"><path class="cls-1" d="M215.51,108.73c-3.52,3.45,8.59.16,11.24,2.27,2.64,2.11-2.15,1.94-5.62,3.56s-5.45,2.11-7.6,4.05c-2.15,1.94.17,3.89-3.64,4.53-3.8.65-2.97.16-5.62,1.3-2.64,1.13-.99,1.94-4.63,5.51-3.64,3.56-6.44,3.08-10.74,6.32s-5.78,5.67-13.55,10.36c-7.77,4.7-10.91,5.99-15.86,5.51-4.96-.49-5.12-3.08-5.62-4.21-.5-1.13-2.48,1.3-2.15-1.62.33-2.92,1.98-6.64,3.14-14.41,1.16-7.77,3.8-12.31,5.12-14.41,1.32-2.11,3.69.32,3-4.86-.69-5.18-2.67-8.42-1.02-15.39,1.65-6.96,2.64-8.75,1.98-13.12-.66-4.37.17-4.53,1.98,5.02,1.82,9.56,1.32,8.42,3.14,11.98,1.82,3.56,1.49,5.99,1.32,5.34-.17-.65,2.97-11.34,7.93-16.03,4.96-4.7,7.11-8.42,7.93-11.17.83-2.75-5.78-5.18-8.26-10.04-2.48-4.86-.99-9.23-1.82-11.5-.83-2.27,2.31.32,5.78,1.13,3.47.81,1.98-1.94,5.29.65,3.3,2.59,2.64.16,4.3,2.27l1.65,2.11s-.33-3.24.99-.65c1.32,2.59,2.64,1.94,3.14,3.56.5,1.62,2.48-3.08,4.3-5.18s3.3-13.28,3.8-17.98c.5-4.7-.17-10.69.99-13.12,1.16-2.43,2.64,3.4,3.64,2.92.99-.49,1.82.32,2.15.97s2.15-.65,2.48.49c.33,1.13,1.82-1.3,1.98,0,.17,1.3.66-1.3,1.16.32.5,1.62,1.32-.32,1.82,1.13.5,1.46,2.15-1.78,2.15.16s1.82-.97,1.82.65,1.32-.97,1.32.32,1.82-1.3,1.82-.65,3.3-2.92,3.14-1.46,2.15-1.78,1.82-.16c-.33,1.62,4.3-1.13,3.8-.16s1.32-.32,1.16.65c-.17.97,1.82-.81,1.65.32-.17,1.13,1.53-.73,1.98-.16,0,0,2.34-.62,2.81-.16l3.8.32c1.32-.16,2.15.21,2.64.16,0,0,11.24-4.37,17.85-10.85,6.61-6.48,15.37-13.6,26.27-19.11l10.91-5.51s7.27-2.11,6.77.97c-.5,3.08,1.16,5.18-1.65,8.58s-.83,4.05-4.13,7.29-1.32,1.94-4.13,5.67c-2.81,3.72-.17,2.27-3.14,5.34s-1.98,3.24-4.3,6.15c-2.31,2.92-2.31,5.18,1.98,7.29s2.15,3.56,5.29,5.51c3.14,1.94,5.29.49,13.88,4.86,8.59,4.37,11.57,8.75,12.56,10.04s-2.15-.65-6.61-2.75c-4.46-2.11-.5,2.59-5.29-.65-4.79-3.24-3.47-.16-6.94-2.27s-2.97.81-6.94-2.27c-3.97-3.08-5.62-3.4-7.93-4.37s-15.37-1.13-22.8-.32c-7.44.81-11.07-.16-18.51,7.61-7.44,7.77-12.06,10.69-19.5,23-7.44,12.31-15.37,26.07-17.68,28.34Z"/><path class="cls-1" d="M82.07,189.37c-2.32,3.75-5.72,8.22-8.4,13.58-2.68,5.36-6.97,5.54-9.83,8.4-2.86,2.86-12.87,6.97-17.16.89-4.29-6.08-3.04-10.19-4.29-11.62-1.25-1.43-4.29-4.11-3.75-7.33.54-3.22,3.4-3.93,3.4-3.93l-.54-5.18s-4.56-.33-4.85-.36c-1.94-.21-3.88-.5-5.78-.97-.45-.11-.9-.24-1.34-.38-.39-.12-.82-.37-1.21-.44-.64-.1-1.86.44-2.34-.22-.15-.21-.02-.9-.02-1.17,0-.28-.13-1.17.08-1.38.34-.33,1.26-.13,1.69-.31-.04-.21-.28-.28-.35-.49-.04-.13-.04-.7.02-.8.27-.52,1.35-.22,1.58-.68.16-.31-.55-1.01.01-1.36.45-.28,1.3.25,1.7-.12.27-.24-.03-.68.26-.95.15-.14.6-.32.82-.38.25-.06.54-.01.8-.01.21,0,.82.11.99,0,.36-.24-.18-1.04.26-1.26.23-.12.88.01,1.16.01.38,0,.82.08,1.17-.04-.06-.06-.11-.23-.16-.29.81-.25,2.54.58,2.87-.49.08-.26-.02-.32.24-.43.28-.13.83-.03,1.15-.08.31-.05.61-.11.93-.11.25,0,2.89.37,2.83.54.05-.13,8.95-25.05,14.48-36.1,1.84-3.69,3.78-7.34,5.47-11.1.93-2.06,1.8-4.2,1.99-6.47.09-1.04.07-1.94-.25-2.92-.31-.95-.26-1.95-.25-2.94,0-.83.33-1.61.37-2.43.03-.67,0-1.36,0-2.04v-3.11c0-.49.07-1.03,0-1.51-.07-.55-.36-1.04-.37-1.6-.02-.85.15-1.82.02-2.66-.06-.39-.4-.77-.02-1.13.46-.44.63.28.71.64.17.71.37,1.44.69,2.1.07.15.01.3.21.34.26.06.32-.23.38-.38.09-.25.08-.62.34-.81.86-.65,1,.89,1.07,1.35.1.6.38,1.24.99,1.53.18.08.44.14.64.09.13-.03.22-.21.35-.21.24.01.47.47.52.66.04.17,0,.34.03.51.03.12.13.24.17.37.09.33.13.64.21.99.07.31.26.6.33.88.08.34,0,.81,0,1.16,0,.42,0,.84,0,1.26,0,.36.04.97.5.46.27-.3.4-.91.53-1.28.14-.38.36-.75.4-1.15.04-.37-.06-.71.08-1.07.14-.38.37-.83.59-1.17.29-.46.51-.2.94-.38.48-.2.7-.95.72-1.4.03-.5,0-1.02,0-1.52,0-.29.03-.59,0-.88-.02-.4-.21-.76-.21-1.16,0-.81.58-1.65.81-2.43.22-.72.62-1.24.63-1.98.01-.81.47-1.33.73-2.07.15-.45.43-1.37,1.04-1.41.12.25.25.59.21.87-.19-1.11.81-1.69,1.06-2.63.07-.27-.04-.5.08-.78.12-.28.41-.61.62-.82.16.19.17.46.35.64.09-.33-.02-.68.04-1.02.11-.57.54-1.01.89-1.46.31-.4.65-.8.93-1.23.09-.14.12-.33.29-.36.08.35.12.7.22,1.05-.07-.52.11-1.06.4-1.49.3-.38.64-.74,1.01-1.06.23-.18.36-.4.38-.68.27-.31.88-.85,1.39-.67.08.26,0,.55.05.8.36-.66.86-1.81,1.68-1.9.67-.08.56.58.65,1.09.4.07.86-.64,1.14-.84.68-.48,1.26-.51,1.86.04.17-.5.48-.44.9-.31.52.16.7.17,1.09-.22.7-.69,1.38-1.43,1.9-2.27.77-1.25.91-2.6.83-4.04-.24-4.13-.33-8.18.11-12.32.47-4.47,1.36-8.92,2.72-13.21,1.29-4.06,3-8.04,5.43-11.56.92-1.33,1.95-2.59,3.11-3.73,1.29-1.26,2.67-2.46,4.19-3.44.58-.37,1.24-.83,1.93-1.01.58-.15,1.19-.04,1.78-.03.51,0,.84.22,1.3.45.3.15.73.33.94.61.4.53.07,1.22.25,1.79.78.14,1.39-.62,2.13-.53.52.06.32.45.34.91.03.58.36.73.86.94.47.2.57.46.58.98,0,.38-.04.6.16.94.16.27.34.33.38.67.07.58,0,1.23-.01,1.82,0,.6.12.8.5,1.27.2.24.58.51.72.75.14.22.05.95.04,1.21-.02.43-.16.81-.18,1.25-.02.47-.3.88-.37,1.34-.19,1.28-.09,2.59.02,3.87.07.82.13,1.71-.05,2.52-.09.42-.31.69-.32,1.12-.01.31-.11.98.01,1.26.12.28.53.41.67.66.16.26.03.87.03,1.17,0,.54-.15.97-.32,1.48-.09.29-.32.58-.36.88-.03.26.05.55.03.83-.05.78-.15,1.56-.21,2.35-.06.84-.3,2.2.44,2.83.65.56,1.84.82,2.54.32.32-.23.68-.42,1.04-.61.35-.18.74-.61,1.08-.69.02.1.04.2.06.31.79.23,1.63-.42,2.45-.12-.05.62,1.09.24,1.45.35,0,.36,0,.57.43.5.37-.06.63-.17,1.02-.17.38,0,.42-.03.62.26.21.3.22.56.63.65.25.05.55-.05.8-.02.34.04.48.31.8.38.55.11,1.24-.28,1.62.25.24.34.13.34.53.5.3.12.47.14.81.14.26,0,.52-.03.76.04.07.02.11.13.21.15.15.03.3-.06.44,0,.27.12.21.29.28.52.12.39.01.28.44.35.59.1.57.43.83.85.17.27.61.37.64.71.02.25-.16.37-.34.49-.67.43-1.54.65-2.28.92-3.58,1.3-7.1,2.75-10.55,4.38-12.87,6.08-17.87,6.26-21.09,12.15-3.22,5.9-7.86,13.05-8.58,16.09-.71,3.04,2.32.54,3.57-1.25.09-.13.17-.28.33-.3.16.91-.15,1.89-.14,2.82,0,.27.05.55-.08.8-.08.15-.22.24-.26.4.45.18,1.13-.18,1.55-.36.32-.14.63-.54.98-.19.27.27.15,1.09.13,1.45-.02.41-.21.65-.38,1-.57,1.15,1.03.4,1.59.25.52-.14,1.1-.47,1.63-.68.35-.14.69-.25,1.07-.34.24.57-.46,1.24-.8,1.6.98-.08,1.89-.19,2.89-.19.26,0,1.04-.14,1.25,0,.57.4-1.32,1.73-1.56,1.9-.82.6-1.67.65-2.55,1.07-2.19,1.05-4.45,2.65-6.1,4.43-.08.09-.16.18-.24.27-4.65,5.36-9.86,6.61-9.86,6.61,0,0,2.89,20.55-1.58,34.14-.65,1.97-1.36,3.91-2.17,5.81-.29.68-.48,1.1-.95,1.6-.48.5-.4,1.27-.67,1.87-.44.98-.84,1.85-1.09,2.89-.25,1.02-.69,1.99-.99,3-.17.59-.2,1.19-.39,1.77-.2.63-.37,1.24-.5,1.88-.08.36-.01.72-.08,1.08-.1.51-.12,1.05-.27,1.55-.08.27-.44.94-.23,1.22.28.38.87-.42,1.07-.63.61-.63,1.25-1.17,1.9-1.74.68-.61,1.49-1.62,2.39-1.89.16-.05.4.01.57-.02.22-.04.43-.24.66-.12-.02.2-.19.29-.11.49.53.14,1.09-.11,1.59-.24.46-.12.94-.19,1.39-.31.63-.17,1.13-.65,1.79-.81.59-.15,1.55-.13,2.15-.04.42.06.36.11.35.54,0,.37-.02.56-.16.87.31.06.9-.39,1.18-.51.61-.26,1.14-.36,1.8-.36.73,0,1.44-.03,1.65.8.16.64-.09.62.59.83.56.17,1.02.16,1.61.16.91,0,1.49,0,1.57,1.04.68.17,1.24.57,1.91.8.52.18.99.38,1.47.61.3.15.78.36.72.77-.03.25-.32.23-.17.54.11.23.63.38.82.52.39.3.68.5,1.12.72.26.13.77.29.96.53.33.42.01,1.14.11,1.62.06.3,0,.36.35.49.3.11.64.18.95.27.66.2,1.06.33,1.56.8.33.31.56.47.68.93.14.57-.14,1.04-.14,1.61,0,.44-.12,1.04.02,1.46.13.41.67.75.89,1.13.13.11.19.24.2.41-.04.2-.17.27-.38.22-.63.25-1.1.07-1.27.89-.07.36-.06.43-.35.72-.2.2-.44.42-.72.5-.24.07-.37.05-.58.16-.26.14-.48.38-.68.59-.23.24-.4.36-.36.72.02.23.12.32.16.5-.84.18-1.8.03-2.63-.1-.42-.07-1.08-.17-1.47.09-.23.15-.23.42-.43.6-.34.32-1.1.23-1.53.33-.45.11-.64.23-1.01.52-.1.08-.07.18-.21.23-.61.18-1.41-.17-2.01-.2-.42-.02-.86,0-1.28.01-.35,0-.69,0-1.04-.03-2.62-.31-5.22-.32-7.84-.74-2.26-.36-4.49-.87-6.68-1.52-1.85-.55-3.73-1.16-5.48-2Z"/><path class="cls-1" d="M7.31,395.33s2.58-4.54,6.95-14.66c4.36-10.12,6.85-12.01,13.07-19.02,6.22-7.01,15.75-16.29,21.43-21.71,5.68-5.41,14.28-11.71,14.28-11.71,0,0-3.25-5.1-2.8-11.64.45-6.54-1.47-10.68,2.28-12.68,3.75-2.01,3.08-5.52,5.92-8.23s4.7-2.6,6.55-.29,5.28.57,7.48,2.8c2.19,2.23,4.89,1.21,6.18,2.74s5.41,1.09,5.41,1.09c0,0,3.06,2.02,11.44-4.41,8.38-6.43,11.84-10.39,18.57-12.2s14.07-2.65,15.36-1.86c1.29.79-7.75,3.7-9.82,7.33-2.07,3.62,6.35,2.7,15.11-8.24,8.76-10.94,5.57-12.74,8.88-24.94,3.31-12.2-1.68-26.81,3.51-35.04.34-.55,3.02-5.2,3.81-3.01.47,1.3,0,2.8.52,4.06.27.67.54,1.29.62,2.02.09.83-.13,1.66-.14,2.5,0,.59-.07,1.58.77,1.56.21,0,.49-.12.69-.18.42-.11.43-.15.61.21.63,1.31-.15,2.87.09,4.22.09.53.13,1.37.77,1.3.8-.08,1.27-.57,1.65.42.26.66.38,1.39.29,2.09-.08.62-.38,1.22-.25,1.85.14.69.9.37,1.18,1,.21.47.26,1.1.38,1.6.07.3.1.6.16.89.1.47.11.22.56.17.87-.1.85.89,1.01,1.52.18.73.15,1.65.03,2.39-.1.62-.36,1.52-.06,2.13.17.34.49.31.83.35.49.05.65.09.86.59.2.46.32,1,.15,1.47-.12.32-.22.55-.28.87-.04.21-.18.48-.21.67-.07.45.25,1.53.63,1.79.52.36,1.16-.21,1.73-.17.23.42.41,1.26.39,1.73-.02.58-.03.83.58,1.14.49.25,1.19.3,1.74.39.61.1,1.36-.22,1.95-.36,1.57-.38,3.42-1.16,5.05-.8.53.12.65.28.91.75.18.34.11.41.64.32.62-.11,1.23-.31,1.85-.46.42-.1.83-.23,1.26-.26.02,0,.11.08.16.09.2.01.41-.08.6-.13.75-.19,1.49-.17,2.25-.18.47,0,.6.32.96.61.85.69,1.94.3,2.95.19,1.06-.12,2-.25,3.02.07.32.1.51.15.73.43.24.32.14.81.39,1.08.31.34,1.06.03,1.4-.06.63-.16,1.26-.29,1.91-.33.5-.03.72.12,1,.53.17.25.14.55.29.78.48.73,1.89-.17,2.56-.13.51.03,1.02.61,1.47.85.32.17.47.28.83.22.34-.05.69-.17,1.02-.25,1.14-.27,2.31-.28,3.35-.84.7-.38,1.51-.48,2.3-.47.72,0,1.67.18,1.63,1.09-.05,1.04-1.02,2.08-1.66,2.81-1.26,1.44-2.71,2.72-4.19,3.93-3.61,2.99-7.52,5.64-11.54,8.04-12.38,7.39-10.07,7.02-19.11,13.79-9.03,6.77-9.18,3.87-17.13,11.3-7.95,7.43-11.1,12.67-15.04,16.16-3.94,3.49,3.37,2.53,8.34-2.01.93-.85,2.45-2.07,3.83-1.56.62.23,1.21.54,1.86.71.1.03.44.05.53.09.83.39-.35.87-.19,1.38.12.36,1.3.51,1.64.63.48.17.62.26.9.7.48.78,1.22.74,2.03.78.48.03.73.4.89.8.11.29.11.82.45.9.44.1,1.12-.35,1.58-.38.48-.03.94.4,1.22.78,1.34,1.82-1.32,3.93-2.6,4.85-4.08,2.94-8.71,5.53-13.44,7.23-2.63.94-5.38,1.59-8.18,1.69-8.02.28-9.5.27-9.94,1.48-.44,1.21-15.03,13.92-21.06,19.41-6.03,5.5-10.18,8.89-7.31,7.83,2.87-1.06,9.94-3,14.13-7.75,1.33-1.51,3-2.95,4.9-3.7.32-.13.63-.19.97-.22.84-.09,1.69-.56,2.53-.33.46.13.66.28.89.66.14.25.29.47.55.6.49.25,1.14.1,1.66.06.32-.02.97-.25,1.25-.08.27.16.39.58.56.84.21.33.61.64.94.84.39.24.93.24,1.19.67.26.43.07.6.59.88.72.39.92.67,1.11,1.47.08.35.16.7.25,1.04.05.19.05.35.16.52.09.14.29.2.37.32.14.21.16.48.28.7.14.25.39.5.61.7.32.29.74.41,1.07.68.91.72,1.56,1.55,2.72,1.91.67.21,1.56.53,1.83,1.26.25.68-.19,1.42-.55,1.97-.53.8-1.16,1.46-1.88,2.07-.29.25-.5.56-.63.93-.14.42.05.89-.12,1.28-.14.33-.6.3-.9.38-.31.09-.48.2-.73.41-.35.31-.24.3-.18.74.09.67-.82,1.12-1.35,1.31-.53.19-1.1.19-1.63.43-1.24.56-2.38,1.26-3.68,1.72-1.83.64-3.73,1.06-5.65,1.35-4.55.7-9.18.75-13.76.73-10.49-.05-15.92-3.52-15.92-3.52,0,0-16.61,11.17-19.5,13.7-2.88,2.53-3.76,3.48-4.59,3.86-.83.38,5.72.83,11.06-.64.68-.19,1.39-.29,2.06-.49.59-.17,1.16-.19,1.71.12.4.22.76.49,1.19.66.18.07.53.09.69.18.23.14.19.19.33.48.1.21.28.44.45.58.38.3,1.2.32,1.46.7.11.16.12.48.03.66-.11.24-.38.2-.47.45-.24.66.61,1.02.97,1.25.34.22,1.03.72.85,1.22-.09.27-.36.28-.19.65.06.13.22.24.3.35.38.51.82,1.98-.27,2.03-.39.02-.99-.22-1.17.31-.17.5.41,1.08.68,1.41.27.35.45.79.5,1.25.03.33-.26.51-.23.73.03.2.3.48.37.7.16.49.62,1.07.58,1.62-.02.29-.35.9-.67.96-.07.55.71,1.63.25,2.08-.23.22-.54,0-.63.36-.04.18.19.86.29,1.01.06.09.33.22.4.29.17.17.26.38.42.54.53.52,1.06.75,1.25,1.54.16.66-.27,1.12-.69,1.59-.66.74-1.56,1.02-2.55.91-1.53-.18-3.03-.77-4.47-1.27-2.11-.74-4.22-1.5-6.37-2.14-8.52-2.54-10-1.82-15.51-5.64s-6.98-5.31-6.98-5.31c0,0-12.04,8.78-17.87,11.29-5.83,2.51-13.02,7-22.12,6.62-9.1-.38-12.48,3.92-18.3,1.1-5.83-2.82-4.01-17.42,3.89-23.55Z"/></g></svg>