<?xml version="1.0" encoding="UTF-8"?><svg id="Layer_2" xmlns="http://www.w3.org/2000/svg" viewBox="0 0 6109.32 2351.52"><defs><style>.cls-1{fill:#68afbd;stroke-width:0px;}</style></defs><g id="Layer_3"><path class="cls-1" d="M4205.01,1875.44c.17-.4.33-.81.49-1.22,1.17-3.01,2.81-4.96,3.38-8.39.7-4.29,1-8.84,1.94-13.02.81-3.65,2.04-7.78,4.69-10.16,1.89-1.7,4.06-2.98,6.05-4.54,3.32-2.6,4.62-7.13,5.36-11.65,1.32-7.93,4.6-15.33,5.77-23.56,1.32-9.28-.21-18.83.36-28.22.54-8.93,1.29-15.68,7.96-21.17,2.16-1.77,3.81-2.77,5.4-5.3,2.19-3.48,2.28-6.46,2.64-10.75.67-7.89,1.85-15.54,2.22-23.53.23-5.04.48-10.09.74-15.13.27-5.4.43-10.86-.27-16.29-.64-4.89-2.51-9.43-3.31-14.27-1.07-6.5.62-11.3,3.24-16.74,3.53-7.32,4.51-14.73,6.58-22.67,1.91-7.35,2.64-17.7,6.77-23.79,4.84-7.13,3.3-11.09,1.19-19.5-1.06-4.24-2.32-7.33.58-10.78,3.46-4.12,7.75-3.09,6.34-9.84-1.18-5.62-7.2-19.33-3.71-23.6,4.94-6.04,21.36-8.96,16.78-20.89-2.66-6.91-9.54-9.49-7.63-18.29.79-3.64,3.02-7.07,4.82-10.12.88-1.49,2.69-3.07,3.06-4.84.5-2.41-.69-6.21-1.64-8.43-1.31-3.06-3.29-4.85-3.14-8.61.14-3.41,2-7.62,3.39-10.41,2.59-5.19,7.33-8.54,11.22-12.41,2.01-2,4.22-3.41,6.06-5.62,2.22-2.66,3.37-4.54,6.23-6.64,3.18-2.35,5.75-3.77,5.45-8.4-.16-2.45-1.18-3.21-.54-5.64.66-2.46,2.66-4.11,4.22-5.78,5.37-5.73,10.83-11.86,16.78-16.81,3.52-2.93,6.06-5.93,1.67-9.56-2.85-2.36-7.35-2.52-9.66-5.38-3.25-4.02-.52-8.57,1.89-11.57,4.52-5.63,9.15-12.56,7.53-20.81-.9-4.58-1.36-4.79-4.89-6-9.74-3.34-3.89-11.49,1.45-16.44,6.42-5.94,12.72-10.21,17.29-17.86,1.13-1.88,1.33-4.33,2.15-6.39.92-2.3,2.33-4.19,3.38-6.4,1.9-4.02,1.67-8.55,4.39-11.91,6.55-8.07,13.49-9.75,22.91-12.04,2.33-.56,6.22-.7,8.39-1.91,2.73-1.53,4.03-5.19,6.29-7.54,3.25-3.37,7.87-6.81,7.95-12.49.03-2.41-1.56-4.72-.84-6.97.7-2.18,4.03-3.51,5.57-4.99,1.59-1.53,6.97-6.71,6.59-9.39-1.88.46-8.01-1.46-9.36-2.98-2.17-2.45-.94-6.73.62-8.78,1.32-1.74,3.17-3.3,4.7-4.81,2.78-2.74,5.83-5.25,8.79-7.74,3.73-3.14,5.64-7.53,9.67-10.27,2.97-2.02,5.79-2.6,9.21-3.42,2.96-.71,5.86-1.11,8.23-2.82,2.74-1.98,4.7-3.83,8.02-4.69,3.23-.83,6.6-.96,9.83-1.77,4.96-1.25,10.23-4.62,11.95-10.23,1.84-6.02,1.2-8.17,7.1-10.67,4.46-1.89,8.96-3.7,13.45-5.54,10.53-4.34,22.84-8.8,29.65-19.26,3.24-4.98,4.8-11.01,5.27-17.23.31-4.02.18-8.1-.16-12.16-.56-6.68-2.89-16.33,2.92-20.46,7.51-5.34,21.67,5.28,27.46-4.74,1.96-3.4,3.41-3.78,7.2-4.69,3.88-.93,7.85-1.73,11.32-3.87,2.64-1.63,3.13-2.9,4.5-5.94.29-.65,1.02-2.47,1.74-3.04.87-.68,3.67-1.55,4.8-1.14,1.17.43,1.24,1.88,2.27,2.36,6.29,2.92,9.54-7.72,15.48-7.85,3.71-.08,7.04,1.02,10.53,2.62,3.61,1.65,3.7,1.31,6.54-.41,3.11-1.89,7-1.11,10.47-.78,5.13.48,9.93.59,14.91-.57.99-.23,2.85-1.03,3.99-1.02,2.33.02.91-.1,2.76.61,3.32,1.27,3.36-.63,6.3-2.47,3.57-2.25,8.29-6.25,12.76-5.95,1.9.13.82-.44,2.28.66,1.13.85-.57,2.34,1.55,2.37,1.61.02,5.16-4.51,6.2-5.38,3.45-2.88,6.47-6.99,10.28-9.26,3.4-2.02,9.33-4.21,13.48-3.88,2.49.2,4.8,1.75,7.3,1.8,3.89.07,7.76-.82,11.55-1.63,5.21-1.12,10.46-.08,15.73-.22,3.5-.09,4.02-1.94,5.65-4.93,1.24-2.27,2.94-4.32,4.64-6.17,3.68-4.01,7.57-7.41,12.85-8.16,2.61-.37,2.88.4,4.51-2.01,1.01-1.49,1.81-2.78,3.2-3.95,1.94-1.63,4.77-2.95,7.08-3.97,2.42-1.06,5.04-.61,6.88-3.14,1.33-1.84,2.88-4.84,3.83-6.98,1.25-2.82,1.94-3.01,4.67-3.62,6.12-1.37,10.39-2.69,13.3-9.47,1.93-4.5,3.68-9.55,7.56-12.34,4.6-3.31,11.04-3.58,16.16-5.84,3.51-1.55,6.64-3.73,9.9-5.8,2-1.27,4.05-2.42,6.17-3.46,1.9-.93,3.91-1.64,5.77-2.65,2.15-1.17,4.56-4.32,7.26-3.44,2.26.73,3.16,3.55,3.75,5.78.18-.04.36-.07.54-.11,5.76-1.26,11.65-2.3,14.04-11.39,1.31-4.99,1.37-12.23,7.36-6.27,4.27,4.25,7.08,10.01,11.33,14.26,4.17,4.17,7.41,2.97,11.47.02,3.87-2.81,10.96-5.23,15.77-4.56,1.81.25,3.78,1.38,4.93,3.04.98,1.4.77,3.27,1.65,4.55,1.93,2.8,7.24.76,9.95,1.13,5.27.73,9.93,1.84,14.9,4.24,5.57,2.69,10.31,6.01,14.75.34,3.52-4.5,9.34-6.69,14.99-6.39,8.51.45,16.69,6.11,25.31,5.85,1.31-.04,3.6-.16,4.75-.87,1.75-1.08,1.2-1.85,1.81-3.73,1.56-4.78,6.48-1.52,10.25-1.22,3.34.26,8.56-.95,10.72-3.92.74-1.02.55-2.53,1.57-3.33.88-.69,2.5-.71,3.56-.96,3.43-.81,6.85-1.66,10.28-2.49,2.34-.57,4.68-1.33,7.03-1.82,3.06-.64,5.45.44,8.41,1.47,3.79,1.32,7.66,1.95,11.38,3.6,2.85,1.27,7.05,4.68,10.03,4.34,2.55-.29,1.66-1.57,2.61-3.32.83-1.52,1.81-1.82,3.46-2.11,4.92-.88,10.58,4.2,14.67,7.1,4.93,3.51,10.42,8.13,16.4,6.98,3.22-.62,4.16-1.11,7.28.71,3.34,1.95,8.61,3.05,12.25,3.09,2.58.03,3.84-1.29,6.16.3,2.43,1.66,4.44,4.33,6.94,5.98,2.81,1.86,6.18,3.06,9.28,4.04,5.57,1.76,11.35,1.57,16.81,2.65,1.58.31,3.86.77,5.3,1.63,1.94,1.16,3.2,3.5,5.17,4.73,3.95,2.46,6.85,2.64,10.84,1.63,6.12-1.55,13.76-1.41,20.1.15,3.2.78,12.23,2.83,11.66-2.77-.24-2.37-2.88-6.66-1.57-8.45,1.56-2.13,9.38-.3,11.65-.43,2.75-.16,4.76-1.46,7.57-.8,4.23.99,8.23,2.65,12.27,4.48,2.61,1.18,4.47,2.89,7.3,2.6,1.03-.11,3.33-.52,4.25-1.09,2.34-1.45,2.93-5.26,4.79-7.28,2.66-2.88,7.18-3.6,10.39-5.46,3.37-1.95,4.33-2.53,3.33-6.97-2.4-10.63,28.74-2.72,36.77-1.91,5.28.53,10.23.22,15.28-1.44,6.59-2.16,13.76-5.57,19.31-9.71,5.51-4.11,10.19-11.96,16.07-15.17,6.16-3.35,11.13.38,17.68.69,4.38.2,2.1,1.01,5.32-.43,1.45-.65,8.1-8.09,9.29-9.44,4.55-5.19,6.8-11.49,12.14-16.19,9.86-8.68,19.4-15.16,32.58-15.24,5.18-.03,7.28.96,11.67,3.14,6.78,3.36,9.61.19,15.33-4.79,8.95-7.81,15.83-20.07,26.31-25.98,7.29-4.1,10.06,6.62,17.86,8.2,7.92,1.61,15.1-1.86,22.03-2.69,10.05-1.21,13.55,5.58,22.14,7.59,11.01,2.58,11.9-14.24,17.19-20.85,5.93-7.39,12.05-1.97,19.56-1.31,7.94.7,7.36-6.21,12.24-11.25,6.66-6.88,12.97-14.21,19.86-20.94,3.76-3.67,8.98-12.11,13.87-14.16,4.68-1.97,11.11.03,16.07-.93,10.59-2.03,20.36-1.6,31.3-1.85,9.8-.22,19.91-5.48,29.39-.83,7.7,3.77,13.31,11.84,20.57,16.63,14.86,9.8,30.55,18.77,43.44,31.24,12.63,12.21,25.82,27.48,31.33,44.39,9.6,29.49,13.15,60.45,23.63,89.79,23.84,66.73,43.54,136.59,45.3,207.89.7,28.26,7.52,55.72,7.69,83.94.09,14.36,2.52,28.46,2.36,42.72-.09,8.29-.5,15.13-1.93,23.23-2.16,12.19-1.57,24.68-.59,36.96.79,9.96,1.1,20.32,5.26,29.56,3.55,7.9,7.64,15.16,10.58,23.38,3.98,11.11,6.45,22.71,10.53,33.73,2.18,5.9,4.34,11.67,6.37,17.69,1.45,4.29,5.43,13.3,4.95,18.22-.27,2.74-2.58,6.1-3.19,9.12-.87,4.31-.81,7.07.29,12.2,2.24,10.45,5.1,20.91,7.6,31.31,1.07,4.45,1.91,9.56,3.28,13.88,1.05,3.32,2.66,5.47,3.87,8.63,2.84,7.38,4.58,18.48,6.27,26.3,1.82,8.44.25,12.06-5.08,13.52-4.58,1.25-8.06,3.11-11.1,7.86-4.26,6.65-6.67,13.63-10.17,21.31-2.06,4.51-3.58,10.19-6.5,13.6-.73.85-1.55,1.56-2.49,2.08-7.39,4.08-17.5,4.18-25.54,6.11-4.32,1.04-7.14,3.9-11.09,5.44-2.13.83-5.62,2.32-8,1.48-3.43-1.21-7.45-8.05-10.17-11.33-.85-1.02-2.2-2.11-2.92-2.79-.45-.43-.66-2.6-1.12-2.88-2.76-1.69-5.42,1.68-7.04,3.79-3.11,4.04-4.58,7.49-8.77,9.68-3.19,1.67-6.08,4.16-9.28,5.67-3.42,1.62-6.67,1.46-10.42-.23-2.11-.95-4.61-3.54-6.59-3.88-5.24-.91-10.46,3.64-15.61,4.01-2.21.16-3.2-.21-5.39-2.02-2.55-2.11-4.54-3.72-7.15-5.59-5.78-4.14-9.43-14.14-12.06-22.34-.91-2.83-4.18-10.99-3.85-13.75.42-3.49,4.17-1.97,6.17.5-.72-.91-1.48-1.49-2.2-2.55-.94-1.39-1.88-2.75-2.82-4.15-2.85-4.27-5.69-7.97-8.6-11.84-2.66-3.53-5.27-7.42-7.9-11.19-1.08-1.55-4.17-6.03-3.24-8.4.56-1.43,2.27-.04,2.85-1.49.43-1.07-.33-2.45-.97-4.09-.94-2.43-1.7-4.42-2.41-7.02-.3-1.1-.74-2.32-.71-3.34.04-1.28.74-1.42,1.26-1.54.33-.08.74.03.75-.74.03-1.56-2.12-6.04-2.55-6.93-1.95-4.05-4.04-7.64-6.17-11.12-1.39-2.26-2.79-4.5-4.18-6.74-.67-.58-1.15-1.46-1.42-2.63.53.24,4.35,2.49,3.96.5-.15-.78-.94-2.04-1.24-2.59-.87-1.64-1.91-3.23-2.6-5.21-.81-2.3-.19-2.16-.27-4.01-.08-1.6-1.23-4.03-1.87-5.29-1-1.97-2.47-3.57-3.58-4.6-2.52-2.33-5.02-4.75-7.54-7.27-2.26-2.26-4.54-4.2-6.8-6.17-1.02-.89-2.62-2.57-3.3-1.5.09,1.23,1.25,2.82,1.66,3.45,1.13,1.72,2.25,3.3,3.36,5.09,1.32,2.13,2.74,4.43,3.62,7.44.23.79.7,2.42.8,3.22-2.37-1.62-4.95-4.85-7.34-7.03-1.64-1.49-3.11-3.4-4.74-5.43-3.8-4.73-7.65-8.58-11.47-12.87-4.16-4.66-8.36-9.59-12.48-14.86-2.61-3.33-5.08-7.48-7.66-10.97-3.7-4.98-7.56-8.79-11.32-12.65-.94-.96-3.07-2.4-3.57-4.93-.21-1.08.06-2.5.23-3.08.5-1.67,1.67-1.87,2.56-2.56.47-.36.76-.33.35-1.67-.63-2.06-2.44-3.8-3.31-4.9-1.52-1.91-3.05-3.58-4.57-5.58-1.93-2.54-3.93-4.54-5.82-7.33-1.04-1.52-3.55-4.9-4.16-7.4.46-1.35,2.55-.24,3.44-.07,1.13.21,3.15,1.01,3.93-.21-.68-2.09-2.32-3.73-3.26-5.01-1.06-1.45-2.13-2.81-3.19-4.27-.59-.81-1.53-1.88-2.06-3.06.28-1.43,2.81.4,3.52.68,1.17.46,2.33.85,3.51,1.39.85.39,1.8,1.03,2.6,1.07.48.02,1.62.08,1.11-1.54-.08-.26-.56-1.15-.68-1.38-1.06-1.85-2.13-4.08-3.26-5.66-3.46-4.82-7.22-7.04-10.73-10.56-1.54-1.54-3.15-3.17-4.67-5.06-1.12-1.39-2.28-2.56-3.36-4.19-.85-1.27-1.67-2.65-2.51-3.96-1.12-1.75-2.1-2.48-3.26-3.61-1.87-1.82-3.73-3.3-5.46-3.68-1.43-.31-2.96-1.26-4.41-1.77-.73-.25-2.74-1.06-2.9.57.91.51,2.07,2.7,2.97,3.91,1.41,1.89,2.63,3.97,3.88,6.46,1.18,2.36,2.3,4.48,3.62,6.38.6.87,1.47,1.76,1.98,3.02.29.71.82,2.37.58,2.81-1.02-1.07-2.06-1.72-3.07-2.56-1.89-1.57-3.78-3.68-5.65-5.86-3.13-3.63-6.21-6.84-9.35-9.55-.43-.37-3.34-3.33-3.44-1.94-.07.88.74,1.78,1.14,2.33,1.27,1.76,2.61,3.19,3.9,4.65.58.65,1.84,1.9,2.13,3.37-1.35,1.53-4.58-.79-4.03,4.6.29,2.89,1.94,7.21,3.1,9.55.63,1.29,1.35,2.57,2.07,3.57.27.38.97.94,1.15,1.68-1.26.48-2.99-1.1-4.47-2.03-1.76-1.1-3.53-2.31-5.28-3.4-1.01-.62-1.98-1.3-3.01-2.56-1.52-1.87-2.93-4.43-4.46-6.18-1.58-1.81-3.18-2.78-4.49-2.31-.36.13-.76.17-1.11.34-.44.22-.73.83-1.18,1.03-.63.28-1.42.72-2.24.08-.43-.34-.86-1.27-1.31-1.88-.59-.8-1.12-1.38-1.7-1.69-.67-.35-1.19-.28-1.79-.27-1.16.02-2.37-.22-3.55-.32-.75-.06-1.6.12-2.47-1.11-.52-.73-.85-1.83-1.25-2.81-1.04-2.58-3.29-5.37-3.55-8.59,1.18-1,4.01.27,2.92-4.84-.3-1.4-.9-2.51-1.29-3.86-1.4-4.84.88-6.54,2.8-4.91-1.02-3.87-3.04-5.28-4.59-6.61-.81-.69-1.26-1.14-1.8-2.93-.42-1.42-.82-3.11-.58-4.21.13-.58.46-.97.71-1.33.24-.36.66-.37.88-.7.77-1.2-1.96-3.48-2.55-4.24-1.19-1.55-2.3-3.15-3.52-4.58-1.21-1.43-2.41-3.29-3.53-5.25-.91-1.6-1.84-3.25-2.73-4.93-.44-.83-.81-1.58-.97-2.63.43-.53,1.13-.46,1.67-.65.53-.19,1.09-.41,1.74-.05.24.13.75.7.86.3.07-.24-.47-2.04-.59-2.38-.75-2.14-2.23-2.8-3.18-3.69-1.63-1.53-3.26-2.96-4.88-4.5-2.38-2.26-4.74-4.21-7.09-5.75-1.36-.9-2.69-1.85-4.06-3.14-.5-.47-2.28-2.83-2.56-2.13-.36.9,1.14,2.74,1.3,2.95,2.19,2.9,4.36,5.78,6.51,8.9.7,1.02,1.88,2.62.69,2.36-.71-.16-1.66-1.11-2.41-1.74-1.49-1.25-2.96-2.44-4.43-3.31-.98-.59-4.12-2.98-4.52-.91-.28,1.49,1.19,3.84,1.77,4.94.04.08-.88-.27-.96-.33-.5-.34-1.11-.74-1.61-1.4-.98-1.3-1.9-3.52-2.96-4.11-.58-.32-.65.52-.95,1.12-.6,1.19-1.79,1.39-2.73,1.54-.9.14-2.8-1.67-3.14-.12-.16.72,0,1.57-.38,1.91-.38.34-1.07.34-1.53.43-.98.18-2-.23-3.12-.9-.98-.59-3.51-2.46-4.59-4.35-.76-1.34-1.32-3.99-1.68-5.63-.99-4.55-2.24-10.62-4.26-14.56-.66-1.3-1.42-2.14-2.16-2.96-4.7-5.25-9.45-10.25-14.13-13.55-1.12-.79-2.23-1.51-3.35-2.29-.21-.15-.51-.19-.69-.63-.68-1.7.65-2.33,1.06-2.49,1.23-.5,3.44.98,4.79,1.65,2.95,1.46,5.96,3.31,8.85,4.3,2,.68,3.97,1.19,5.96,1.82.91.29,1.92.96,2.78,1.02-.56-1.24-1.38-1.84-2.03-2.52-1.17-1.22-2.33-2.4-3.49-3.73-1.47-1.69-4.28-4.1-5.32-7.66-.75-2.58-.97-3.62-.23-4.94.56-1,.25-1.83-.86-3.19-2.8-3.44-5.74-5.83-8.54-8.1-2.88-2.33-5.76-4.39-8.62-6.51-3.95-2.92-7.7-4.41-11.47-5.72-.19,2.34,13.42,13.99,15.17,20.48-.64,1.04-1.45.58-2.52.02-2.9-1.51-5.87-3.74-8.77-5.21-.94-.46-1.88-.92-2.81-1.37-.67-.4-1.31-.63-1.93-.7-.42.28-.42.53-.15,1.85.12.59.91,2.83.89,3.43-.08,2.33-3.2.9-4.16-.04-.66-.64-1.29-1.6-1.96-2.21-1-.91-2.07-1.51-3.01-1.79-.38-.11-.61-.04-.88.23-.41.42-.51,1.38-.71,2.2-.29,1.19-.31,2.44-.52,3.71-.16,1.02-.27.85.09,2.49-.99-.49-1.95.08-2.86.08-.71,0-1.34.3-1.99.53-1.85.65-4.42-.26-6.68-2.89-1.39-1.62-2.45-3.88-3.66-6.17-1.73-3.3-3.6-6.47-5.48-9.26-4.01-5.98-8.11-10.1-12.25-13.96-2.61-2.43-5.22-4.43-7.82-6.95-.79-.76-4.39-3.8-4.89-6.55.63-.5,2.17.39,2.87.66,2.55.99,5.21,2.52,7.81,4.08,3.65,2.19,7.34,4.88,11.01,7.2,1.63,1.04,3.36,2.33,4.95,2.95-.32-1.09-1.07-1.91-1.55-2.56-2.61-3.57-5.38-6.3-8.04-9.05-2.63-2.72-5.25-5.26-7.87-7.63-.93-.84-1.95-1.55-2.88-2.54.87-1.17,2.83.23,4.08.65.98.36,1.94.61,2.88.75.56.49.97.49,1.25,0-2.6-2.81-5.19-4.9-7.78-7.64-1.21-1.28-2.97-2.66-3.93-5.11.47-.82,1.02-.97,1.76-1.03,2.15-.18,4.6.72,6.87,1.13,1.12.2,2.24.4,3.27.18.45-.1,1.1-.02,1.4-.6-.43-1.19-1.12-1.76-1.68-2.38-2.14-2.36-4.34-4.12-6.47-5.88-1.88-1.55-3.75-3.01-5.62-4.43-.28-.21-1.96-1.1-2.15-2.18,2.07-.03,4.37,1.53,6.48,1.76-1.54-2.8-3.95-4.48-5.52-5.59-1.73-1.22-3.44-2.2-5.16-3.23-4.29-2.59-8.6-5.45-12.91-8.29-1.91-1.26-3.85-1.78-5.63-2.12-1.68-.32-2.97,1.2-4.52,1.5-.76.15-1.51.31-2.24.54-1.04.33-2.05.78-2.95,1.56-1.93,1.65-3.48,4.42-5.22,6.6-2.01,2.52-3.94,5.29-6.41,6.54-1.45.65-2.96,1.12-4.51,1.4-.6.4-1.28.24-2.03-.47.02-1.02.69-.47.79-1.45.14-1.45-.88-3.58-1.56-4.4-1.54-1.87-2.57-1.45-3.74-.96-1.09.46-1.66,2.2-2.7,2.72-.99.49-2.06.46-3.18.38-1.28-.09-2.64-.38-3.99-.86-.84-.29-2.16.32-2.87-1.9-.39-1.23-.26-1.73-.2-2.66.11-1.59.12-3.22.29-4.75.24-2.24.79-3.84,1.15-5.87-.9-.82-1.87-.43-2.65-.44-1.35,0-2.72-.2-4.08-.3-.54-.04-1.32.18-1.95-.53-.51-.57-.65-1.39-.92-2.38-.18-.68-.38-1.8-.72-2.31-.53-.8-1.46-.32-1.9-.35-1.48-.08-2.8.14-4.14.61-.85.3-2.56.07-2.8,1.82-.09.62.03,1.27-.2,1.8-.24.57-.63.55-1.05.69-1.4.47-3.31,1.55-4.9-2.53-.99-2.54-1.86-4.77-3.27-6.25-1.62-1.71-3.11-1.48-4.57-1.81-.36-.08-3.78-1.02-4.09-2.82-.23-1.38.97-2.34,1.28-2.78.79-1.11,1.35-2.66,1.86-4.34.24-.78.83-1.69.36-3.24-.44-1.46-1.22-1.54-1.74-1.65-.86-.17-1.74-.47-2.62-.78-1.31-.46-2.47-.12-3.78-.5-1.8-.52-3.62-1.83-5.19-1.26-.84.3-1.63.77-2.68.03-1.67-1.18-.62-2.98.05-3.65.57-.58,1.18-1.04,1.81-1.47.34-.24,1.08-.37,1.22-1.1.19-1.01-.21-1.65-.82-2.35-2.36-2.73-4.38-4.8-6.72-6.3-3.71-2.38-7.1-2.02-10.7-3.55-2.39-1.02-4.72-1.84-7.05-2.45-2.39-.63-4.62-.75-6.9-.84-.66-.03-2.25-.67-2.04,1.43.1,1.03.47,1.9.91,2.38,1.26,1.41,2.58,1.18,3.63,1.17.73,0,1.46,0,2.23.15.38.08.97.01,1.38.56-.77,1.68-2.23,2.1-3.36,2.79-1.33.81-2.77,1.15-4.19,1.66-.77.27-1.53.22-2.4.08-.39-.06-.79-.22-1.2-.39-2.76-1.15-5.58-.97-6.85,2.82-.6,1.77-1.29,3.55-1.79,5.46-.68,2.59,2.11,4.84,3.03,5.22.3.12.6.25.9.38.32.64.21,1.42.34,2.1.16.89.65,1.81.74,2.69-1.29,1.19-3.44.58-5.05.46-1.72-.17-3.44-.35-5.16-.53-.91-.25-1.74-.17-2.48.25-.34.28-.65.52-.64,1.4.02,1.11.84,2.39.41,3.27-.56,1.16-2.38.54-3.3.46-2.2-.19-4.89-1.7-6.63.03.29,2.25,1.67,1.47,1.61,3.87-.04,1.7-.88,3.16-1.33,4.18-.84,1.91-1.96,3.23-3.02,4.63-1.4,1.84-2.9,3.46-4.25,5.43-.51.74-.97,1.67-1.56,2.22-.7.66-1.6.84-2.43,1.08-2.52.72-5.13.26-7.9-.19-1.42-.23-3.04-.4-4.15.64.25,1.06,2.86,2.43,3.2,2.7.5.4,2.97,1.66,3.36,3.29-.21.34-.62.28-.88.49-.6.46-1.17.88-1.85,1.09-1.37.41-2.79.72-4.1,1.31-.94.43-1.7,1.29-2.71,1.55-3,.77-6.22,1.12-9.45.94-1.67-.1-3.37-.31-5.14-.95-1.29-.46-2.77-.67-4.13-1.8-1.14-.95-.67-1.91-1.44-3.46-.48-.97-1.41-.04-1.83.04-2.39.48-5.21-.95-7.8-1.44-2.17-.42-4.43-1.03-6.23.15-.87.56-.46,1.81.21,3.98.61,1.96,3.67,8.54,2.39,9.46-.7.5-1.6.34-2.3.87-1.82,1.37-3.94,1.77-5.97,2.44-2.66.88-5.3,1.66-8.1,1.97-1.39.16-2.84,0-4.31-.23-.43-.07-1.7.06-2.31-1.04-.11-1.87,2.11-1.94,2.72-2.34,1.08-.71,2.07-1.7,3.28-1.99-1.8.58-3.66.68-5.58.81-2.88.18-5.67.62-8.82-.53-1.03-.38-4.96-2.32-3.43-5.37.59-1.17,1.51-1.56,2.3-2.2.55-.45,1.97-1.18,1.81-2.89-1.88-.32-3.76-.53-5.57-.5-1.44.03-2.77.32-4.14.61-.38.08-.76.14-1.18.04-.43-.11-.89-.44-1.33-.62-1.41-.58-2.88-.75-4.23-.97-1.48-.24-3.01-.88-4.55-1.5-.94-.38-1.87-.75-2.81-1.09-.39.07-.79-.2-1.19-.81.06-1.73.75-2.88,1.23-3.93.68-1.48,1.25-3.21,2.02-4.51.64-1.09,1.43-1.8,2.18-2.61.35-.37.93-.75,1.08-1.58.43-2.4-2.74-4.12-3.49-4.71-1.55-1.22-3.04-1.84-4.57-2.87-.77-.51-1.67-.74-2.45-1.78-.98-1.3-1.22-2.76-1.08-4.26.16-1.77-.14-3.46-.8-5.61-.58-1.87-1.57-3.1-2.39-4.38-1.04-1.61-2.05-3.03-3.14-4.38-1.9-2.37-3.81-4.59-5.72-6.91-.95-1.15-.93-1.04-1.42-.07-.36.73-.86,1.07-1.39,1.35-1.24.66-2.42,1.43-3.73,1.85-2.88.91-5.97,1.41-8.66,2.99-1.05.62-3.35.89-3.74,3.25-.13.78-.05,1.7-.27,2.4-.25.78-.62.98-1.07,1.25-.65.38-1.16,1.01-1.87,1.23-1.52.46-3.1.81-4.56,1.46-1.34.59-.25,3.17-.36,5.52-.17,3.66-3.03,3.62-4.55,3.79-1.82.2-3.77-.98-5.83-2.49-.97-.71-2.22-1.22-3.17-2.92-1.84-3.28.67-4.65,1.4-5.42.88-.93,2.4-1.55,2.52-4.03-.49-1.25-2.48-1.04-2.95-1.12-.18-.03-.34-.02-.51-.03-.14.43-.26.89-.41,1.3-1.2,3.26-2.53,7.36-5.13,5.8-1.12-.67-1.79-2.59-2.23-4.84-.75.38-1.5.75-2.3,1-2.28.73-4.55,1.53-6.84,2.23-1.21.37-1.91,1.55-2.84,2.65-.34.4-.73.52-.91,1.29-.06.25-.18,1.07-.09,1.46.2.88.92,1.41,1.24,1.74.8.82,1.56,1.51,2.36,2.52.67.84,1.3,1.75,1.78,3.21.73,2.24-.48,2.98-1.09,3.51-2.5,2.12-5.39,3.09-8.24,4.04-.79.26-1.57.66-2.4.77-.67.09-1.42-.1-2.13-.15-1.36-.1-2.63.14-3.96.15-2.04.02-4.17-.06-6.34-.71-.52-2.23,1.27-4.35,1.5-5.71.22-1.25.49-3.32-.21-5.17-1.56-.83-3.09.13-4.1,1.34-.91,1.09-1.8,3.04-3.03,3.22-.5-.78-.54-2.19-.73-3.17-.53-2.64-1.9-3.01-3.93-3.06-3.33-.08-4.27,1.65-5.21,4.88-.93,3.22-1.28,6.43-3,9.23-1.08,1.76-2.41,3.34-4.19,4.22-3.17,1.56-6.87.57-10.25.12-4.63-.61-9.03-.4-13.24,1.67-2.88,1.42-5.64,3.34-7.93,5.72-2.14,2.23-3.9,5.05-6.65,6.46-2.73,1.39-6.42,2.22-9.48,2.29-4.41.11-8.84-2.16-13.24-1.65-2.6.3-6.74,1.18-8.12,3.17-2.2,3.19-2.38,7.84-4.84,11.11-1.73,2.3-3.62,4.05-5.88,5.65-3.92,2.77-9.45,2.22-12.95,5.2-1.95,1.66-3.13,2.35-5.7,2.95-2.94.69-7-.43-9.5,1.45-1.13.85-1.72,2.38-2.62,3.47-1.26,1.53-2.9,2.53-4.31,3.88-4.34,4.17-7.37,9.78-10.45,15.1-2.77,4.8-6.24,8.42-10.55,11.5-4.72,3.37-15.16,10.09-20.86,4.83-.61-1.97.48-3.74.75-4.49.53-1.51,1.24-2.49,1.84-3.84-.91.45-1.86.75-2.77,1.26-1.71.95-3.18,2.58-4.63,4.41-1.15,1.44-2.34,2.75-3.54,3.99-1.03,1.06-2.18,1.23-3.42,1.38-1.28.15-2.71.37-4.27-2.63-.56-1.08-.91-2.66-1.06-4.11-.21-2,.46-3.23.93-3.97.55-.86,1.09-1.71,1.65-2.55.39-.58.73-1.31,1.11-1.91.2-.31.54-.48.56-1.19-.21-.9-1.87-1.04-2.17-1.12-2.03-.56-3.83-.35-5.72-.1-1.93.25-3.85.5-5.78.75-.58.07-1.15.23-1.74.25-.26,0-.74.3-1.07-.28-.98-1.75.19-4.84.47-5.56.56-1.45,1.21-2.82,1.88-4.01.46-.82.77-1.23,1.44-1.3-.83.1-1.6.25-2.35.7-.71.42-1.37,1-2.07,1.43-.6.2-1.17.51-1.71.91-.43.49-.88.91-1.36,1.24-.92.5-1.97.23-3.02.05-.43-.07-.73-.02-1.19-.4-.6-.5-1.13-1.48-1.72-2.18-2.24-2.7-4.39-3.29-6.54-4.34-.5-.24-1-.51-1.5-.76.04.17.1.34.14.51.91,4.39-1.2,5.8-2.46,6.65-2.91,1.96-6.9-2.75-10.34-3.74-.99-.29-1.98-.38-2.94-.5-1.35-.17-2.84-1.17-4.15-1.1-1.91.11-2.99,3.54-5.49-.58-2.77-4.57-5.41-3.56-7.62-2.83-.35.12-.71.25-1.06.39.21.36.41.68.59.95.75,1.13,2.98,2.3,3.52,4.52-1.37,1.48-2.95,2.44-4.49,3.27-1.01.54-2.07.85-3.06,1.51-.51.34-1,.82-1.55,1.02-.67.24-1.43.21-2.14.3-2.55.33-5.13.66-7.91-.22-.69-.22-1.91-.39-2.29-2.71-.25-1.51-.15-2.59,0-3.63.18-1.24.47-2.17.73-3.25.07-.3.24-.78.27-1.34-1.58.28-3.27.2-4.99-.25-1.47-.38-3.03-1.52-4.6-3.16-.58.08-1.15.15-1.73.23-1.65.23-3.41-.16-5.06.07-1.51.21-2.96.32-4.27,1.4-.32.27-1.91.9-1.76,2.23,1.12,2.18,2.53,2.11,3.58,2.58.88.39,3.34.58,3.32,4.3,0,1.92-.74,2.9-1.17,3.95-.93,2.21-1.91,4.09-3.37,4.66-1.21.48-3.36,1.7-5.02-1.52-1.06-2.07-1.32-4.84-2.58-4.82-1.38.02-2.71.37-4.06.58-.63.1-1.27-.26-1.93-.33-.46-.05-.82-.07-1.33-.68-.45-.53-.78-1.4-1.21-2.05-1.28-1.97-3.13-1.25-4.18-1.37-2.69-.31-5.23.53-7.79.9-1.17.17-2.38-.03-3.59-.11-.52-.04-1.04-.13-1.61-.64-.77-.67-.8-.78-1.04.66-.47,2.88-.98,5.68-1.43,8.6-.26,1.66-.43,3.36-.54,5.25-.09,1.49-.33,3.01.02,4.94.4,2.21.87,3.87,1.74,5.39.73,1.29,1.16,2.7.97,4.29-.16,1.27-.74,1.84-1.11,2.63-.73,1.57-1.59,2.74-2.26,4.48-.32.85-2,3.71-.67,5.69.46.69,1.06.78,1.48.97.9.41,1.8.73,2.74,1.44,1.12.85,2.28,2.17,3.4,3.22.8.74,1.81,1.5,2.57,3.03-.05.73-.23,1.14-.56,1.23-.56.7-1.12,1.41-1.66,2.15-.91,1.2-1.79,2.41-2.81,3.24-.93.76-1.97,1.52-2.79,2.63-.26.35-.46.84-.74,1.11-.27.27-.59.37-.91.45-1.16.3-2.28.6-3.38,1.17-1.38.72-2.71,1.69-4,2.76.6,1.61,1.98,1.68,2.58,1.85.87.25,1.72.22,2.66,1.03,2.43,2.11.27,5.5-.35,6.26-1.89,2.34-4.19,3.11-6.44,4.14-1.5.69-2.95,1.36-4.55,1.59,1.03-.24,2.2.24,3.31.43.63.11,2.34-.75,3.03.98,0,1.24-1.01,1.65-1.31,1.9-1.01.83-2.05,1.57-3.16,2-2.25.88-4.57,1.27-6.94,1.59-1.81.24-3.58.76-5.53.28-.75-.18-1.36.34-2.1.17-1.35-.3-1.79-7.5-2.15-9.52-.4-2.24-.61-3.53-1.5-3.67-1.85-.31-3.3,1.18-4.77,2.46-1.75,1.52-3.28,3.97-5.29,4.54-.35.1-1.45-.35-1.4.72.07,1.72.82,2.39.36,3.72-.55,1.58-1.58,2.38-2.36,3.33-2.24,2.72-5.85,4.81-9.12,5.6-1.62.39-8.73,1.65-10,.64-1.63-1.28-.5-2.95-.42-4.88.05-1.24.15-2.87-.92-3.72-2.23-1.77-6.8,1.77-8.53,2.83-4.69,2.87-9.18,6.1-13.94,8.82-5.47,3.13-11.56,4.25-17.05,7.16-3.21,1.7-6.2,4.08-8.05,7.5-1.59,2.94-2.32,6.4-4.2,9.15-3.89,5.7-11.42,6.67-16.35,10.95-4.4,3.82-7.1,10.66-12.36,12.99-3.71,1.65-8.24,2.09-12.18,3.05-3.16.77-5.83.48-7.1,3.94-2.25,6.13-.69,13.11-1.37,19.6-.21,2.02-.58,3.45-2.46,4.43-1.42.74-3.16.89-4.64,1.67-2.08,1.1-4.41,1.75-6.38,3.1-4.4,3.03-4.27,8.55-6.43,13.31-1.09,2.4-1.92,3.8-4.01,5.02-2.55,1.5-5.64,1.43-8.06,2.84-2.38,1.39-3,4.72-3.9,7.31-1.23,3.5-3.39,6.63-4.2,10.32-.51,2.34-.19,4.63-.11,7.03.11,3.27-1.16,6.98-.56,10.13,1.07-1.3,1.71-3.04,2.48-4.6,1.8-3.62,3.46-7.58,5.31-11.07,1.32-2.49,2.69-4.97,4.2-6.93.41-.54,1.21-1.98,1.89-1.79.77,2.69-.68,6.92-.96,7.94-.91,3.35-2.05,6.25-3.01,9.52-1.51,5.19-2.9,10.61-3.42,17.67-.25,3.3-.33,6.93-.27,10.62.05,2.57.19,5.04-.19,7.08-.61,3.32-2.17,5.21-3.84,5.38-.59.06-1.19.06-1.73.35-.69.37-1.65.26-2.2,1.11-.41-1.62-.42-1.43-.97-2.28-.68-1.05-1.22-2.17-1.94-3.13-.49-.66-.96-1.48-1.45-1.69-.32-.14-.52-.11-.76.15-.59.65-1.15,1.63-1.53,2.86-.25.82-.33,1.95-.56,2.8-.33,1.25-2.09,3.83-3.12,1.77-.27-.54-.6-2.88-.76-3.46-.35-1.31-.45-1.53-.89-1.61-.44.32-.83.79-1.17,1.43-.52.8-1.03,1.6-1.55,2.4-1.57,2.54-2.89,5.78-4.45,8.34-.58.95-.99,1.71-1.91,1.03-1.38-6.58,4.03-22.72,2.91-24.75-2.3,2.74-4.51,5.64-6.28,9.92-1.28,3.1-2.6,6.16-3.8,9.45-1.17,3.2-2.39,6.58-3.07,10.85-.27,1.69-.16,2.56.68,3.23,1.11.89,1.38,1.92,1.89,4.55.7,3.64-.41,6.98-.82,9.11-.32,1.68-.71,3.22-1.08,4.81-.21.88-.58,1.76-.48,3.11.62-.41,1.11-1.44,1.67-2.07,1.24-1.4,2.52-2.67,3.74-4.12,1.77-2.09,3.27-5.01,4.89-7.55.74-1.16,1.79-3.41,2.93-3.48.38-.02,1.65,0,1.84,1.81.05.47-.16.64-.26.85-.52,1.17-1.05,2.28-1.57,3.46-2.16,4.93-3.66,11.4-5.02,18.08-.21,1.05-.44,2.12-.4,3.57.12,4.39,1.71,10.37,2.86,14.88.42,1.63,1.1,4.26,1.08,5.78-.02,2.16-1.15,4.89-1.65,5.83-.57,1.07-1.17,1.87-1.98,2.11-.38.11-.91.39-1.33.25-.43-.15-.67-.98-1.09-1.57-.9-1.25-1.58,1.17-2.32,1.42-.77.26-1.76.57-2.71-.25-.48-.41-.88-1.14-1.19-.61-.55.97-.32,3.36-.52,4.93-.1.8-.4,1.41-.63,1.93-.04.08-.59.78-.59.7-.02-1.23.11-3.97-.73-5.19-1.17-1.71-2.54,1.76-3.04,2.69-.75,1.4-1.36,3.08-1.96,4.83-.3.87-.62,2.13-1.09,2.56-.79.73-.57-1.2-.46-2.41.33-3.71.76-7.2,1.21-10.72.03-.25.4-2.53-.25-3.2-.51-.51-.86,2.36-1.04,2.98-.5,1.74-1.11,3.15-1.76,4.52-1.12,2.37-2.1,5.11-2.95,8.13-.58,2.07-1.22,4.03-1.81,6.09-.35,1.2-1.19,2.41-.86,4.65.05.35.39,2.2.55,2.39.25.31.4-.42.52-.63.35-.59.85-.63,1.34-.68.49-.05.99-.4,1.54-.11.32,1.01.36,1.85.37,2.78.03,1.88.02,3.76,0,5.57-.03,2.23-.16,4.4-.47,6.19-.32,1.8-.49,3.7-.74,5.59-.13.94-1.24,4.13-.16,4.89.3.21.62.05.96.27.33.22.75.43,1.09.91.64.89,1.05,2.58,1.32,4.04.34,1.84.19,2.43-.13,3.39-.62,1.84-1.56,3.95-.71,7.87.77-2.26,3.2-1.68,4.16,3.26.27,1.37.28,2.62.64,4.01,1.31,5.06,2.92,2.74,4.23,3.15,1.15,3.01.62,6.46.91,9.22.11,1.05.32,2.17.23,3.05-.15,1.47-.86,1.66-1.4,2.03-.85.58-1.66,1.31-2.54,1.77-.46.24-.88.39-1.24.99-.31.52-.47,1.27-.58,2.23-.09.73-.02,1.75-.2,2.24-.35.91-1.13.84-1.72.86-.43.01-.9-.42-1.33-.44-.34-.01-.65.12-.98.15-1.19.12-1.99,1.66-2.43,3.94-.43,2.21-.43,5.1-.79,7.42-.25,1.57-.7,2.58-1.2,3.56-.87,1.71-1.7,3.53-2.57,5.26-.73,1.45-1.37,3.59-2.53,3.68-.17-.74.12-1.54.17-1.99.12-1.2.13-2.65.07-4.08-.1-2.59-.66-7.17-1.65-9.9-1.84-5.08-3.31-1.66-4.97-2.47-.39-1.44.04-3.1.2-3.92.37-1.85.78-3.7,1.01-5.81.07-.66.3-1.81-.12-2.58-.66-1.2-1.62,2.66-1.79,3.18-1.24,3.75-2.23,7.92-3.07,12.49-.51,2.75-1.06,5.43-1.82,7.63-.41,1.18-.93,2.2-1.25,3.59-.36-.3-.66-2.01-.73-2.77-.14-1.35.14-2.51.24-3.55.2-2.26.16-4.64.07-7.26-.1-2.76-.04-5.14.24-7.43.18-1.46.14-3.92.61-4.75-.8-1.4-1.98.16-2.43.69-.88,1.06-1.65,2.55-2.59,3.43-1.15,1.06-1.94,3.17-2.59,5.59-.4,1.5-.84,2.56-.95,4.61-.09,1.53-.13,3.11-.24,4.61-.14,1.93-.52,3.46-.79,5.18-.36,2.33-.9,4.47-1.42,6.5-1.18,4.63-3.1,8.19-3.7,13.97-.2,1.9-.07,4.35-.1,6.46,0,.25.01,1.25.06,1.52.29,1.68,1.13,1.15,1.48.93.58-.36,1.03-1.34,1.51-2.04.67-.97,1.38-1.81,2.07-2.71.42-.54,1.57-3.25,2.38-2.08.09,1.29-.17,2.64-.28,3.62-.19,1.75-.43,3.43-.63,5.18-.17,1.54-.73,3.7-.37,5.86,1.1.78,2.29-.78,3.06-1.44.6-.52,1.72-2.39,2.63-1.37.58,2.51.09,6.59-.06,8.4-.27,3.3-.94,5.94-1.34,9.03-.31,2.43-.77,4.57-1.12,6.92-.2,1.35-.84,3.67-.46,5.79.25,1.38.46,1.23.97,1.36.95.25,1.93-.06,3,1.24.37.45,1.17,1.61,1.46,2.68.68,2.49-.33,4.67-.64,5.93-1.23,5.04-2.56,10.07-3.27,16.1-.5,4.22-.63,8.98-1.21,13.07-.91,6.46-2.03,12.64-3.22,18.57-1.1,5.45-2.4,10.52-3.3,16.36-.38,2.51-.7,4.84-1.32,6.86-.9,2.95-1.5,6.94-2.61,9.38-.26-.76-.58-2.42-.74-3.23-.6-3.08-.49-5.74-.38-8.21.09-2.08.29-3.97.42-5.98.05-.74.26-2.65-.18-3.8-.96-.69-1.47,1.5-1.87,2.72-.88,2.71-1.8,5.41-2.56,8.38-.85,3.32-1.73,6.54-2.66,9.69-.41,1.39-.86,3.44-.79,5.63.04,1.4.18,4.07.79,5.54.71,1.7,1.12,1.31,1.47,3.72.3,2.07.19,3.94.21,5.77,0,.62-.06,2.08.15,2.84.54,1.96,2.48-1.65,2.78-2.09.28,1.17.29,2.16.03,2.96-.12,2.59-.24,5.2-.34,7.81-.15,4.02-.24,8.12-.02,12.58.05.98.3,5.91.97,7.3.33.69.6.42.88.35.44-.1,1.03-.27,1.59.86.45.91.63,2.18.86,3.3.55,2.64.81,4.75,1.11,7.33.2,1.74.2,3.3.98,4.09,1.05,1.06,1.75-.9,2.77.16,1.69,1.75,1.23,7.06,1.06,8.91-.42,4.49-.76,9.08-1.3,13.37-.59,4.69-1.18,9.2-1.55,14.24-.12,1.65-.27,3.27-.39,4.91-.1,1.26-.43,2.09-.59,3.21.48-3.05,2.67-5.98,4.45-3.01,1.41,2.35,2.34,11.06,2.83,13.99,1.44,8.48,2.86,19,.22,25.14-1.19,2.77-2.02,5.05-3.07,8-.9,2.54-1.49,3.28-3.23,4.06-4.04,1.8-9.88-.12-13.47,2.87-1.35,1.13-2.16,4.51-3.35,6.24-2.13,3.07-4.52,4.57-7.78,4.53-3.05-.04-6.27-1.08-9.38-1.26-4.07-.24-6.63-2.73-10.66-5.08-2.11-1.23-5.53-3.16-6.9-.49-.23.45.52,2.49.36,3.06-.26.92-.83,2.46-1.04,3.73-.69,4.08-.87,11.91-2.96,14.43-1.45,1.75-4.7,1.85-6.66,1.99-3.24.23-6.5-.89-9.73-.47-3.63.48-7.13,2.08-10.59,3.2-5.35,1.72-10.88,2.82-16.26-.21-4.32-2.44-7.88-6.33-12.2-8.81-6.66-3.83-14.15-4.7-20.88-8.47-7.74-4.34-14.95-10.01-22.57-14.65-3.89-2.37-7.02-3.78-11.44-3.48-5,.33-9.85,2.37-14.71,3.42-12.47,2.7-25.22-3.97-37.1-8.51-5.01-1.91-8.44-5.59-11.88-10.06-3.33-4.35-4.83-8.38-6.52-13.57-.95-2.91-2.43-5.55-3.47-8.43-1.07-2.93-1.85-6.21-3.18-9-2.54-5.36-7.06-9.91-10.62-14.5-5.44-7.02-13.81-11.56-14.69-21.49-.38-4.32,5.13-6.29,5.33-10.73.06-1.34-1.06-4.05-1.4-5.35-.85-3.31-.54-5.13.23-8.29,1.69-6.98,4.97-14.25,9.95-18.94,4.1-3.86,7.44-2.03,12.16-.31,4.12,1.5,5.81-1,7.25-4.44Z"/><path class="cls-1" d="M290.38,198.83c.22.37.44.73.67,1.08,7.08,10.51,17.45,10.21,29.11,10.23,13.29.02,27.8.4,39.95-5.66,17.07-8.52,30.25-8.45,49.54,1.75,14.82,7.83,14.29,24.77,29.26,33.39,19.49,11.22,39.92,17.65,57.07,32.97,7.97,7.12,14.66,15.33,21.25,23.68,4.81,6.09,9.49,12.28,14.1,18.52,7,9.49,13.86,19.03,21.51,28.01,11.55,13.56,24.73,24.94,32.54,41.17,8.96,18.61,18.3,27.04,34.5,39.46,22.55,17.28,40.11,40.35,62.69,57.9,16.72,12.99,32.34,24.51,47.43,39.04,13.7,13.18,25.76,25.2,32.2,44.18,2.02,5.96,1.45,10.2,4.4,15.91,3.3,6.38,8.04,8.95,12.4,14.14,11.51,13.7,18.57,31.42,30.79,44.84,8.02,8.82,15.4,14.98,21.97,25.35,8.4,13.26,17.29,25.43,25.87,38.27,3.47,5.19,7.31,13.22,13.27,15.09,5,1.58,14.49-.31,19.89-.35,5.86-.04,14.26-1.61,19.89-.25,3.85.93,5.55,5.9,9.55,5.65,4.88-.31,8.77-6.41,11.07-10.07,4.64-7.38,8.17-13.08,13.63-19.98,6.96-8.79,14.49-20.81,24.29-25.89,6.28-3.25,13.25-4.25,19.73-7.01,5.27-2.25,11.15-8.54,15.83-10.18,5.09-1.79,8.84.39,13.9-.71,4.04-.88,9.23-4.56,13.25-6.38,32.52-14.8,56.08,33.36,70.83,52.99,8.37,11.13,13.55,23.53,22.01,34.52,20.63,26.77,43.8,57.28,52.43,90.47,4.33,16.69,12.36,29.45,19.43,44.41,5.92,12.51,17.04,19.92,22.04,33.52,3.91,10.63,10.92,17.01,16.29,27.05,4.88,9.12,9.2,18.97,13.11,28.55,4.44,10.89,10.69,18.82,16.3,29,5.51,10.01,9.59,20.26,15.82,30.01,26.83,41.99,52.18,86.3,92.31,116.82,13.22,10.05,32.32,31.14,50.53,23.06,14.29-6.34,19.13-25.95,27.31-37.87,4.95-7.21,8.28-22.74,19.5-20.45,8.04,1.64,9.26,10.57,13.76,15.82,4.56,5.31,9.36,7.57,15.83,10.66,21.16,10.07,41.21,28.12,57.79,44.31,15.03,14.68,28.26,36.59,37.96,55.08,2.82,5.39,4.81,12.29,8.28,17.29,4.15,5.97,8.95,6.33,13.88,10.52,8.92,7.6,12.6,20.24,21.36,28.72,24.61,23.8,39.27,56.73,68.34,76.39,13.09,8.85,22.96,20.72,36.88,28.41,13.48,7.45,27.69,13.99,42.27,19.02,25.7,8.87,64.28,16.17,86.29-5.75,14.83-14.78,19.89-35.05,34.23-49.56,6.6-6.68,11.23-8.55,19.91-12.2,4.94-2.07,9.35-6.28,14.27-7.54,14.66-3.76,30.77,9.42,42,16.8,51.86,34.1,97.63,73.49,149.7,106.14,11.07,6.94,22.37,13.7,33.27,20.85,12.99,8.53,21.29,21.71,37.91,23.49,23.96,2.55,45.09-8.26,61.36-23.61,11.47-10.81,20.61,3.66,31.86,10.56,17.92,10.98,26.57,18.09,36.63,35.96,10.46,18.59,27.48,29.41,40.01,45.89,10.86,14.28,17.56,26.49,31.41,38.41,11.54,9.94,20.4,22.07,33.01,28.71,6.72,3.54,13.39,9.16,20.98,10.79,7.24,1.56,14.87-.57,22.2.26,23.84,2.7,45.65,30.23,69.42,27.21,8-1.02,14.43-6.79,22.63-7.75,13.23-1.55,27.38,3.97,40.27,6.29,23.97,4.32,54.08,16.62,79.26,15.88,21.71-.65,45.02-10.79,64.66-19.29,27.32-11.82,64.39-24.42,82.81-48.7,18.27-24.09,52.53-43.16,82.59-28.98,17.7,8.35,25.12,25.92,34.98,41.41,6.85,10.77,15.01,20.98,25.11,28.9,17.61,13.81,46,21.43,67.25,11.8,20.14-9.12,38.72-27.09,62.15-26.96,9.46.05,9.02,2.88,16.41,6.59,13.06,6.56,22.87,8.76,33.42,19.49,11.15,11.34,23.06,23.93,35.56,33.48,15.48,11.82,21.18-6.57,29.34-17.93,9.81-13.66,13.61-29.54,32.03-31.65,12.87-1.47,20.48,5.19,30.7,11.08,17.53,10.09,26.81,20.45,36.89,38.4,5.63,10.03,10.52,20.2,18.05,29.11,7.58,8.97,14.85,14.9,20,25.75,4.44,9.34,6.52,17.03,11.55,25.9,8.25,14.52,15.92,29.49,27.47,41.73,9.88,10.47,19.24,26.92,34.51,29.69,12.43,2.25,28.96.98,39.25-5.03,31.01-18.12,65.52-30.4,90.99-56.74,12.01-12.42,25.51-21.03,36.82-33.56,9.67-10.71,17.35-20.58,29.16-28.68,17.9-12.27,40.4-20.58,54.33-38.19,10.24-12.95,15.69-29.58,26.63-41.72,13.23-14.67,25.24-31.02,41.33-42.78,7.61-5.57,16.03-10.03,25.27-12.17,4.22-.98,9.94-2.36,14.25-1.33,6.24,1.49,15.92,10.26,21.16,13.4,9.77,5.86,19.81,11.33,29.31,17.62,7.93,5.25,13.27,11.69,19.32,18.86,19.18,22.74,43.44,41.06,63.65,63.04,15.61,16.97,33.32,35.05,52.14,49.01,10.7,7.94,22.4,6.69,33.71-2.99,7.07-6.05,10.31-10.16,19.21-12.21,6.15-1.42,13.08-2.71,19.45-4.13,28.63-6.37,49.52,24.63,65.17,43.99,22.36,27.66,58.72,63.59,96.81,58.84,27.35-3.41,43.06-27.57,65.14-40.9,17.15-10.35,36.36-21.11,53.27-32.31,10.65-7.05,18.36-17.72,31.28-23.9,13.21-6.32,24.51-15.12,36.89-22.76,24.31-15,54.49-16.15,79.78-29.42,24.9-13.07,54.6-19.59,81.27-28.92,32.36-11.32,62.73-26.68,95.13-37.74,24.97-8.53,48.49-19.12,75.41-20.04,31.44-1.08,55.23,19.73,85.14,26.84,37.54,8.92,75.33,12.42,113.69,12.69,17.23.12,31.41-2.6,48.21-4.54,7.79-.9,15.76.71,23.45-1.14,11.2-2.7,23.67-11.4,34.5-15.97,19.45-8.21,34.07-27.91,50.83-40.45,23.37-17.49,49.06-31.98,72.85-49.02,13.75-9.84,29.7-20.23,44.96-27.5,27.67-13.2,58.32-26.5,87.3-36.55,10.53-3.65,18.81-5.59,27.47-12.38,7.58-5.94,10.63-11.57,16.11-18.77,4.88-6.41,11.21-9.39,17.21-14.38,21.98-18.27,39.42-42.5,63.93-58.16,22.36-14.28,46.69-24.51,65-43.81,8.4-8.85,18.49-16.61,26.15-26,9.15-11.22,15.19-19.75,27.78-28.24,30.38-20.5,65.74-27.01,98.43-42.82,13.06-6.32,25.61-15.15,38.73-20.99,19.44-8.65,41.71-12.58,62.33-17.18,18.24-4.07,27.34-12.28,41.71-23.2,18.05-13.71,41.52-18.59,61.11-29.53,28.95-16.17,63.11-28.01,96.44-29.45,19.82-.86,26.19,8.3,42.43,16.62,6.6,3.38,14.37,3.79,19.8,9.39,5.4,5.57,5.94,12.49,12.86,17,11.15,7.27,27.46,8.32,39.79,13.34,11.16,4.54,21.91,10.46,30.92,18.53,15.75,14.1,23.92,33.4,25.41,54.29,2.83,39.72-12.79,95.06-36.76,126.73-8.37,11.06-19.25,19.79-26.93,31.44-8.08,12.25-14.57,25.89-21.65,38.74-14.66,26.6-23.21,55.81-34.59,83.84-28.07,69.16-55.73,138.7-89.14,205.42-25.38,50.68-51.4,100.56-60.63,157.15-6.49,39.79-3.55,79.84-1.77,119.87,2.48,55.94.02,111.4-8.44,166.8-5.3,34.74-11.04,69.46-13.32,104.57-.85,13.14,1.84,41.41-9.78,50.51-6.83,5.35-20.48,2.58-28.36,2.05-13.42-.9-26.8-.86-40.25-.89-35.48-.1-71.12.41-106.16,6.58-32.21,5.67-67.25,1.85-99.73,1.85-41.41,0-82.83-.14-124.24-.03-135.51.37-269.31-16.65-405.31-4.13-89.52,8.24-180.04,4.16-269.84,4.16h-778.02c-83.17,0-166.34.2-249.51-.19-100.7-.47-200.79,9.36-301.6,8.5-82.61-.7-164.33,8.88-246.95,8.5-96.84-.44-193.69-.19-290.53-.19h-1661c-46.05,0-92.11.19-138.16.03-48.36-.16-94.79,6.99-142.68,8.71-29.73,1.07-64.99,4.25-94.17-1.88-49.91-10.49-94.83-24.18-146.46-23.68-31.71.31-63.41.21-95.12.19-28.65-.02-58.62,4.1-86.45-3.31-61.68-16.43-124.08-49.78-187.43-54.64-36.86-2.83-70.4-20.26-75.18-58.21-2.83-22.41.19-47.54.19-69.95,0-26.1.14-52.21.38-78.31.76-81.38,2.55-162.74,4.35-244.09.72-32.45,4.82-65.6-4.84-97-4.36-14.16-5.03-28.02-5.69-42.74-.86-19.24-4.4-38.26-4.58-57.53-.11-12.21.12-24.44.12-36.65,0-26.39.8-52.99-5.28-78.91-6.77-28.85-16.21-57.23-23.75-85.91-6.31-23.99-10.95-47.54-20.66-70.62-11.37-27.04-14.29-55.7-22.65-83.84-11.48-38.68-17.71-78.17-24.04-117.99-7.18-45.12-12.34-90.49-14.79-136.13-1.63-30.44-2.47-59.9-6.58-90.12-8.3-61-20.04-121.65-24.56-183.09-3.06-41.68-8.08-83.2-11.32-124.87-4.11-52.87-8.31-106.91-22.16-158.29-8.44-31.31-22.1-60.72-31.98-91.54C6.55,315.62.39,269.11.14,222.1-.13,172.38-.46,122.56,3.77,72.97c2.03-23.77,19.5-39.7,33.31-57.18C52.06-3.15,69.77.23,92.11.24c22.29.01,47.1.45,65.63,14.64,17.07,13.07,33.21,27.03,45.81,44.27,3.09,4.23,7.25,7.35,10.24,11.66,4.07,5.88,6.33,12.55,11.03,18.05,7.66,8.97,17.09,15.63,23.93,25.37,10.34,14.73,15.8,28.48,22.88,44.88,3.46,8,8.54,15.14,12.26,23.05,2.39,5.08,3.68,11.82,6.48,16.66Z"/></g></svg>