<?xml version="1.0" encoding="UTF-8"?><svg id="Layer_2" xmlns="http://www.w3.org/2000/svg" viewBox="0 0 750.12 383.46"><defs><style>.cls-1{fill:#f2f2f2;}.cls-1,.cls-2,.cls-3{stroke-width:0px;}.cls-2{fill:#e6e6e6;}.cls-3{fill:#fff;}</style></defs><g id="Layer_1-2"><path class="cls-2" d="M402.99,364.42c-1.79-1.93-3.58-3.87-5.38-5.8,8.68,1.16,17.75-.95,25.03-5.82.65,12.14,13.77,21.99,25.61,19.22,2.75-.64,5.43-1.85,8.25-1.76,2.73.09,5.26,1.38,7.71,2.6,12.66,6.27,26.67,11.16,40.69,9.41,14.02-1.76,27.77-11.81,29.88-25.78,3.42,4.67,10.98,5.52,15.36,1.74,7.95,12.15,25.82,16.47,38.44,9.29,4.02-2.29,7.75-5.63,12.36-5.95,3.48-.24,6.8,1.32,10.07,2.54,20.53,7.65,45.47,1.48,60.06-14.86,11.48,13.11,32.62,8.82,48.84,2.43,6.47-2.55,13.06-5.38,17.89-10.39s7.48-12.73,4.66-19.09c7.21-4.83,9.83-15.4,5.7-23.03-4.13-7.63-14.41-11.23-22.4-7.83,2.84-12.26-9.09-25.47-21.57-23.89-2.47-9.81-11.53-17.6-21.6-18.57-10.07-.97-20.45,4.94-24.75,14.1-27.28-16.61-62.11-9.85-93.3-2.93-61.63,13.67-123.58,25.87-185.79,36.57-18.78,3.23-59.46,1.24-65.54,24.75-5.66,21.9,15.95,37.07,33.88,39.97,3.52.57,5.49-2.02,8.8-.74,1.48.57,3.33,4.96,5.07,6,4.75,2.83,8.52,5.42,14.12,6.49,2.95.56,31.62-4.66,27.92-8.66Z"/><path class="cls-1" d="M129.27,343.36c-1.5,4.64.06,10.12,3.78,13.27,3.72,3.15,9.39,3.79,13.72,1.54-.13,8.06,7.53,15.38,15.58,14.88,8.05-.5,14.75-8.7,13.62-16.69,4.52,8.92,19.5,9.42,24.61.82-.25,9.69,13.11,16.46,20.78,10.53,7.64,6.24,18.56,9.64,27.5,5.48,8.94-4.16,12.92-17.75,5.62-24.38,4.89,4.83,14.05,4.11,18.11-1.43-1.84,6.24,1.67,13.19,7.11,16.76,5.43,3.57,12.33,4.25,18.78,3.51,5.25-.6,10.54-2.15,14.61-5.51,4.07-3.36,6.69-8.8,5.67-13.98,6.97,7.28,20.17,7.11,26.94-.34,2.09,5.6,11.52,6.03,14.11.64-2.17-3.53-4.33-7.06-6.5-10.59,5.09,6.22,18.25.54,19.59-7.38-2.02,3.14,2.13,6.57,5.58,8.01,8.88,3.7,17.91,7.38,27.45,8.59,9.54,1.22,19.8-.27,27.47-6.08,7.67-5.8,11.98-16.5,8.6-25.5,4.23,8.16,12.46,14.11,21.53,15.57,9.07,1.46,18.76-1.61,25.33-8.03,2.73,4.18,9.52,4.84,13,1.25-.09,10.05,10.33,17.03,20.15,19.2,12.56,2.79,26.11.87,37.4-5.29-1.56-1.45-3.12-2.91-4.68-4.36,8.88,5.84,24.51-1.35,27.99-11.39,10.2,13.3,33.2,13.53,43.67.44,12.52,8.82,31.21,7.42,42.28-3.16,5.89,1.85,12.12-3.65,13.07-9.75.95-6.1-1.91-12.15-5.37-17.26-9.6-14.21-23.96-24.38-38-34.23-2.83-1.99-5.73-4-9.04-4.98-8.06-2.37-16.37,1.83-24.21,4.86-31.73,12.27-68.69,5.6-97.84-11.94-8.34-5.02-17.29-11.14-26.88-9.49-5.49.94-10.19,4.35-14.77,7.51-13.23,9.14-27.28,17.08-41.93,23.69-3.3,1.49-6.75,2.93-10.36,2.91-4.37-.03-8.44-2.21-11.95-4.82-10.08-7.47-17.09-18.98-19.09-31.37-.71-4.38-.88-9.05-3.25-12.81-4.34-6.87-13.91-7.78-22.01-7.22-16.56,1.13-32.92,5.28-48.02,12.18-7.31,3.34-14.55,7.52-19.32,13.99-5.59,7.59-7.1,17.33-10.16,26.25-7.7,22.43-26.6,40.71-49.29,47.63-4.8,1.47-9.92,2.45-14.84,1.43-9.43-1.96-15.71-10.53-22.74-17.11-14.08-13.18-35.74-19.44-53.35-11.58s-27.28,31.93-16.73,48.07c-2.33-3.27-4.66-6.54-6.99-9.8"/><path class="cls-3" d="M683.79,285.89c-1.5-24.88-12.07-50.26-32.5-64.55-20.43-14.28-51.36-14.26-68.53,3.81,2.42-19.9-23.88-36.4-40.74-25.56-2.35-11.28-5.18-23.41-13.94-30.89s-25.35-6.26-28.78,4.73c3.49-23.72-27.36-44.3-47.92-31.96-.35-43.05-18.9-86.41-52.32-113.55C365.65.78,317.37-8.26,277.65,8.33c-32.34,13.51-57.33,43.41-64.88,77.64-7.55,34.23,2.54,71.87,26.19,97.73-10.84-5.37-25.81,3.83-25.92,15.92-9.75-10.4-31.09.15-28.73,14.22-17.08-24.64-48.07-38.89-77.9-35.83-28.76-20.54-76.95,8.63-68.98,50.93-65.04,52.65-38.43,132.01,27.21,134.91,11.41,23.31,56.93,27.7,61.24,2.9,16.71-14.98,16.46-44.84-.51-59.53,9.62,13.61,33.52,12.84,42.24-1.36,4.95,18.39,20.54,33.49,39.07,37.85,18.53,4.36,39.22-2.2,51.85-16.45,19.95,7.81,45.12-2.2,54.27-21.57,9.15-19.38.87-45.17-17.84-55.61,9.45,12.18,27.48,15.01,42.17,10.33,14.69-4.68,26.61-15.41,37.17-26.64-12.49,13.02-11.27,36.6,2.51,48.25,13.78,11.66,37.23,8.96,48-5.52,2.19,19,24.96,32.48,42.67,25.27,17.71-7.21,24.58-32.77,12.88-47.89,9.19,8.69,16.02,19.85,19.59,31.98,12.38,6.71,28.99,4.47,39.15-5.29-11.37,14.01,1.01,39.19,19.05,38.74,18.04-.45,29.16-26.2,17.11-39.64,5.6,10.25,19.06,15.41,30.08,11.53,11.02-3.88,18.27-16.34,16.21-27.84,3.09,5.06,6.18,10.12,9.27,15.17,15.6,21.62,52.82,23.24,52.96,7.32Z"/></g></svg>