<?xml version="1.0" encoding="UTF-8"?><svg id="Layer_2" xmlns="http://www.w3.org/2000/svg" viewBox="0 0 592.2 309.52"><defs><style>.cls-1{fill:#f2f2f2;}.cls-1,.cls-2,.cls-3{stroke-width:0px;}.cls-2{fill:#e6e6e6;}.cls-3{fill:#fff;}</style></defs><g id="Layer_1-2"><path class="cls-2" d="M31.32,232.42c-7.98-5.43-20.1-2.17-25.97,5.3-5.87,7.48-6.41,17.76-4.02,26.82,5.44,20.65,25.93,36.86,48.25,38.17,8.51.5,17.86-1.38,23.29-7.63s4.37-17.54-3.48-20.72c1.79,12.29,19.3,19.5,29.92,12.33-4.78,8.63,4.97,18.54,14.81,21.31,17.91,5.03,38.88-2.7,48.54-17.89,4.76,9.66,23.78,5.25,23.33-5.4,6.38,14.03,25.95,16.25,42.01,16.38,9.22.07,18.91.04,26.97-4.22,8.05-4.26,13.51-14.31,9.21-22.07,4.16,8.71,19.31,9.6,24.54,1.44-.14,9.18,7,17.36,15.64,21.45,8.64,4.09,18.55,4.85,28.19,5.2,13.95.5,29.1-.1,40.01-8.38s13.53-27,1.64-33.98c8.65,8.07,24.08,8.2,32.85.26-3.21,7.26-4.19,16.23.7,22.6,4.89,6.37,17.08,7.14,20.67.03,4.15,16.59,26.06,24.8,43.21,19.87,17.15-4.92,29.54-19.27,37.73-34.43,18.74-34.71,19.46-79.37-4.07-111.37-23.53-32-72.92-46.31-108.52-26.97-12.68,6.89-23.48,17.49-37.64,20.87-26.67,6.38-52.39-15.01-79.9-15.3-12.42-.13-24.38,4.08-36.01,8.23-19.55,6.98-39.62,14.24-55.08,27.59-25.16,21.73-43.22,76.34-81.28,44.5-9.11-7.62-17.37-21.8-29.07-26.04-14.13-5.11-30.47,4.14-26.71,20.83-15.46-10.87-21.98,10.12-19.74,21.23Z"/><path class="cls-1" d="M185.24,241.71c-2.13,5.6.09,12.4,5.17,15.89,5.08,3.49,12.59,3.36,17.54-.3-2.75,2.24-1.03,6.6,1.48,9.08,9.54,9.4,28.27,7.73,35.78-3.2.95,3.61,6.17,5.45,9.38,3.31,2.55,5.55,8.35,9.63,14.69,10.34,6.34.7,12.98-2.01,16.81-6.86,8.31,5.98,21.14,4.35,28.58-2.59,7.44-6.93,9.62-18,6.86-27.54-1.03,9.91,11.44,18.59,21.1,14.69,6.71,10.73,25.45,11.77,33.43,1.85,4.3,5.07,13.51,5.3,18.09.46.65,4.08,4.42,7.21,8.55,8.53s8.59,1.16,12.94.99c-1.02-.97-2.04-1.95-3.05-2.92,13.32,3.01,29.38-5.35,36.81-16.26,3.86-5.66,7.23-11.83,8.04-18.53,1.44-11.85-5.32-23.22-13.29-32.46-14.6-16.91-34.15-29.94-55.87-37.23-12.39-4.16-25.84-6.47-38.72-3.99-13.98,2.7-26.03,10.73-38.37,17.53s-26.41,12.66-40.47,10.35c-12.43-2.04-23.2-10.25-35.77-11.25-14.19-1.13-27.14,7.07-38.53,15.16-5.57,3.95-11.19,8.07-15.05,13.56-7.06,10.03-7.16,23.15-4.59,34.96-.22-1.16-.45-2.32-.67-3.48l9.13,9.92Z"/><path class="cls-3" d="M571.19,233.94c7.06-6.7,14.45-7.66,16.68,1.06,5.87,13.11,6.7,30.15-3.37,40.41-10.07,10.25-32.16,5.72-33.08-8.62-17.43,27.86-54.77,44.45-84.87,31.24-30.09-13.21-41.01-60.09-15.46-80.76-11.51,3.36-24.12,6.67-35.16,1.99-11.04-4.68-17.13-21.28-7.86-28.88-18.94,9.23-44.95-3.85-48.83-24.56,11.22,13.96,17.78,32.67,13.49,50.05-4.29,17.39-21.44,31.87-39.19,29.52-17.75-2.34-30.7-24.78-21.15-39.93-20.49,7.17-45.61-8.54-48.13-30.1,9.37,12.25,5.12,32.46-8.39,39.89-13.51,7.44-32.86.22-38.19-14.25,15.76,16.12,14.21,45.73-3.16,60.11-17.36,14.38-46.75,10.39-59.65-8.1-12.03,16.8-34.42,25.47-54.63,21.16-20.21-4.31-27.77-21.99-29.01-42.62-.93-15.45-1.49-32.27,7.5-44.88,8.99-12.61,31.51-15.82,38.72-2.12-7.37-19.24-4.6-43.67,11.34-56.72,15.94-13.05,45.05-7.51,50.75,12.29-16.06-56.04,20.99-121.61,77.28-136.78s121.27,22.91,135.54,79.43c23.94-4.95,50.29,11.61,56.21,35.33,8.45-9.23,25.03-4.78,32.29,5.41,7.25,10.2,7.82,23.54,8.12,36.05,31.13,1.02,58.12,28.26,52.53,63.77,12.77-19.6,36.85-5.6,29.68,10.59Z"/></g></svg>