<?xml version="1.0" encoding="UTF-8"?><svg id="Layer_2" xmlns="http://www.w3.org/2000/svg" viewBox="0 0 831.2 259.7"><defs><style>.cls-1{fill:#f2f2f2;}.cls-1,.cls-2,.cls-3{stroke-width:0px;}.cls-2{fill:#e6e6e6;}.cls-3{fill:#fff;}</style></defs><g id="Layer_1-2"><path class="cls-2" d="M43.95,186.31c-11.21-5.17-28.21-2.07-36.45,5.05s-8.99,16.9-5.64,25.53c7.63,19.66,36.4,35.09,67.73,36.33,11.95.47,25.07-1.31,32.68-7.27,7.62-5.95,6.13-16.7-4.89-19.72,2.51,11.7,27.09,18.57,42,11.74-6.7,8.21,6.98,17.65,20.78,20.28,25.14,4.79,54.57-2.57,68.13-17.03,6.68,9.19,33.38,5,32.75-5.14,8.95,13.36,36.42,15.47,58.96,15.59,12.94.07,26.55.04,37.85-4.02,11.3-4.06,18.97-13.62,12.92-21.01,5.84,8.29,27.11,9.14,34.45,1.37-.2,8.74,9.83,16.53,21.95,20.42,12.12,3.9,26.04,4.62,39.56,4.95,19.59.47,40.84-.09,56.15-7.98s18.99-25.7,2.3-32.35c12.14,7.68,33.81,7.8,46.11.25-4.5,6.92-5.88,15.45.99,21.51,6.87,6.06,23.97,6.79,29.01.03,5.83,15.8,36.58,23.6,60.66,18.92,24.07-4.69,41.47-18.34,52.95-32.78,26.3-33.04-13.68-52.74-46.7-83.2-33.03-30.46-61.36-66.9-111.33-48.49-17.8,6.56-32.96,16.65-52.84,19.87-37.44,6.07-73.54-14.29-112.15-14.56-17.44-.12-34.23,3.88-50.55,7.83-27.44,6.64-55.6,13.56-77.31,26.27-35.32,20.68-60.66,72.67-114.08,42.36-12.78-7.25-24.38-20.76-40.81-24.79-19.83-4.87-42.77,3.94-37.49,19.83-21.69-10.35-30.85,9.64-27.7,20.21Z"/><path class="cls-1" d="M259.99,195.15c-2.98,5.33.13,11.81,7.26,15.13,7.13,3.32,17.67,3.2,24.61-.29-3.86,2.13-1.45,6.28,2.08,8.64,13.39,8.95,39.67,7.35,50.22-3.05,1.34,3.43,8.66,5.18,13.16,3.15,3.58,5.28,11.72,9.17,20.63,9.84,8.9.67,18.22-1.91,23.59-6.53,11.66,5.69,29.67,4.14,40.11-2.46,10.44-6.6,13.51-17.14,9.63-26.22-1.44,9.44,16.05,17.7,29.62,13.98,9.42,10.21,35.72,11.2,46.92,1.76,6.03,4.82,18.97,5.05,25.39.44.91,3.89,6.21,6.87,12,8.12,5.79,1.25,12.06,1.1,18.16.94-1.43-.93-2.86-1.86-4.29-2.78,18.7,2.87,41.23-5.09,51.67-15.47,5.41-5.39,10.14-11.26,11.28-17.64,2.01-11.28-7.47-22.11-18.66-30.89-20.49-16.1-47.93-28.5-78.42-35.44-17.39-3.96-36.27-6.16-54.35-3.79-19.63,2.57-36.53,10.22-53.85,16.69-17.32,6.47-37.07,12.05-56.8,9.85-17.44-1.94-32.56-9.76-50.2-10.71-19.91-1.08-38.09,6.73-54.08,14.43-7.82,3.76-15.71,7.68-21.13,12.91-9.91,9.55-10.05,22.03-6.44,33.28-.31-1.11-.63-2.21-.94-3.32l12.81,9.44Z"/><path class="cls-3" d="M801.71,187.76c9.91-6.38,20.28-7.3,23.41,1.01,8.24,12.48,9.4,28.7-4.73,38.46-14.13,9.76-45.14,5.45-46.42-8.2-24.47,26.52-76.88,42.31-119.12,29.74-42.24-12.57-57.57-57.2-21.71-76.88-16.15,3.2-33.86,6.35-49.35,1.9-15.49-4.45-24.05-20.26-11.03-27.49-26.58,8.79-63.1-3.67-68.54-23.38,15.75,13.29,24.96,31.1,18.94,47.65-6.02,16.55-30.09,30.33-55.01,28.1-24.92-2.23-43.08-23.58-29.69-38.01-28.76,6.82-64.01-8.13-67.55-28.66,13.15,11.66,7.19,30.89-11.77,37.97-18.96,7.08-46.12.21-53.61-13.56,22.12,15.35,19.94,43.53-4.43,57.22-24.37,13.69-65.61,9.89-83.72-7.71-16.89,15.99-48.31,24.24-76.67,20.14s-38.98-20.94-40.71-40.57c-1.3-14.71-2.09-30.72,10.52-42.72,12.61-12,44.22-15.05,54.34-2.01-10.35-18.31-6.46-41.57,15.92-53.99,22.38-12.42,63.23-7.15,71.23,11.7-19.81-44.68,58.19-111.68,115.19-46.68-13-58,77-74,101-13,28-43,71.48-24.55,82.52,5.09,33.6-4.72,70.59,11.05,78.9,33.63,11.86-8.79,35.14-4.55,45.32,5.15,10.18,9.71,10.97,22.41,11.39,34.32,43.7.97,81.57,26.9,73.73,60.7,17.93-18.66,51.72-5.33,41.65,10.08Z"/></g></svg>