<?xml version="1.0" encoding="UTF-8"?><svg id="Layer_2" xmlns="http://www.w3.org/2000/svg" viewBox="0 0 865.37 252.84"><defs><style>.cls-1{fill:#f2f2f2;}.cls-1,.cls-2,.cls-3{stroke-width:0px;}.cls-2{fill:#e6e6e6;}.cls-3{fill:#fff;}</style></defs><g id="Layer_1-2"><path class="cls-2" d="M467.14,236.54c-2.14-1.37-4.27-2.74-6.41-4.11,10.05.75,20.44-.84,28.65-4.39,1.19,8.7,16.67,15.64,30.23,13.55,3.15-.48,6.19-1.37,9.45-1.33,3.15.04,6.12.94,8.99,1.79,14.83,4.38,31.17,7.77,47.27,6.38,16.1-1.38,31.6-8.71,33.51-18.73,4.12,3.32,12.87,3.86,17.78,1.11,9.61,8.64,30.37,11.58,44.66,6.32,4.55-1.67,8.73-4.1,14.04-4.37,4.01-.2,7.89.89,11.71,1.73,23.96,5.3,52.48.66,68.72-11.18,13.71,9.3,37.94,6.03,56.4,1.31,7.37-1.88,14.87-3.97,20.25-7.6,5.38-3.63,8.16-9.19,4.68-13.72,8.14-3.52,10.77-11.12,5.73-16.56-5.04-5.43-17.03-7.92-26.11-5.42,2.83-8.81-11.41-18.18-25.75-16.93-3.21-7.01-13.93-12.51-25.58-13.12-11.65-.61-23.4,3.72-28.03,10.32-32.06-11.67-71.98-6.52-107.69-1.28-70.57,10.34-141.56,19.62-212.91,27.84-21.54,2.48-68.53,1.41-74.68,18.31-5.73,15.74,19.74,26.42,40.52,28.35,4.07.38,6.26-1.5,10.12-.61,1.73.4,4.03,3.53,6.06,4.25,5.58,1.99,10.02,3.81,16.52,4.53,3.43.38,36.29-3.62,31.88-6.45Z"/><path class="cls-1" d="M150.73,223.85c-1.57,3.34.43,7.25,4.84,9.48,4.41,2.23,10.96,2.63,15.87.98.15,5.78,9.25,10.95,18.51,10.53,9.26-.43,16.69-6.37,15.1-12.08,5.54,6.35,22.82,6.58,28.4.37.07,6.95,15.72,11.68,24.35,7.36,9.03,4.4,21.76,6.75,31.92,3.69,10.16-3.06,14.25-12.84,5.59-17.52,5.81,3.42,16.35,2.82,20.84-1.18-1.9,4.49,2.41,9.44,8.8,11.95s14.37,2.94,21.79,2.35c6.03-.48,12.08-1.63,16.65-4.08,4.57-2.45,7.39-6.36,6.03-10.07,8.3,5.15,23.51,4.92,31.06-.48,2.61,4,13.5,4.22,16.3.34-2.63-2.51-5.25-5.02-7.88-7.53,6.09,4.41,21.06.23,22.32-5.46-2.22,2.27,2.69,4.69,6.72,5.69,10.37,2.58,20.92,5.13,31.96,5.92,11.05.79,22.82-.37,31.45-4.59,8.63-4.23,13.22-11.93,8.99-18.35,5.17,5.81,14.88,10,25.4,10.97,10.51.97,21.57-1.32,28.92-5.98,3.3,2.98,11.15,3.38,15.03.78.26,7.2,12.53,12.11,23.93,13.59,14.58,1.89,30.14.4,42.93-4.12l-5.56-3.09c10.45,4.1,28.21-1.18,31.86-8.4,12.24,9.44,38.78,9.41,50.37-.07,14.76,6.21,36.26,5.04,48.64-2.64,6.86,1.28,13.84-2.72,14.72-7.1.88-4.38-2.65-8.69-6.82-12.32-11.59-10.1-28.52-17.26-45.06-24.2-3.34-1.4-6.75-2.82-10.61-3.49-9.38-1.62-18.82,1.45-27.74,3.69-36.15,9.07-79,4.62-113.25-7.7-9.79-3.52-20.35-7.83-31.34-6.56-6.3.73-11.59,3.2-16.76,5.51-14.92,6.66-30.83,12.48-47.49,17.34-3.75,1.09-7.67,2.16-11.84,2.18-5.04.02-9.81-1.51-13.96-3.35-11.9-5.27-20.39-13.45-23.15-22.31-.98-3.14-1.34-6.48-4.21-9.15-5.25-4.89-16.32-5.45-25.65-4.98-19.06.95-37.77,4.07-54.93,9.15-8.31,2.46-16.51,5.52-21.77,10.2-6.18,5.49-7.56,12.48-10.76,18.9-8.06,16.15-29.2,29.41-55.11,34.57-5.49,1.09-11.35,1.85-17.06,1.16-10.95-1.32-18.5-7.41-26.85-12.06-16.72-9.32-41.92-13.62-61.94-7.83-20.02,5.79-30.3,23.12-17.54,34.6l-8.41-6.96"/><path class="cls-3" d="M788.09,177.8c-2.63-17.82-15.74-35.92-39.82-45.97-24.08-10.06-59.74-9.77-78.88,3.33,2.07-14.28-28.86-25.87-47.9-17.96-3.12-8.06-6.83-16.73-17.2-22.01-10.37-5.28-29.46-4.26-33.02,3.65,3.16-17.03-33.16-31.5-56.42-22.48,16.18-31.15-27.28-67.93-62.15-49.3-12.9-43.47-93.62-35.02-91.47,28.9-34.15-37.97-60.6-16.23-68.07,8.36-26.27-6.69-49.96,25.85-21.74,44.18-12.69-3.75-29.62,2.97-29.31,11.64-11.62-7.37-35.84.38-32.62,10.44-20.6-17.51-56.85-27.45-91.13-24.99-33.91-14.47-88.42,6.86-77.7,37.1C-32.42,180.97,1.15,237.6,76.94,239.11c14.01,16.61,66.66,19.35,70.73,1.54,18.73-10.88,17.35-32.28-2.75-42.66,11.59,9.67,39.12,8.91,48.66-1.35,6.37,13.13,24.9,23.82,46.43,26.78,21.53,2.96,45.15-1.92,59.2-12.24,23.29,5.42,51.95-1.97,61.79-15.94,9.84-13.97-.63-32.38-22.59-39.69,11.34,8.64,32.24,10.52,49,7.03,16.76-3.48,30.12-11.28,41.9-19.42-13.93,9.44-11.66,26.32,4.65,34.56,16.31,8.23,43.25,6.1,55.15-4.37,3.22,13.59,29.96,23.06,50.12,17.73,20.16-5.32,27.16-23.7,13.11-34.43,10.91,6.15,19.2,14.08,23.76,22.74,14.52,4.7,33.59,2.95,44.95-4.13-12.6,10.14,2.59,28.08,23.38,27.6,20.78-.48,32.67-19.03,18.29-28.56,6.83,7.3,22.54,10.88,35.11,8,12.57-2.88,20.48-11.87,17.68-20.09,3.75,3.6,7.49,7.2,11.24,10.79,18.78,15.35,61.76,16.19,61.34,4.78Z"/></g></svg>