<?xml version="1.0" encoding="UTF-8"?><svg id="Layer_2" xmlns="http://www.w3.org/2000/svg" viewBox="0 0 248.47 146.66"><defs><style>.cls-1{fill:#1f6a87;stroke-width:0px;}</style></defs><g id="Layer_3"><path class="cls-1" d="M54.33,98.3s-1.87-1.5-3.99-2.25c-2.12-.75,1.25-7.15,3.12-9.07s-.5-1.67,2.5-7.29,6.37-9.61,8.61-9.86c2.25-.25,3.87-6.24,7.86-6.99,4-.75,6.87-2.62,7.49-2.25.62.37,3-1.37,3.87-.75.87.62,3.12-.37,3.5.12s3-.75,3.25-.37,4.49-1.62,4.37-.87c-.12.75,5.24-.46,5.99-.17.75.29,2.75-.29,3.12,0,.37.29,1.87-.67,2.25,0,.37.67,2.62-1.29,2.62,0s2.12.67,2.37,1.29,1.5-.12,1.75.62c.25.75,1.87.37,1.25,1.5-.62,1.12-2.87,4.87-6.62,6.37-3.75,1.5-.62,3.37,5.99-.37,6.62-3.75,11.49-8.86,16.73-7.99,5.24.87,2.37-.25,2.37.75s2.12.87,1.87,1.75c-.25.87,1.5.25.75,1.25-.56.75.4.89.47,1.51.11.85-.61,1.55-1.33,1.88.16.58.75.52.48,1.23-.11.3-1.2.73-1.47.87.94-.01,2.21-.22,3.07.14-.23.22-.57.63-.85.82.76.25,1.55.38,2.23.8-.19.13-.33.47-.51.6.39.44,1.12.54,1.75.52-.06.42-.52.7-.88.86.21-.09,1.05,3.07.96,3.44-.18.75-.8.95-1.43,1.23-.64.28-1.14.71-1.7.96-.33.15-1.02,0-1.39,0,.53,1.23-1.4.83-1.99.69-1.59-.37-2.81-.54-4.47-.67-3.12-.24-6.49-.58-9.56.24-.69.18-1.48.32-2.08.65.85.26,1.77.34,2.55.83.6.38,3.1,1.98,1.43,2.17,1.98-.22.39,1.31-.05,1.78-1.03,1.08-1.52,2.44-2.84,3.33-.4.27-.94.39-1.27.72-.16.16.05.62-.23.89-.56.53-1.66.65-2.26,1.12-.43.34-.54.69-1.24.93-.9.31-.86.19-1.28.58-.12.11.07.61-.21.83-.22.17-.83-.03-1.1.02-.96.17-.93.2-1.63.87-.88.85-1.61,1.05-3.08.99,1.52,1.23-3.39,1.1-3.94,1.13-4.99.25-5.24-.25-5.87.62-.48.68-.99,1.34-1.5,2,1.59-.11,2.08,1.28,3.35,1.89-.07.07-.13.15-.17.24.44.4.03,1.58-.57,1.37.22.08.28.25.63.27-.24.29-.63.57-.71.96.15.09.24.19.36.27-.26.53-.78.67-1.38.77,1.07.81-.76,1.22-1.29,1.6.12.1.14.05.27.14-.4.77-1.42.92-2.22,1,0,.15-.03.31-.04.46-1.44.52-2.8.25-4.21.29.03.18-.05.41-.03.59-1.08-.22-2.25-.04-3.35-.25-1.47-.27-3.15-.59-4.38-1.49-1.87-1.37-1.87-1.25-2.62-1.12-.75.12-7.99,1.75-15.23-.5-7.24-2.25-8.24-2-10.61-4.24-2.37-2.25-.87-4.24,2.37-2.25Z"/><path class="cls-1" d="M165.5,97.43c-.56.56-10.86,6.45-16.1,10.72-5.24,4.26-4.87,1.83-7.49,6.14-2.62,4.31-3.37,4.12,0,5.24,3.37,1.12,3,2.43,3,2.43,0,0-4.14-2.25-5.25-1.5-1.11.75.57,1.87,3,4.87s5.82,4.31,9.74,5.24,8.79,3.56,13.1,3.56,3.75.94,5.62,3.93c2.16,3.46,6.18,6.83,9.86,8.6-.29-.42-.3-1.06-.48-1.46.44.19,1.01.15,1.45.52-.07-.27-.02-.61-.13-.9.28.25.84.36,1.07.52-.13-.39,0-1.05-.13-1.45.26.03.61-.09.88-.06-.09-.42.15-1.02.06-1.44.39.11.9-.04,1.25.13-.12-.65-.49-1.28-.84-1.86.03-.02.4,0,.46-.01,0-.34.03-.72.06-1.06.02-.22.56-.68.61-1.11.07-.61-.56-1.19-.72-1.74-.36-1.24-.59-2.1.45-3.07,1.85-1.71,6.48-1.21,8.8-1.42,3.24-.29,6.72,1.26,9.87,1.81,1.66.29,9.83,1.33,10.37-1.22.94-.02,2.83.32,2.48-1.12.98.23,1.62-.32,1.65-1.31,1.34-.03.59-.87,1.19-1.43.64-.6,1.56-.3,1.61-1.57,0,.2,1.04-1.33,1.11-1.43-.25-.34-.57-.56-.75-.92.11.21.75-.32.81-.45.15-.37-.17-.73-.31-1.04-.31-.72-1.55-1.4-1.68-2.26-.22-1.43,2.31-1.51,3.27-1.62,3.67-.4,7.54-.3,11.2.21,3.24.45,9.74-.67,12.18-3.08.12-.12-.04-.72.09-.93.19-.29.8-.23.99-.52-.08.11.62-1.9.59-1.46.13-2.02-2.7-4.34-1.53-6.71-.31-.02-.57-.21-.88-.25.23-1.22-.39-1.24-1.02-1.99-.69-.82-1.02-.57-1.84-1.16-1.03-.74-1.88-2.99-2.95-3.04.46-2.33-2.36-1.23-1.93-3.31-.61-.02-1.25-.04-1.87-.06,1.29-3.35-4.08-.52-4.91.25-2.68,2.48-5.79,5.86-9.49,6.71-.83.19-3.28,1.18-3.82.36-.11-.16.44-1.3.47-1.49.1-.67-.21-2.07-.17-2.26.14-.78-.04-1.09-.57-1.51.76-.73.82-1.91-.57-1.68,1.08-.68.87-2.02-.36-2.2.25-.46.22-1.12.32-1.67-.52.04-1.13-.13-1.64-.07,1.32-1.3-.42-1.3-1.48-1.3.41-1.94-1.61-1.05-2.74-1.12.66-.59.63-1.35-.18-1.67-.61-.23-2.28.82-2.84,1.07-.06-.16-.03-.3-.1-.47-1.06.06-2.05.51-3.13.51,0-.22-.04-.47-.05-.7-2.29.22-5.33,2.75-7.26,3.98-3.79,2.42-6.74,1.24-10.47.84.08-.5-.14-1.13-.06-1.63-.72-.04-1.47-.01-2.19-.06.71-1.86-.11-1.13-.97-1.84-.2-.17-.79-.64-.94-.75-.17-.13-.47-.89-.75-1.12-.3-.24-1.21-.15-1.5-.37-.26-.2-.67-1.09-.74-1.13-.46-.29-.04-.52-.92-.71-.5-.11-1.49.48-2.06.5.04-.27-.07-.61-.05-.88-5.58-.94-9.73,6.38-11.77,10.46Z"/><path class="cls-1" d="M7.75,15.96c-.73.53-3,4.43-4.62,6.49-1.62,2.06-.5,2.43-.87,4.37-.37,1.94-.94,1.87-1.87,3.43-.94,1.56.06,1.12.81,1.12s.06.56-.62,1.06c-.69.5.37.37,1.56.25,1.19-.12.44-.87,3.18.56s5.31,4.06,10.11,3.93c4.81-.12,2.25-.24,6.37,0,4.12.25,7.86.12,12.73-2.5,4.87-2.62,7.62-3.43,6.62-5.12-1-1.69-.94-.56-1.12-2.31-.19-1.75-.5-3-1.25-3.06-.75-.06,2.12,1.19,8.24,1.12,6.12-.06-.37-1.19.44-4.12.81-2.93,1.81-6.05-.19-7.12s-3.37,3.25-6.87,5.06-3.12.75-2.75-.31c.37-1.06.06-1.25.12-3s1.31-2,1.56-3.18c.25-1.19-1.69-2.5-5.18-2.81s-3.5.37-7.37,1.12c-3.87.75-2.12-.31-7.62,1.12-5.49,1.44-6.3.19-11.42,3.87Z"/><path class="cls-1" d="M140.61,17.54s-1-1.87-3-2.12c-2-.25,0-.5,1.5-3.12s2.62-2.75,4.74-3.87c2.12-1.12,2.37-2.75,6.99-4.62s5.24-.87,7.86-1.12c2.62-.25.35-2.12,5.29-2.62s5.94,2,10.93,4.74,4.99,4.62,12.36,5.74c7.37,1.12,9.61,6.49,9.24,9.49-.37,3-4.74,3.99-5.12,3.99s2.12,1.37,9.24-.5,12.73-2.62,12.73,2-3.25,5.37-3.37,7.37c-.12,2,4.99,5.24-.25,8.49-5.24,3.25-8.99-.87-12.61-4.24-3.62-3.37-5.12-3.87-5.12-3.87,0,0,4.49,2.75.12,5.37-4.37,2.62-6.87,3.99-12.86,3-5.99-1-7.62-1.5-9.61-3-2-1.5-9.74-2.12-10.24-2.25-.5-.12-3.5-.75-3.5-.75,0,0,6.22,2,8.04,2.87s1.7,3.87,1.32,6.62c-.37,2.75-5.24,2.12-6.87.62l-1.62-1.5s-1.25,1.37-3.37-.12-4.62-9.49-4.62-9.49c0,0-6.62-3.74-7.99-6.86-1.37-3.12-2.25-4.37-3.5-6.24s-2.62-7.74,3.25-3.99Z"/></g></svg>