<?xml version="1.0" encoding="UTF-8"?><svg id="Layer_2" xmlns="http://www.w3.org/2000/svg" viewBox="0 0 780.13 518.63"><defs><style>.cls-1{fill:#3687ab;stroke-width:0px;}</style></defs><g id="Layer_3"><path class="cls-1" d="M771.72,266.59c-.53.19,4.25-.82,7.34-4.31,3.09-3.49-1.58-3-.93-6.32s-.54-2.39-3.11-5.62c-2.56-3.23-4.45-3.14-6.89-8.1-2.44-4.96-9.8-17.55-20.57-18.43-10.76-.88-4.94-5.16-15.29-8.38s-23.15-1.15-23.15-1.15c-.26-.14-3.75-2.38-3.67-2.47-.06.06,0,.1-.08.16-.46-.36-2.35-1.87-2.18-.47-.43-.09-2.65-1.51-2.21-.22-.75-.14-1.74-.72-2.44-.66.3.97-.97.92-1.59.7-.66-.24-1.02-.76-1.8-.48.06.17,0,.44.06.61-.73.15-2.97-1.11-2.66.6-.81.1-2-.81-2.62-.56-.55.22-.24.73-.71,1.04-.87.59-3.7-1.93-3.46.52-1.02.19-3.72-1.57-3.43.6-1.37-.05-3.43-1.28-3.76.74-1.05-.09-5.51-.85-5.19,1.04-1.11.15-2.27.07-3.4.13-.75.04-1.24.21-.44.79-1.3.5-3.06-.44-4.31.31.07.28.04.6.11.88-1.12.24-2.27-.54-3.47.09.08.24.01.57.09.81-.85.27-1.98-.57-2.71-.16-.6.33-.04.24-.33.7-.3.47.1.43-.7.53-1.42.17-2.46-.24-3.72.75-.12.09.03.37-.15.46-.41.22-.94-.16-1.35-.14-.81.03-.79.5-1.42.81-1.08.52-3.89-.73-3.91,1.24-.68.15-2.53-.12-3.02.38-.33.33.12.75-.34,1.09-.93.69-3.82-1.37-3.71.91-.91.04-2.2-.28-3.06.27-.57.36-.26.66-.68.96-.88.63-4.46-1.12-3.43.95-1.05.4-2.28-.22-3.38.07.16.28.31.62.31.97-1.2.28-5.48-.76-4.92,1.39-.84,0-1.51-.31-2.37-.1.78,1.36-1.75.74-2.28.7-.49-.04-1.33-.12-1.78.05-.53.2-.5.76-.85.9-.49.2-1.37-.33-1.84-.4-.83-.12-1.83-.04-2.6.29,1,1.68-2.9.5-3.48,1.06-.19.18,0,.59-.18.7-.45.29-1.07.03-1.58-.11-.46-.13-1.89-.78-1.63.29-.88.22-4.6-1.35-3.87.77-1.41-.11-2.57-.78-4.03-.44.08.21,0,.51.09.72-.83.19-3.47-1-3.15.56-.84.01-4.59-1.62-4.03.3-1.22-.07-2.58-.9-3.85-.55.07.2,0,.5.08.7-1.03.06-2.16-.86-3.11-.64,0,.11,0,.22.02.33-1.04.36-2.31-.91-3.45-.22.14.13.27.43.45.57-.68.05-3.13-1.02-3.68-.66-.91.59.83,1.28.66,1.78-.2.55-1.49.13-1.93.37-1.29.7.09,1.66.9,1.87.93.24,2.64.02,3.3.87-.36.42-1.19.1-1.31.76.69.52,1.75.4,2.56.69.24.08.75.23.83.47.1.29-.34.42-.3.61.19.87.93.92,1.86,1.17.61.17,1.62.56.66,1.16.4.42,5.56-.12,4.19,1.38.66.57,2.15.18,3.03.69-2.15,1.44,1.77.64,2.62.68.69.03,2.59-.02,3.08.47-.23.1-.38.34-.51.44.52.11,5.1,0,4.3,1.38.03-.05,1.13.19.44.99-.33.38-1.08.66-1.54.84-1.28.49-2.72.61-4.07.62-3.84.04-7.74-.95-11.19-2.6-7.56-3.63-32.28-18.03-38.01-20.8-.82-.4-8.47-3.59-6.87-.13.6,1.3,3.06,1.26,3.04,2.95-.91-.07-1.59-.74-2.46-.5.59,1,1.88,1.71,2.77,2.53-.35-.1-1.07-.02-1.46-.13.06,1.03,1.04,1.74,1.74,2.36-.21.05-.41.11-.62.16.68.74,1.74,1.31,2.47,2.09-.33-.01-.68.17-.94.19.41.75,1,1.23,1.35,2-.33,0-.73.21-1.06.2.14,1.21,1.33,1.74,1.87,2.71-.27-.03-.62.02-.92-.02.51.98,1.53,1.97,2.41,2.69-.46-.1-.98-.05-1.44-.17.88.72,1.86,1.47,2.52,2.39-.15.09-.3.07-.47.16.32,1.08,1.45,2.21,2.27,3.04-.32-.02-.71.19-1.03.2.04.95.95,1.43,1.41,2.2-.17.05-.36.06-.53.14.6.47,1.32.94,1.82,1.59.12.02-.37-.07-.44-.08,1.15,1.73,2.45,2.28-.61,3.06.09.04.41.21.5.16-.58.33-1.44.41-2.18.54.09.17.14.47.25.67-.5-.01-1.1.3-1.59.29.1.23.13.49.21.68-.24-.1-.68-.12-.94-.21.03.23,0,.51.02.71-.5-.02-1.08.28-1.58.29.12.25.09.58.27.86-.35-.07-.94.11-1.29.05.17.19.3.66.43.83-.5-.03-1.09.29-1.59.29.18.24.26.79.48,1.01-1.19.11-2.08.71-1.61,1.95-.59.05-1.22.29-1.81.33.4.35.49.97.73,1.34-.27.01-.61.18-.88.19.16.29.16.94.32,1.23-.44,0-.99.3-1.43.27.31.41.39,1.05.56,1.56-.43-.03-.99.3-1.43.27.07.25,0,.63.07.88-.3,0-.72.22-1.01.21.38.43.24.79.46,1.2-.44-.02-.99.3-1.43.27.16.25.16.79.29,1.04-.7.12-1.45.21-2.01.51.16.21.23.46.44.68-2.09-.61-2.97.63-1.48,2.26-.41-.19-.82-.19-1.19-.3.29.21.61.73.89.97-.86-.19-1.83-.28-2.51.3,2.12,1.98,7.51.84,10.03.51,11.74-1.54,24-3.35,32.55-5.94s17.2-3.1,22.89-3.18c1.83-.03,5.67-.45,7.17.99,1.78,1.71-2.43,3.05-3.61,2.65-.46-.16-.53-.39-.98-.4-.12,0-.34.33-.56.36-.59.07-1.25-.46-1.9-.29.03.2-.09.42-.03.64-.57-.32-2.06-.99-2.16.15-1,.16-2.27-1.1-2.6.26-.91-.26-1.85-.86-1.76.47-.96.17-1.73-.63-2.62.03.06.4.2.76.24,1.17-.78.16-1.6.22-2.39.38.06.4.42.72.6,1.02-1.02.16-3.31-.05-2.05,1.54-.97.29-2.96.16-1.42,1.35-.91.19-1.82.01-1.99.83-.12.58.38.49-.27,1.07-.25.22-1.81.84-2.07.77.92.25,1.93.31,2.9.48-.17.03-.36.08-.54.11,0,0,.02.27.04.25.61.03,1.2.16,1.79.21.77.07,1.59-.14,2.39-.05-.42.02-.83.17-1.15.43,1.53.53,3.68-.34,5.31-.17-.43.2-.88.41-1.34.55,1.8-.28,3.74-1.08,5.52-1.18-.16.06-.33.21-.55.28.49.2,1.18.42,1.74.53,1.5.29,3.34-.46,4.7,0-.7.16-1.46.27-2.12.55,1.56.34,3.55.16,5.15,0-.34.16-.73.44-.74.85,1.36.5,2.98-.18,4.39.09-.36.16-.72.32-.75.69,1.98.18,4.09-.24,6.01.24-1.56,1.18,3.94,1.6,4.31,1.57-.34.08-.72.17-1,.33,1.47,1.14,3.76.35,5.3.94-.32.2-.84.16-1.13.35,1.28.79,3.74.76,5.27.94-.42.21-.89.34-1.35.41.72.35,1.83.35,2.65.41,1.25.08,2.46.28,3.69.42-.25.05-.51.19-.77.25,1.55.53,3.38.32,4.96.86-.17.25-.48.4-.82.5.9-.2,1.99.14,2.91.17,1.24.04,2.55-.18,3.71-.69,2.23-.99,4.28-2.29,6.42-3.45.27-.14,1.25-.91,1.58-.85.03,0,14.97,2.35,20.25,2.14.84-.03,6.84-.52,7.12.7.23,1.02-5.9,1.99-6.66,2.36.12.19.17.8.32.96.35.36.76.24,1.12.53-.24.11-.36.35-.51.45,1.2.26,2.11.41,3.31.6,0,1.08,2.27.29,2.9.24-.18.23-.44.52-.54.81.78.24,1.72-.08,2.54-.15-1.07,1.25,2.05.43,2.52.39-.09.21.03.33,0,.53,1.07.06,2.04-.16,3.1-.23-.93,1.13,3.09.27,3.43.25-.09.1-.17.22-.24.3.95.9,3.49-.67,4.59-.85-.17.08-.41.35-.57.45.66,1.17,4-.79,4.85-.98-.29.19-.27.36-.43.61,1.42-.16,2.8-.49,4.14-.99.03.05-.01.11.01.18.93-.08,1.81-.48,2.72-.56-.03.16.03.3.02.44.91-.14,1.76-.65,2.58-.92-.14.09-.27.22-.4.33,1.3.28,2.54-.89,3.47-1.61.07-.06,1.65-1.72,1.18-1.64.15-.02,16.37-2.61,25.96-5.53,9.63-2.94,13.34-4.81,11.95-6.51s4.27-.63,10.9-3.32c6.63-2.69,12.19-6.16,13.49-7.68s2.84-1.37,5.19-3.42c2.36-2.06.33-2.9-4.89-.99Z"/><path class="cls-1" d="M222.84,188.77c-.05-1.14,8.19-2.29,15.32-8.78,7.13-6.49,8.43-8.99,13.63-10.98,5.2-1.99,4.88-.41,7.45-2.17,2.57-1.75,5.36-4.49,1.69-5.99-3.67-1.5-2.5-.16-5.93.97-3.43,1.13-3.89-1.65-6.33.84s2.2-2.83,5.06-6.34c2.85-3.51,7.25-5.75,3.61-7.06-3.64-1.31-1.17-.19-6.76-.61-5.59-.42-11.7-2.85-17.11-8.06-5.42-5.21-9-3.86-13.28-7.92-4.28-4.06-18.25-8.06-24.9-6.79-6.64,1.27-7.23,1.18-9.05.52-1.82-.66-12.24-7.33-13.45-3.14s-9.88-3.39-9.63.49c.25,3.89-9.62.55-9.23,4.1.39,3.55-11.31.7-9.99,4.1,1.32,3.4-13.01,1.93-10.43,4.94,2.58,3.01-11.81,2.31-9.13,4.72,2.68,2.42-9.49,3.64-7.12,5.35,2.37,1.71-10.33,3.21-7.55,5.04s-11.97,3.66-9.28,4.94c2.68,1.28-11.89.61-9.52,3.46,2.37,2.85-12.33,2.58-10.43,4.94,1.91,2.35-7.76,2.6-6.93,4.18.83,1.58-2.51.98-4.43,3.2-1.92,2.22,1.72,3.53,4.46,4.03s-2.08,2.43,3.26,2.51c5.34.08,1.32,2.26,6.48,2.37,5.16.11.46,1.64,6.02,1.87,5.56.24,2.81.87,6.51,1.41,3.7.54-4.69,7.43-14.98,8.53s-32.74,0-38.46,3.41c-5.73,3.41-3.45,5.7-.27,6.52,3.18.81.21,1.3,3.42,2.3s.33,2.04,3.88,2.79c3.55.75-.47,1.79,3.82,2.42,4.29.63.38,1.14,3.83,2.45s3.51,1.68,1.12,5.69c-2.39,4.01-1.47,3.86-1.94,6.79-.47,2.93,1.04,1.73.07,5.13s.21,2.44.82,5.01c.61,2.57-.34.25.61,2.57.95,2.32-.49,6.36,6.17,1.66,6.66-4.7,13.9-10.45,18.84-17.54,4.94-7.09,3.63-4.59,9.17-6.82,5.54-2.23,13.63-3.94,16.17-4.73,2.54-.79,5.47-1.46,2.65,2.23s-.34,1.39-2.53,6.69.74,1.02-1.85,7.34.35,4.51-.46,6.55c-.81,2.04,2.25-2.53,1.63.65s.33,4.36,3.68,1.53c3.35-2.83-.53,2.56,3.34-.54,3.87-3.11,2.22.78,5.94-2.11s1.63.69,6.19-2.91c4.55-3.6,3.38-2.64,5.51-3.56,2.13-.92,1.73,1.24,5.11-2.55,3.38-3.79,4.02-2.18,6.29-4.64,2.26-2.46,2.47,1.12,4.36-1.28,1.89-2.4,1.55-2.16,4.5-5.11s2.79-2.74,5.48-2.61c2.69.13,11.21-.11,13.96-.75,2.75-.64,1.57.31-1.34,3.45-2.91,3.14,1.85.84-1.19,5.52-3.04,4.68,1.82.66-.55,5.99-2.37,5.33,3.61-.02-.73,6.02s-5.93,8.01,5.16.11c11.09-7.9,11.97-4.81,18.2-12.1,6.23-7.3,9.25-13.31,9.38-13.71.12-.4,22.76-.47,22.05-16.54Z"/><path class="cls-1" d="M385.19,33.04c-.55.4,3.64-1.1,5.87-4.76,2.23-3.66,8.33.25-1.6,8.92-9.93,8.67-20.05,22.76-28.8,22.59-8.75-.18-10.39,6.19-17.11,9.14s-10.82,4.31-11.26,5.16-4.53,17.07-9.58,23.05c-5.05,5.97-10.44,5.01-11.88,4.59-1.44-.42-3.83,5.15-9.37,1.99-5.54-3.16-3.27-13.07.25-17.13s13.93-8.3,15.04-8.76c1.11-.46-17.81,3.47-22.95,5.7-5.14,2.23-12.31-.03-15.93,4.4s-7.46,10.95-17.15,15.39c-9.69,4.44-21.52,8.85-27.03,6.28s-8.19-6.86-7.69-11.99,3.92-11.58,8.57-11.41c4.64.17,13.55-2.93,13.55-2.93,0,0-11.24-4.41-18.04,2.23-6.8,6.64-14.95,22.67-23.13,23.25-8.18.57-19.6-5.26-22.21-12.47-2.61-7.21-2.56-8.75-3.73-15.54-1.17-6.79,4.24-12.66,13.27-12.79,9.03-.13,26.63,1.23,30.69-1.32,4.06-2.54,9.01-3.46,9.39-7.46s-11.48,8.62-23.7,3.53c-12.22-5.09-3.59-19.41-.33-23.95s2.44-7.12,8.21-11.51c5.77-4.4,3.91-6.11,7.06-6.18,3.15-.07,1.5-2.5,4.57-2.98,3.07-.48.68-2.35,3.95-2.18,3.28.16,1.86-1.03,4.96-.92,3.1.11,1.66-1.67,5.24-1.23,3.59.45,2.38-1.47,5.96-1.02s4.08-1.95,7.28-2.2c3.2-.25,10.62-4.95,16.12-5.72,5.5-.76,5.69-3.44,9.66-2.3,3.97,1.15,2.33-1.28,6.69-.81,4.36.48,4.75-1.56,7.92-1.04,3.17.52,2.18-.54,5.15.22,2.97.76,2.59-1.31,5.3-.52s1.19-1.42,4.77.4,4.72.58,6.27,2c1.54,1.42,4.2,2.38,4.2,2.38,0,0,11.91,3.44,24.8,10.28s14.58,10.46,23.3,10.04c8.72-.42,26.09-1.66,13.45,7.59Z"/><path class="cls-1" d="M707.3,163.76s5.62-1.17,5.16-3.65-6.89-13.72-9.17-17.02c-2.28-3.3-10.72-9.1-15.67-11.26-4.95-2.16-5.66-6.32-21.14-4.48-15.49,1.84-36.1,8.21-42.94,13.13s-15.91,7.88-13.75,9.53c2.16,1.65,11.54-1.37,10.59-.61-.95.75-2.51,4.12-7.87,3.89-5.36-.23-13.76-6.17-19.65-4.05s-4.89-.82-4.78,6.39c.12,7.22-1.36,10.31.7,13.84s-.32,4.16,1.26,5.79.98,2.19,8.02-2.38,10.08-8.53,13.16-8.52c3.08,0,4.8-1.4,6.06.87,1.25,2.27-4.28,1.11-6.1,1.32-1.82.21-3.7,2.16,2.85,7.42,6.55,5.26,10.5,13.44,26.13,13.11,15.64-.33,19.17-2.39,19.17-2.39,0,0,13.66,2.47,23.09-1.26s17.86-7.02,22.96-12c5.1-4.98,7.22-6.57,6.02-7.06-1.2-.49-2.32-.67-4.1-.6Z"/><path class="cls-1" d="M191.47,291.37s8.64-2.49,9.91.22c1.27,2.71,4.94,7.29-1.7,13-6.63,5.71-1.62-.47-11.22,13.48-9.6,13.95-15.33,17.57-24.52,21.96-9.18,4.39-20.62,18.4-33.11,24.18-12.49,5.78-23.18,8.27-22.12,5.64,1.05-2.63,8.29-2.3,1.05-2.63-7.24-.33-12.73-3.67-15.55-3.02l-2.83.65c1.52,2.75,1.91,5.78,2.22,8.85.15,1.51.76,3.69.48,5.19-.11.58-1.84,2.97-1.82,2.38-.05,1.93-1.24,2.72-2.88,1.85-.43,1.42-1.07,2.77-1.59,4.17-.43.03-.31-.14-.72-.2-.52.88-1.49,2.12-2.47,2.46-.91.32-1.17-.33-1.75-.21-1.24.25-3.55,1.55-3.81-.17-1.37.27-2.98.82-4.23,1.1-1.22.27-1.46-1.2-2.36.39-1.35-1.1-5.29-.21-4.2-3.68-2.28,1.49-4.56-.81-4.06-3.2-1.82.94-4.74.56-3.47-2.23-1.04-.39-2.57-2-3.07-2.46-.85-.79-2.44-.11-1.5-2.04-1.71.84-4.03.11-2.95-2.01-2.04,1.56-1.6-.61-2.77-.89-1.68-.41-1.79,0-3.27.11-3.64.27-3.37-.35-2.55-4.03-2.75.25-2.49-4.46-2.02-6.23-.08-.13-.57-.21-.71-.28,1.22-2.29-3.31-2.57-1.77-5.41,1.02-1.87,4.06-1.19,5.68-2.22,2.87-1.81,1.72-5.96,2.61-5.99.89-.04-.18-2.69-5.16-.02-4.98,2.67-5.68,1-7.97,5.91-2.07,4.44-5.58,8.5-8.92,12.03-1.87,1.98-3.91,4.08-6.27,5.48-.83.49-7.51,1.84-7.18,1.23,1.05-1.9-.47-2.47-2.05-2.06.41-3.36.03-3.53-2.04-5.84-1.55-1.72-.58-2.74-1.74-4.72-.51-.87-1.48-1.24-2.05-1.94.04.05-1.55-2.74-1.54-2.57-.02-.27,1.18-2.33,1.32-2.71.22-.64.32-2.19.55-3.08-3.8-1.64-.11-4.59-1.29-7.15-.46-.99-2.39-1.54-2.76-3.09-.3-1.23.42-2.52-.5-3.43.99-.48,1.96-1.18,1.87-2.17-1.02.14-1.94-.06-2.66-.74,2.4-2.71,3.5-4.4,7.23-5.07,3.14-.57,6.44-.46,9.61-.28,6.04.35,12.28,1.17,18.1,2.85,6.77,1.95,8.16,1.18,11.35-1.71.44-.4.9-.79,1.26-1.25-.72.15-2.03.24-2.66-.24-.29-.22-1.93-3.07-1.94-3.04.39-1.21.7-2.62.96-3.78.17-.75.79-.74.86-1.59.03-.37-.31-.94-.16-1.68-1.92-.98.12-2.74,1.02-3.52-.4-.09-.86-.37-1.26-.46.99-1.26,2.39-2.68,3.44-3.94,1.66-1.98,1.41-2.8,1.86-5.28.27-.03.57-.05.82-.08.06-2.12-4.88-7.34-2.43-7.82-.36-2.41-3.59-3.78-.73-4.9,1.45-.57,4.35.29,5.86.42,5.67.49,11.57.76,17.04-1.1,11.7-3.96,13.01-2.41,13.01-2.41,0,0,21.28-13.81,42.62-17.62,21.34-3.82,32.6-3.21,40.18,1.03,7.58,4.24,10.16,6.45,20.73,7.44,10.56.99,13.04,2,11.29,5.6-1.75,3.6-6.59,4.55-6.59,4.55Z"/><path class="cls-1" d="M414.07,312.08c4.29-9.78,3.94-11.76.62-10.38-3.31,1.38.81-3.18-6.96-1.65-7.78,1.54-5.23,7.44-18.93.95-13.7-6.49-23.6-9.42-26.22-9.03-2.63.39-1.5-7-3.71-10.46s-1.93.77-3.78,1.13c-1.85.36-2.81-8.77-7.47-9.92-4.66-1.16-1,5.2-4,6.29-3.01,1.09-4.73-4.67-7.37-5.64-2.64-.97-.96,4.01-3.68,5.41-2.72,1.4-4.27-3.15-5.96-2.88-1.69.26-1.01,5.16-3.64,5.55s-3.42-2.9-4.51-1.99c-1.1.92-.98,4.61-4.41,4.26-3.44-.35-.54-1.8-4.25.88s-4.02,2.96-6.12,1.83c-2.1-1.14.45,2.81-3.03,3.65-3.47.84-1.51-3.08-4.93-.1s-2.92,2.05-4.88,2.05c-1.96,0,.18,1.91-3.21,3.7-3.39,1.8-2.92.09-7.54,1.66-4.63,1.58-4.34,3.85-8.14,7.53-3.8,3.68-11.37,11.83-15,21.34-3.63,9.51-7.52,16.17-1.3,20.58s9.42,6.6,14.23,4.97c4.81-1.63,5.95,3.52-5.93,5.1-11.88,1.59-19.54-4.36-25.91-4.03-6.37.33-6.35-.26-7.74,4.27s-.18,2.02-2.96,7.16c-2.78,5.14.59,3.94-1.9,7.43-2.49,3.49-.43,2.48-1.38,5.9-.61,2.22-2.98,4.18-1.14,6.34.65.77,1.44.59,1.98,1.66.53,1.04-.42,2.01.96,2.84.53.32,1.47.29,2.03.56-2.29,4.12,5.63,4.38,5.37,6.85,1.25-.07,2.01.42,1.9,1.75.54-.26,1.1-.1,1.64-.23.22,1.42,1.27,1.92,2.63,1.57,1.7,4.91,24.71-14.44,26.56-16.2,8.7-8.28,10.93-9.34,21.8-9.06,1.05.03,2.22-.03,3.19.35-1.6,1.2-15.09,2.96-15.06,4.4,0,.19.08.31.08.5-.89.1-1.73.44-1.36,1.39-1.76.46-2.47,1.86-4,2.83.12.15.23.48.36.64-2.14.68-3.22,5.08-2.08,6.69.45.65,1,.31,1.45.73.41.38.25,1.23.67,1.58.49.41,3.19,1.25,3.73,1.07.08.25.26.57.3.83.23-.03.45-.13.68-.14.65,1.01,1.34,2.06,2.86,1.7.11.13.12.32.19.47,1.22-.48,2.33.63,3.76.31.46,1.39,1.22.28,2.2.32.85.04,1.11.79,2.43.25.38.79,1.28.56,2.01.18.04.27.37.68.4,1,.64-.14,1.95-.64,2.43-.88.36-.18,1.09-.74,1.43-.83.7-.19,1.11.02,1.56-.07.82-.17,1.92-.37,2.63-.63,1.53-.56,2.89-2.28,4.35-3.14,1.96-1.15,4-2.18,5.97-3.32,2.97-1.72,5.9-3.52,8.72-5.46,3.35-2.31,6.54-4.83,9.42-7.71,3.62-3.63,24.47-12.6,24.47-12.6-1.04.45-1.98,4.3-1.93,5.25.19,0,.34-.08.53-.1-.32.5-.65,1.16-.84,1.71.08-.09.18-.14.3-.17-.13.95-.74,1.92-.66,2.9.18-.11.44-.25.65-.36-.34,1.47-.82,2.85-.23,4.36.14-.16.43-.37.56-.52.24.28.37.39.5.78.12,0,.4-.15.5-.1.42.74.99,1.49,1.16,2.36.13-.16.44-.37.57-.53.03.38.36.83.42,1.2.2.02.49-.09.68-.15.07.1.09.42.19.47.23.04.41-.17.65-.14.22.09.07.3.23.42.04,0,.53-.26.64-.29.07.13.09.37.2.47.24-.36.88-.62,1.24-.9.06.21.18.44.25.66.31-.3.81-.49,1.07-.86-.05.41.16.66.18,1.06,3.14-.62,5.38-5.24,7.21-7.51,3.23-4.02,5.73-8.6,8.17-13.13,4.92-9.12,2.94-8.53,3.38-9.05s12.35-5.26,17.02-11.94c4.67-6.69.45-3.08,6.43-8,5.98-4.92,10.6-11.29,14.42-19.99Z"/><path class="cls-1" d="M543.81,176.03s1.45-4.69,7.41-6.73c5.95-2.05,2.56-5.86-1.49-6.54-4.05-.68-4.75-1.21-4.75-1.21,0,0,3.95-2.28-3.9-5.53s-2.98-8.03-16.1-13.29c-13.12-5.26-31.9-12.21-35.56-11.15-3.66,1.06-15.84-10.14-12.74-5.58s-13.03-6.89-9.01-2.3c4.03,4.58-19.13-8.48-13.13-2.28,6,6.2-15.14-5.08-9.56.32s-15.81-.96-10.33,3.98c5.48,4.94-11.9-3.93-8.41.31,3.49,4.25-14.07-1.38-8.74,2.91,5.33,4.29-16.95-.95-10.8,2.92,6.16,3.87-13.3.97-8.12,4.6,5.18,3.63-14.44-1.98-8.01,2.06,6.42,4.04-14.07-1.38-9.49,2.62s-13.07,0-9.22,2.79c3.85,2.79-13.33-3.15-8.36.53,4.97,3.68-2.94-1.85-8.56-.34s-11.62-1.71-12.74,2.45c-1.12,4.15,4.5,7.68,7.42,13.44,2.92,5.75,5.26,7.97,11.47,9.08,6.21,1.11,10.84.28,10.05,1.84-.79,1.56-7.8,4.99-18.36,3.96-10.55-1.03-13.79-12.22-21.9-18.62-8.11-6.4-12.22-11.36-15.93-6.53-3.71,4.82-8.7,7.11-6.83,11.27s.21,2.93,1.45,8.38c1.24,5.45-2.32,9.93.25,14.16,2.57,4.23-1.55,4.25-.34,8.56,1.21,4.31,1.14,5.01-.07,8.73-1.22,3.72-4.12,5.07-2.23,8.3,1.88,3.24-1.19,7.84-.09,9.65,1.1,1.81-2.32,1.9,2.1,3.19,4.42,1.28.3,6.35,7.51,3.79s17.56-7.44,23.69-12.74c6.13-5.3,5.7-8.18,13.63-8.61,7.93-.43,13.21-1.41,19.43,1.76,6.22,3.17-2.15,1.64-9.48,4.68-7.33,3.05-3.14,10.35-7.72,16.43-4.57,6.09,6.46,2.19,11.53,6.31,5.07,4.12,8.97-3.88,20.47-6.73,11.5-2.85,22.14-3.44,24.26-6.22,2.12-2.78,14.89,1.88,24.4.4s17.07-2.52,18.26-2.33c1.19.19-6.41,3.07-11.6,7.46-5.19,4.39-7.05,5.28-12.03,7.56-4.98,2.28-.36,1.46,5.75.07,6.1-1.39,4.12-.02,1.05,1.59-3.07,1.62-9.36,5.11,2,.69s11.91-2.03,18.84-6.82c6.93-4.79,11.23-3.02,17.78-7.49,6.55-4.47,9.03-6.64,9.03-6.64,0,0,3.72,1.22,12.5-1.48,8.79-2.69,14.13-9.41,17.8-11.4,3.67-1.98,9.75-4.52,19.5-12.01s11.97-4.79,16.19-9.42c4.22-4.63,6.18-9.66.8-9.58-5.38.08-6.49,1.71-8.99,4.8Z"/><path class="cls-1" d="M187.29,455.1s19.85-11.81,33.62-10.04c13.76,1.77,15.95,1.71,18.71,6.03,2.76,4.32,4.37,4.28,6.4,4.7,2.04.42,2.81,1.51,1.09,3.65-1.72,2.13.7.97,2.04,1.45,1.33.48-.41,1.74-2.13,4.75-1.72,3.01.62,5.4-2.75,11.85s-6.92,11.18-14.91,17.24-15.48,13.45-23.84,14.03c-8.35.58-11.28-2.81-14.54-3.89s-.55-.86.12,3.35c.13.79.11,1.77.39,2.52.06.16.15.29.19.46.13.51.11,1.07.13,1.59.02.46-.18.93-.38,1.34-.11.22-.27.88-.48,1-.27-.03-.25-.46-.34-.64-.1-.2-.32-.53-.51-.63-.1.17-.03.38-.12.55-.09.18-.27.3-.36.5-.19.43-.16.89-.27,1.34-.56-.11-.7-1.26-1.33-1.21.06.52-.3,1.08-.85.84-.57-.26-.79-1.18-1.5-.71-.42.27-.71,1.09-1.29,1.1-.58.02-1.04-1.32-1.25-1.77-.13-.28-.3-.26-.56-.38-.21-.09-.41-.33-.64-.36-.5-.06-1.04.6-1.48.2-.41-.37-.5-1.22-.66-1.72-.27-.87-.04-1.84.08-2.7-.56-.1-1.02.69-1.27,1.08-.22.35-.13.8-.35,1.14-.52.84-.52-.83-1.1-.58-.19-.21-.1-.55-.38-.73-.2-.14-.27,0-.44-.06-.13-.05-.23-.15-.37-.19-.26-.08-.52-.05-.79-.16-.4-.18-.55-.57-.59-1-.07-.61.51-1.4.28-1.99-.07-.18-.91.44-.98.49-.15.11-.31.22-.49.27-.28.08-.28-.01-.47-.16-.62-.5-1.17-1.06-1.65-1.71-.27-.36-.67-1.05-1.2-.79-.53.25-.89,1.14-1.16,1.62-.16.29-.32.59-.48.88-.93,1.72-1.4,3.57-2.03,5.41-.41,1.19-1.06,2.14-2.46,1.77-.73-.19-.75-1-.74-1.66,0-.17.13-.42-.1-.53-.24-.11-.5.24-.63.37-.22.22-.45.42-.69.61-.4.32-.28.09-.49-.29-.39,0-.67.29-1.08.17-.35-.1-.44-.37-.7-.54-.28-.18-.47-.08-.76-.08-.44,0-.92-.18-1.35-.3-.29-.08-.65-.14-.88-.35-.54-.48.1-1.42.37-1.88,1.74-3.02,4.08-7.98.88-6.44-1.15.55-2.26,1.22-3.42,1.75-.5.23-1.32.6-1.57-.13-.06-.18-.06-.37-.12-.55-.03-.09-.12-.14-.12-.24,0-.25.28-.39.44-.53.16-.14.23-.29.37-.44.32-.35.9-.59,1.35-.68-.39-.09-.59.08-.96.13-.46.07-.17-.17-.45-.43-.13-.13-.26-.05-.36-.25-.09-.18.01-.36.13-.5.02-.03.24-.19.25-.2.05-.13-.07-.33-.11-.46-.11-.34-.16-.45-.04-.76.18-.45.39-.89.77-1.2.35-.28.7-.5.97-.88.17-.25.27-.54.47-.76.26-.28.59-.37.94-.49.33-.12.64-.32.56-.72-.21-1.09-1.9-.88-2.59-.58-2.55,1.12-3.9,4.41-4.78,6.82-.02.07-.05.13-.07.2-.42,1.16-.84,2.32-1.29,3.47-1.15,2.96-2.37,5.98-4.13,8.63-.55.82-1.16,1.62-1.92,2.26-.49.42-.92.58-1.56.62-.4.02-.7.15-1.03.37-.25.17-.39.3-.71.24-.22-.04-.4-.17-.62-.21-.15-.03-.17.01-.32,0-1.04-.07-.84-1.35-1.2-2.07-.38-.75-1.63-.08-2.03-.82-.27-.5-.26-1.06-.6-1.55-.21-.31-.43-.49-.57-.84-.57.01-1.36.04-1.74-.5-.27-.39-.33-1.07-.47-1.52-.09-.3-.13-.7-.38-.92-.29-.25-.71-.18-1.03-.3-1.11-.45-.65-1.89-.96-2.77-.15-.43-.55-.37-.92-.6-.34-.22-.7-.51-.86-.89-.2-.45-.29-.95-.23-1.41.03-.19.05-.41-.07-.61-.21-.36-.65-.86-.99-1.09-.36-.24-.53-.48-.64-.91-.14-.53,0-.77.22-1.25.25-.55.05-1.27-.48-1.62-.27-.17-.62-.1-.87-.28-.29-.21-.28-.68-.26-1,.03-.45.16-.79.4-1.16.22-.34.33-.4.2-.79-.17-.54-.31-1.08-.48-1.62-.08-.27-.09-.47-.05-.75.07-.42.24-.59.38-.96.11-.28.32-.65.2-.95-.1-.26-.26-.34-.34-.63-.15-.53-.14-.99-.13-1.54,0-.39.17-.72.39-1.03.15-.21.36-.43.43-.68.14-.5-.37-.96-.59-1.33-.12-.2-.04-.38-.05-.58,0-.19-.1-.33-.13-.52-.04-.3.06-.57.2-.83.17-.31.44-.61.77-.78.19-.1.55-.15.63-.39.08-.24-.23-.77-.26-1.03-.03-.32-.03-.79.08-1.1.21-.62.64-.96.98-1.49.57-.88,1.8-.76,2.73-.64,2.57.35,5.08,1.37,7.47,2.35,2.6,1.06,5.15,2.24,7.7,3.41,5.45,2.49,7.41,2.64,9.93.27s-2.73.23-3.49-2.34c-.24-.81-.06-1.73.12-2.53.13-.57.28-1.14.44-1.7.08-.27.18-.51.14-.78-.03-.23-.17-.4-.05-.63.12-.24.48-.32.6-.57.14-.32-.19-.54-.1-.85.05-.2.34-.33.37-.58-.01-.09-.03-.19-.04-.28.06-.15.16-.27.28-.38.32-.46,0-.56.04-1.04.02-.25.26-.38.23-.66,0-.1-.07-.31-.12-.4-.09-.18-.28-.28-.32-.49-.04-.23.14-.54.24-.74.13-.26.17-.45.25-.72.11-.34.12-.72.32-1.02.07-.11.2-.19.27-.3.19-.35.09-.86.08-1.23-.17-5.98,3.97-9.86,10.34-13.68,1.6-.96,2.89-2.32,3.88-3.89.43-.69.96-1.46,1.16-2.25.08-.31.12-.54.35-.78.36-.36.88-.48,1.27-.8.37-.3.21-.78.08-1.2-.12-.38-.3-.62.07-.87.21-.14.27-.2.44-.35.18-.17.33-.14.52-.25.26-.14.1-.34.28-.52.16-.16.48-.04.69-.07.43-.07.66-.31.55-.75-.1-.41-.34-.71-.03-1.06.24-.27.43-.59.63-.88.27-.37.62-.55,1.04-.76,5.43-2.65,4.58.4,7.02,5.11,2.44,4.71,5.18,5.51,5.55,10.7Z"/></g></svg>