<?xml version="1.0" encoding="UTF-8"?><svg id="Layer_2" xmlns="http://www.w3.org/2000/svg" viewBox="0 0 417.23 248.42"><defs><style>.cls-1{fill:#006684;stroke-width:0px;}</style></defs><g id="Layer_3"><path class="cls-1" d="M191.47,21.16s8.64-2.49,9.91.22c1.27,2.71,4.94,7.29-1.7,13-6.63,5.71-1.62-.47-11.22,13.48-9.6,13.95-15.33,17.57-24.52,21.96-9.18,4.39-20.62,18.4-33.11,24.18-12.49,5.78-23.18,8.27-22.12,5.64,1.05-2.63,8.29-2.3,1.05-2.63-7.24-.33-12.73-3.67-15.55-3.02l-2.83.65c1.52,2.75,1.91,5.78,2.22,8.85.15,1.51.76,3.69.48,5.19-.11.58-1.84,2.97-1.82,2.38-.05,1.93-1.24,2.72-2.88,1.85-.43,1.42-1.07,2.77-1.59,4.17-.43.03-.31-.14-.72-.2-.52.88-1.49,2.12-2.47,2.46-.91.32-1.17-.33-1.75-.21-1.24.25-3.55,1.55-3.81-.17-1.37.27-2.98.82-4.23,1.1-1.22.27-1.46-1.2-2.36.39-1.35-1.1-5.29-.21-4.2-3.68-2.28,1.49-4.56-.81-4.06-3.2-1.82.94-4.74.56-3.47-2.23-1.04-.39-2.57-2-3.07-2.46-.85-.79-2.44-.11-1.5-2.04-1.71.84-4.03.11-2.95-2.01-2.04,1.56-1.6-.61-2.77-.89-1.68-.41-1.79,0-3.27.11-3.64.27-3.37-.35-2.55-4.03-2.75.25-2.49-4.46-2.02-6.23-.08-.13-.57-.21-.71-.28,1.22-2.29-3.31-2.57-1.77-5.41,1.02-1.87,4.06-1.19,5.68-2.22,2.87-1.81,1.72-5.96,2.61-5.99.89-.04-.18-2.69-5.16-.02-4.98,2.67-5.68,1-7.97,5.91-2.07,4.44-5.58,8.5-8.92,12.03-1.87,1.98-3.91,4.08-6.27,5.48-.83.49-7.51,1.84-7.18,1.23,1.05-1.9-.47-2.47-2.05-2.06.41-3.36.03-3.53-2.04-5.84-1.55-1.72-.58-2.74-1.74-4.72-.51-.87-1.48-1.24-2.05-1.94.04.05-1.55-2.74-1.54-2.57-.02-.27,1.18-2.33,1.32-2.71.22-.64.32-2.19.55-3.08-3.8-1.64-.11-4.59-1.29-7.15-.46-.99-2.39-1.54-2.76-3.09-.3-1.23.42-2.52-.5-3.43.99-.48,1.96-1.18,1.87-2.17-1.02.14-1.94-.06-2.66-.74,2.4-2.71,3.5-4.4,7.23-5.07,3.14-.57,6.44-.46,9.61-.28,6.04.35,12.28,1.17,18.1,2.85,6.77,1.95,8.16,1.18,11.35-1.71.44-.4.9-.79,1.26-1.25-.72.15-2.03.24-2.66-.24-.29-.22-1.93-3.07-1.94-3.04.39-1.21.7-2.62.96-3.78.17-.75.79-.74.86-1.59.03-.37-.31-.94-.16-1.68-1.92-.98.12-2.74,1.02-3.52-.4-.09-.86-.37-1.26-.46.99-1.26,2.39-2.68,3.44-3.94,1.66-1.98,1.41-2.8,1.86-5.28.27-.03.57-.05.82-.08.06-2.12-4.88-7.34-2.43-7.82-.36-2.41-3.59-3.78-.73-4.9,1.45-.57,4.35.29,5.86.42,5.67.49,11.57.76,17.04-1.1,11.7-3.96,13.01-2.41,13.01-2.41,0,0,21.28-13.81,42.62-17.62,21.34-3.82,32.6-3.21,40.18,1.03,7.58,4.24,10.16,6.45,20.73,7.44,10.56.99,13.04,2,11.29,5.6-1.75,3.6-6.59,4.55-6.59,4.55Z"/><path class="cls-1" d="M414.07,41.88c4.29-9.78,3.94-11.76.62-10.38-3.31,1.38.81-3.18-6.96-1.65-7.78,1.54-5.23,7.44-18.93.95-13.7-6.49-23.6-9.42-26.22-9.03-2.63.39-1.5-7-3.71-10.46-2.21-3.46-1.93.77-3.78,1.13-1.85.36-2.81-8.77-7.47-9.92-4.66-1.16-1,5.2-4,6.29-3.01,1.09-4.73-4.67-7.37-5.64-2.64-.97-.96,4.01-3.68,5.41-2.72,1.4-4.27-3.15-5.96-2.88-1.69.26-1.01,5.16-3.64,5.55s-3.42-2.9-4.51-1.99c-1.1.92-.98,4.61-4.41,4.26-3.44-.35-.54-1.8-4.25.88s-4.02,2.96-6.12,1.83c-2.1-1.14.45,2.81-3.03,3.65-3.47.84-1.51-3.08-4.93-.1-3.42,2.98-2.92,2.05-4.88,2.05-1.96,0,.18,1.91-3.21,3.7-3.39,1.8-2.92.09-7.54,1.66-4.63,1.58-4.34,3.85-8.14,7.53-3.8,3.68-11.37,11.83-15,21.34-3.63,9.51-7.52,16.17-1.3,20.58s9.42,6.6,14.23,4.97c4.81-1.63,5.95,3.52-5.93,5.1s-19.54-4.36-25.91-4.03c-6.37.33-6.35-.26-7.74,4.27-1.39,4.53-.18,2.02-2.96,7.16-2.78,5.14.59,3.94-1.9,7.43-2.49,3.49-.44,2.48-1.38,5.9-.61,2.22-2.98,4.18-1.14,6.34.65.77,1.44.59,1.98,1.66.53,1.04-.42,2.01.96,2.84.53.32,1.47.29,2.03.56-2.29,4.12,5.63,4.38,5.37,6.85,1.25-.07,2.01.42,1.9,1.75.54-.26,1.1-.1,1.64-.23.22,1.42,1.27,1.92,2.63,1.57,1.7,4.91,24.71-14.44,26.56-16.2,8.7-8.28,10.93-9.34,21.8-9.06,1.05.03,2.22-.03,3.19.35-1.6,1.2-15.09,2.96-15.06,4.4,0,.19.08.31.08.5-.89.1-1.73.44-1.36,1.39-1.76.46-2.47,1.86-4,2.83.12.15.23.48.36.64-2.14.68-3.22,5.08-2.08,6.69.45.65,1,.31,1.45.73.41.38.25,1.23.67,1.58.49.41,3.19,1.25,3.73,1.07.08.25.26.57.3.83.23-.03.45-.13.68-.14.65,1.01,1.34,2.06,2.86,1.7.11.13.12.32.19.47,1.22-.48,2.33.63,3.76.31.46,1.39,1.22.28,2.2.32.85.04,1.11.79,2.43.25.38.79,1.28.56,2.01.18.04.27.37.68.4,1,.64-.14,1.95-.64,2.43-.88.36-.18,1.09-.74,1.43-.83.7-.19,1.11.02,1.56-.07.82-.17,1.92-.37,2.63-.63,1.53-.56,2.89-2.28,4.35-3.14,1.96-1.15,4-2.18,5.97-3.32,2.97-1.72,5.9-3.52,8.72-5.46,3.35-2.31,6.54-4.83,9.42-7.71,3.62-3.63,24.47-12.6,24.47-12.6-1.04.45-1.98,4.3-1.93,5.25.19,0,.34-.08.53-.1-.32.5-.65,1.16-.84,1.71.08-.09.18-.14.3-.17-.13.95-.74,1.92-.66,2.9.18-.11.44-.25.65-.36-.34,1.47-.82,2.85-.23,4.36.14-.16.43-.37.56-.52.24.28.37.39.5.78.12,0,.4-.15.5-.1.42.74.99,1.49,1.16,2.36.13-.16.44-.37.57-.53.03.38.36.83.42,1.2.2.02.49-.09.68-.15.07.1.09.42.19.47.23.04.41-.17.65-.14.22.09.07.3.23.42.04,0,.53-.26.64-.29.07.13.09.37.2.47.24-.36.88-.62,1.24-.9.06.21.18.44.25.66.31-.3.81-.49,1.07-.86-.05.41.16.66.18,1.06,3.14-.62,5.38-5.24,7.21-7.51,3.23-4.02,5.73-8.6,8.17-13.13,4.92-9.12,2.94-8.53,3.38-9.05s12.35-5.26,17.02-11.94c4.67-6.69.45-3.08,6.43-8,5.98-4.92,10.6-11.29,14.42-19.99Z"/><path class="cls-1" d="M187.29,184.89s19.85-11.81,33.62-10.04c13.76,1.77,15.95,1.71,18.71,6.03,2.76,4.32,4.37,4.28,6.4,4.7,2.04.42,2.81,1.51,1.09,3.65-1.72,2.13.7.97,2.04,1.45,1.33.48-.41,1.74-2.13,4.75-1.72,3.01.62,5.4-2.75,11.85s-6.92,11.18-14.91,17.24c-7.98,6.06-15.48,13.45-23.84,14.03-8.35.58-11.28-2.81-14.54-3.89s-.55-.86.12,3.35c.13.79.11,1.77.39,2.52.06.16.15.29.19.46.13.51.11,1.07.13,1.59.02.46-.18.93-.38,1.34-.11.22-.27.88-.48,1-.27-.03-.25-.46-.34-.64-.1-.2-.32-.53-.51-.63-.1.17-.03.38-.12.55-.09.18-.27.3-.36.5-.19.43-.16.89-.27,1.34-.56-.11-.7-1.26-1.33-1.21.06.52-.3,1.08-.85.84-.57-.26-.79-1.18-1.5-.71-.42.27-.71,1.09-1.29,1.1-.58.02-1.04-1.32-1.25-1.77-.13-.28-.3-.26-.56-.38-.21-.09-.41-.33-.64-.36-.5-.06-1.04.6-1.48.2-.41-.37-.5-1.22-.66-1.72-.27-.87-.04-1.84.08-2.7-.56-.1-1.02.69-1.27,1.08-.22.35-.13.8-.35,1.14-.52.84-.52-.83-1.1-.58-.19-.21-.1-.55-.38-.73-.2-.14-.27,0-.44-.06-.13-.05-.23-.15-.37-.19-.26-.08-.52-.05-.79-.16-.4-.18-.55-.57-.59-1-.07-.61.5-1.4.28-1.99-.07-.18-.91.44-.98.49-.15.11-.31.22-.49.27-.28.08-.28-.01-.47-.16-.62-.5-1.17-1.06-1.65-1.71-.27-.36-.67-1.05-1.2-.79-.53.25-.89,1.14-1.16,1.62-.16.29-.32.59-.48.88-.93,1.72-1.4,3.57-2.03,5.41-.41,1.19-1.06,2.14-2.46,1.77-.73-.19-.75-1-.74-1.66,0-.17.13-.42-.1-.53-.24-.11-.5.24-.63.37-.22.22-.45.42-.69.61-.4.32-.28.09-.49-.29-.39,0-.67.29-1.08.17-.35-.1-.44-.37-.7-.54-.28-.18-.47-.08-.76-.08-.44,0-.92-.18-1.35-.3-.29-.08-.65-.14-.88-.35-.54-.48.1-1.42.37-1.88,1.74-3.02,4.08-7.98.88-6.44-1.15.55-2.26,1.22-3.42,1.75-.5.23-1.32.6-1.57-.13-.06-.18-.06-.37-.12-.55-.03-.09-.12-.14-.12-.24,0-.25.28-.39.44-.53.16-.14.23-.29.37-.44.32-.35.9-.59,1.35-.68-.39-.09-.59.08-.96.13-.46.07-.17-.17-.45-.43-.13-.13-.26-.05-.36-.25-.09-.18.01-.36.13-.5.02-.03.24-.19.25-.2.05-.13-.07-.33-.11-.46-.11-.34-.16-.45-.04-.76.18-.45.39-.89.77-1.2.35-.28.7-.5.97-.88.17-.25.27-.54.47-.76.26-.28.59-.37.94-.49.33-.12.64-.32.56-.72-.21-1.09-1.9-.88-2.59-.58-2.55,1.12-3.9,4.41-4.78,6.82-.02.07-.05.13-.07.2-.42,1.16-.84,2.32-1.29,3.47-1.15,2.96-2.37,5.98-4.13,8.63-.55.82-1.16,1.62-1.92,2.26-.49.42-.92.58-1.56.62-.4.02-.7.15-1.03.37-.25.17-.39.3-.71.24-.22-.04-.4-.17-.62-.21-.15-.03-.17.01-.32,0-1.04-.07-.84-1.35-1.2-2.07-.38-.75-1.63-.08-2.03-.82-.27-.5-.26-1.06-.6-1.55-.21-.31-.43-.49-.57-.84-.57.01-1.36.04-1.74-.5-.27-.39-.33-1.07-.47-1.52-.09-.3-.13-.7-.38-.92-.29-.25-.71-.18-1.03-.3-1.11-.45-.65-1.89-.96-2.77-.15-.43-.55-.37-.92-.6-.34-.22-.7-.51-.86-.89-.2-.45-.29-.95-.23-1.41.03-.19.05-.41-.07-.61-.21-.36-.65-.86-.99-1.09-.36-.24-.53-.48-.64-.91-.14-.53,0-.77.22-1.25.25-.55.05-1.27-.48-1.62-.27-.17-.62-.1-.87-.28-.29-.21-.28-.68-.26-1,.03-.45.16-.79.4-1.16.22-.34.33-.4.2-.79-.17-.54-.31-1.08-.48-1.62-.08-.27-.09-.47-.05-.75.07-.42.24-.59.38-.96.11-.28.32-.65.2-.95-.1-.26-.26-.34-.34-.63-.15-.53-.14-.99-.13-1.54,0-.39.17-.72.39-1.03.15-.21.36-.43.43-.68.14-.5-.37-.96-.59-1.33-.12-.2-.04-.38-.05-.58,0-.19-.1-.33-.13-.52-.04-.3.06-.57.2-.83.17-.31.44-.61.77-.78.19-.1.54-.15.63-.39.08-.24-.23-.77-.26-1.03-.03-.32-.03-.79.08-1.1.21-.62.64-.96.98-1.49.57-.88,1.8-.76,2.73-.64,2.57.35,5.08,1.37,7.47,2.35,2.6,1.06,5.15,2.24,7.7,3.41,5.45,2.49,7.41,2.64,9.93.27s-2.73.23-3.49-2.34c-.24-.81-.06-1.73.12-2.53.13-.57.28-1.14.44-1.7.08-.27.18-.51.14-.78-.03-.23-.17-.4-.05-.63.12-.24.48-.32.6-.57.14-.32-.19-.54-.1-.85.05-.2.34-.33.37-.58-.01-.09-.03-.19-.04-.28.06-.15.16-.27.28-.38.32-.46,0-.56.04-1.04.02-.25.26-.38.23-.66,0-.1-.07-.31-.12-.4-.09-.18-.28-.28-.32-.49-.04-.23.14-.54.24-.74.13-.26.17-.45.25-.72.11-.34.12-.72.32-1.02.07-.11.2-.19.27-.3.19-.35.09-.86.08-1.23-.17-5.98,3.97-9.86,10.34-13.68,1.6-.96,2.89-2.32,3.88-3.89.43-.69.96-1.46,1.16-2.25.08-.31.12-.54.35-.78.36-.36.88-.48,1.27-.8.37-.3.21-.78.08-1.2-.12-.38-.3-.62.07-.87.21-.14.27-.2.44-.35.18-.17.33-.14.52-.25.26-.14.1-.34.28-.52.16-.16.48-.04.69-.07.43-.07.66-.31.55-.75-.1-.41-.34-.71-.03-1.06.24-.27.43-.59.63-.88.27-.37.62-.55,1.04-.76,5.43-2.65,4.58.4,7.02,5.11,2.44,4.71,5.18,5.51,5.55,10.7Z"/></g></svg>