<?xml version="1.0" encoding="UTF-8"?><svg id="Layer_2" xmlns="http://www.w3.org/2000/svg" viewBox="0 0 92.62 103.24"><defs><style>.cls-1{fill:#106589;stroke-width:0px;}</style></defs><g id="poster"><path class="cls-1" d="M3.08,85.75c.13.06.28.09.41.13-1.22-.96-2.06-2.28-2.52-3.67.91,1.23,1.94,2.34,3.18,3.04.18.1.38.18.57.27-.22-.17-.42-.35-.61-.55-.44-.48-.79-1.04-1.02-1.64-.22-.6-.36-1.25-.26-1.9.48.65.93,1.23,1.37,1.79-.06-.17-.13-.34-.17-.51-.14-.59-.21-1.21-.09-1.83.72,1.01,1.24,1.97,1.82,2.9.28.46.57.91.89,1.35.01.02.02.03.03.05,0-.02-.02-.04-.03-.06-.3-.57-.53-1.17-.68-1.79-.31-1.24-.27-2.57.17-3.72.02.62.07,1.21.19,1.79.11.58.29,1.13.5,1.66.05.11.1.21.15.32-.51-3.28-.79-6.61-.86-9.94-.02,0-.03,0-.04,0-.1-.02-.19-.06-.28-.09-.56-.06-1.07-.2-1.57-.41-.59-.25-1.12-.64-1.57-1.09-.44-.46-.79-1-1.01-1.58-.23-.57-.35-1.18-.38-1.78.41,1.12,1,2.15,1.88,2.83.09.08.2.13.3.2-.76-1.06-1.13-2.31-1.19-3.54.45,1.2,1.02,2.33,1.86,3.19.13.13.28.25.42.36-.14-.19-.28-.39-.38-.6-.25-.49-.4-1.02-.45-1.56-.04-.54,0-1.09.23-1.59.24.64.46,1.21.7,1.76,0-.15-.02-.3-.02-.45.03-.51.11-1.02.35-1.5.35.98.54,1.88.8,2.76.1.37.22.74.35,1.11,0-.07,0-.15,0-.22-.06-.4-.1-.8-.08-1.21.01-.32.06-.64.12-.96.08-2.71.27-5.41.59-8.09-.09-.02-.17-.02-.28-.05-.08-.03-.16-.07-.23-.11-.49-.1-.92-.27-1.34-.5-.5-.27-.93-.66-1.28-1.09-.35-.44-.6-.94-.75-1.47-.15-.52-.21-1.06-.18-1.59.25,1.02.69,1.97,1.39,2.64.08.08.17.13.25.2-.57-.99-.79-2.12-.73-3.2.29,1.09.69,2.13,1.35,2.95.1.13.22.24.33.35-.11-.18-.21-.36-.28-.56-.17-.45-.26-.93-.25-1.41.01-.47.1-.95.34-1.37.15.58.3,1.1.45,1.6,0-.13,0-.27.02-.4.07-.44.19-.88.44-1.28.22.89.31,1.69.46,2.48.07.39.15.78.24,1.17,0,.02.01.04.02.06,0-.02,0-.04-.01-.06-.05-.47-.05-.95.02-1.42.1-.74.37-1.45.78-2.05.2-1.15.4-2.3.63-3.45.24-1.16.5-2.31.77-3.45-.06-.04-.11-.08-.16-.12-.36-.16-.67-.36-.96-.62-.34-.3-.61-.67-.81-1.07-.2-.4-.31-.84-.34-1.27-.03-.43.02-.86.13-1.27.03.84.21,1.65.65,2.3.05.07.11.13.16.2-.28-.87-.26-1.79-.03-2.63.04.9.18,1.78.56,2.53.06.12.13.22.2.33-.05-.16-.1-.32-.13-.49-.06-.38-.05-.77.04-1.14.09-.37.24-.73.49-1.02.02.48.05.91.09,1.33.03-.1.05-.21.08-.31.13-.34.3-.66.56-.93.02.73-.04,1.38-.06,2.02,0,.11,0,.22,0,.33.68-2.66,1.45-5.28,2.3-7.86-.04-.02-.08-.03-.12-.05-.31-.06-.6-.14-.89-.28-.33-.15-.63-.36-.88-.62-.51-.52-.73-1.27-.69-1.95.05.34.13.68.28.98.15.3.35.57.59.79.17.16.37.28.58.39-.11-.12-.22-.25-.31-.39-.38-.58-.53-1.28-.49-1.94.05.33.12.65.24.95.1.26.25.5.41.72-.05-.11-.11-.22-.15-.34-.21-.72-.13-1.49.18-2.14-.02.72-.03,1.4.17,2.04.15.49.41.94.77,1.33.04.02.08.05.12.07-.1-.12-.19-.25-.27-.39-.17-.31-.26-.66-.3-1.01-.08-.7.04-1.41.34-2.03-.02.69-.06,1.34.02,1.99.03.32.1.64.2.94.01.04.03.07.04.1,0-.04-.02-.07-.02-.11-.04-.33-.04-.66,0-.99.03-.32.11-.64.21-.95.1-.31.23-.61.38-.89-.18.62-.3,1.24-.31,1.86,0,.31,0,.62.06.92.02.1.04.19.06.29.08-.24.16-.48.24-.72.03-.12.05-.25.08-.37.08-.3.19-.59.31-.88.12-.28.25-.57.4-.83-.14.48-.26.97-.36,1.46.04.07.04.21-.02.46-.06.25-.12.49-.18.74.02-.02.04-.04.06-.07.19-.26.37-.53.55-.81.17-.28.33-.57.49-.86.16-.29.3-.59.45-.89-.07.33-.17.65-.28.96-.11.32-.25.63-.4.93-.15.3-.33.6-.52.87-.09.13-.19.25-.28.38.15-.1.29-.22.42-.33.25-.22.48-.46.7-.72.21-.26.41-.53.59-.82.18-.28.34-.59.49-.9-.07.34-.19.66-.32.99-.14.32-.32.62-.52.91-.2.29-.44.56-.7.79-.01,0-.02.02-.03.03.33-.12.63-.31.91-.54.29-.24.55-.52.79-.82.25-.29.47-.62.69-.94-.15.36-.33.71-.54,1.05-.21.33-.46.65-.75.93-.05.05-.12.09-.17.14.1-.06.2-.11.29-.18.31-.22.6-.49.86-.78.27-.29.5-.61.72-.94-.15.37-.35.72-.58,1.06-.23.33-.51.64-.83.9-.62.52-1.46.83-2.29.75,0,0-.01,0-.02,0s-.01,0-.02,0c0,0,0,0,0,0h0s0,0-.02,0c-.47,1.9-.87,3.69-1.25,5.46.02-.02.04-.04.06-.05-.03.05-.05.11-.09.16-.09.45-.19.89-.28,1.34.08-.11.15-.23.23-.34.21-.26.43-.51.68-.73-.28.6-.53,1.19-.77,1.79l-.24.62c.2-.19.41-.39.6-.59.25-.25.5-.51.74-.77l.74-.8c-.11.35-.27.69-.44,1.02-.11.19-.24.37-.36.55.16-.14.33-.27.48-.42.27-.25.51-.53.77-.81-.12.36-.29.71-.49,1.04-.21.33-.45.63-.72.91-.22.22-.47.41-.73.59.36-.1.7-.29,1.02-.53.34-.27.67-.59.98-.92.32-.33.63-.68.98-1-.21.42-.45.82-.7,1.22-.17.27-.37.53-.58.78.29-.17.58-.36.85-.59.38-.3.73-.64,1.09-.98-.23.44-.51.85-.84,1.24-.33.38-.71.73-1.14,1.01-.44.29-.94.49-1.46.59-.42.07-.85.05-1.26-.02-.22,1.13-.44,2.29-.68,3.52-.35,1.87-.63,3.76-.89,5.66.07-.1.14-.2.2-.3.24-.37.47-.75.7-1.14l.69-1.17c-.04.46-.15.91-.28,1.36-.08.26-.19.52-.29.77.16-.21.33-.42.48-.64.26-.38.49-.78.73-1.19-.04.48-.16.94-.32,1.4-.16.45-.38.89-.64,1.3-.2.31-.43.6-.68.88.39-.21.74-.51,1.05-.89.35-.42.66-.89.96-1.38.31-.49.6-.99.93-1.48-.15.57-.33,1.12-.53,1.68-.15.37-.32.74-.51,1.1.31-.29.61-.6.88-.94.38-.47.72-.97,1.07-1.48-.16.6-.4,1.18-.7,1.73-.3.55-.67,1.08-1.13,1.54-.46.46-1.02.85-1.64,1.1-.41.16-.85.24-1.29.29-.24,2.32-.38,4.66-.45,6.99.09-.19.19-.39.31-.57-.12.94-.2,1.85-.27,2.76l-.06.96c.19-.35.39-.7.57-1.06.23-.45.45-.91.67-1.37l.65-1.41c0,.53-.07,1.05-.16,1.57-.06.31-.16.61-.24.91.16-.26.33-.51.47-.78.25-.46.46-.94.69-1.44,0,.54-.08,1.09-.21,1.62-.13.53-.33,1.05-.58,1.55-.19.37-.42.72-.67,1.06.42-.28.78-.66,1.09-1.11.35-.51.65-1.09.93-1.68.29-.59.57-1.19.89-1.78-.11.66-.25,1.31-.42,1.96-.12.44-.27.87-.45,1.31.32-.36.62-.75.89-1.16.38-.57.71-1.18,1.05-1.8-.12.7-.33,1.38-.6,2.04-.28.66-.64,1.3-1.11,1.87-.46.58-1.06,1.07-1.73,1.43-.54.27-1.12.43-1.71.52.11,3.04.39,6.07.88,9.03.09-.5.19-1,.27-1.51l.28-1.83c.18.6.27,1.23.33,1.85.03.34.04.68.05,1.01.09-.31.19-.62.26-.95.14-.61.22-1.23.32-1.87.18.62.26,1.27.29,1.92.02.65-.03,1.31-.15,1.96-.1.49-.25.98-.42,1.45.38-.46.67-1.02.88-1.64.23-.7.38-1.46.52-2.23.14-.73.25-1.47.41-2.2-.23-.35-.41-.72-.51-1.12.38.78.97,1.4,1.66,1.86.07-.29.13-.58.2-.88.04.34.05.68.05,1.03.67.43,1.42.75,2.18.97.51.15,1.04.26,1.57.36-.21-.1-.43-.18-.63-.3-.73-.43-1.39-.98-1.91-1.63-.51-.66-.92-1.41-1.1-2.21.36.73.82,1.4,1.4,1.94.56.55,1.22,1,1.92,1.35.47.23.96.4,1.46.54-.55-.39-1.07-.81-1.53-1.31-.53-.57-.99-1.21-1.32-1.91-.31-.71-.53-1.47-.54-2.23.19.73.47,1.42.88,2.04.39.62.88,1.17,1.41,1.67.54.49,1.12.93,1.75,1.31.46.29.96.54,1.46.77h.02c-.25-.27-.48-.54-.7-.83-.4-.55-.77-1.13-1.06-1.75-.6-1.22-.93-2.56-.96-3.9.18.64.37,1.27.63,1.87.25.6.54,1.18.87,1.74.34.55.69,1.09,1.1,1.58,0,0,0,0,0,0-.38-1.69-.65-3.4-.87-5.1-.36-2.83-.64-5.68-1.17-8.48-.85.55-1.87.83-2.9.82-1.18-.02-2.36-.44-3.21-1.23,1.09.38,2.14.63,3.22.64.04,0,.08,0,.12,0-.67-.23-1.26-.61-1.74-1.12.81.21,1.52.5,2.26.67.36.09.73.15,1.09.16.11,0,.23,0,.35-.02-.32-.04-.64-.1-.96-.18-.55-.16-1.1-.36-1.59-.69-.49-.32-.92-.74-1.2-1.25-.28-.51-.4-1.09-.37-1.65.11.55.28,1.07.61,1.5.31.43.73.77,1.19,1.02.47.24.97.42,1.49.54.07.02.14.02.21.04-.41-.27-.81-.57-1.14-.95-.38-.42-.68-.91-.88-1.43-.19-.53-.28-1.08-.25-1.62.11.53.25,1.05.51,1.5.24.47.56.88.94,1.23.2.19.42.36.65.52-.24-.38-.44-.77-.56-1.19-.33-1.06-.3-2.18-.02-3.2-.05,1.06.05,2.11.44,3.04.2.47.44.91.75,1.3.16.2.34.39.52.57-.07-.14-.14-.27-.19-.41-.18-.49-.31-.99-.35-1.5-.11-1.01,0-2.03.27-2.98-.04.99-.02,1.97.17,2.91.1.47.23.93.42,1.36.06.14.14.28.21.42.04-.09.07-.18.11-.27.12-.36.21-.73.28-1.11.13-.76.2-1.54.23-2.35.18.78.26,1.59.2,2.4-.03.41-.09.81-.2,1.21-.05.16-.1.32-.16.48.02,0,.03-.02.05-.02.14-.16.28-.34.4-.51.23-.34.41-.71.56-1.09.29-.78.42-1.62.44-2.49.19.85.2,1.75-.03,2.62-.08.3-.19.58-.32.86.17-.11.34-.21.5-.34.34-.27.65-.59.93-.93.29-.34.52-.72.75-1.11-.21.89-.68,1.74-1.36,2.4-.18.18-.37.34-.57.49.36-.14.72-.3,1.04-.51.39-.24.76-.53,1.08-.87.34-.33.6-.73.84-1.15-.23.95-.84,1.82-1.66,2.41-.4.3-.85.54-1.32.73-.45.17-.9.31-1.4.37-.02,0-.05.01-.07.02h0s-.07,0-.1,0c-.07-.02-.13-.05-.2-.07.62,2.79,1,5.64,1.46,8.46.21,1.3.45,2.59.74,3.87,0-.41.02-.82.03-1.24l-.02-2.19-.03-2.2c.17.72.29,1.44.41,2.17.11.73.19,1.46.24,2.2.06.74.08,1.48.08,2.22,0,.44-.03.87-.06,1.3.02.01.03.03.05.04.22-.47.4-1.01.54-1.53.19-.69.32-1.41.41-2.13.09-.72.15-1.45.18-2.19.04-.74.03-1.47.02-2.22.17.72.27,1.46.35,2.21.06.74.09,1.5.05,2.25-.03.75-.14,1.51-.3,2.25-.05.22-.11.43-.17.63.14-.29.28-.58.4-.87.32-.81.58-1.63.78-2.48.42-1.69.62-3.43.89-5.22.34,1.78.28,3.62-.14,5.4-.23.89-.53,1.76-.99,2.56-.21.38-.46.74-.74,1.07.29-.22.57-.46.83-.72.44-.45.84-.95,1.2-1.49.72-1.07,1.26-2.26,1.71-3.51-.11.77-.3,1.53-.56,2.27.05.05.1.1.15.15.67-1.48.98-3.12,1.23-4.81.34,1.78.16,3.69-.64,5.39.22.2.44.38.67.56.49-.45.95-.95,1.38-1.48-.27-.49-.51-.98-.68-1.51.71,1.13,1.55,2.15,2.54,2.98.99.84,2.09,1.51,3.26,2.05,1.16.55,2.39.94,3.65,1.25.25.06.51.1.76.15-1.08-.61-2.1-1.31-3.03-2.11-.98-.85-1.87-1.81-2.62-2.86-.74-1.06-1.36-2.2-1.76-3.41.68,1.08,1.42,2.08,2.28,2.99.84.91,1.77,1.73,2.76,2.46.45.34.92.65,1.4.95-.29-.4-.56-.8-.8-1.23-.55-.94-.98-1.96-1.28-3-.3-1.04-.47-2.11-.49-3.18.27,1.03.6,2.03,1.03,2.98.42.95.95,1.84,1.53,2.69.59.84,1.26,1.62,1.98,2.34.39.37.8.74,1.22,1.08.08.04.17.08.25.11-.21-.38-.41-.77-.59-1.17-.45-.95-.82-1.92-1.12-2.92-.32-.99-.55-2.01-.72-3.03-.17-1.02-.28-2.05-.29-3.08.26,1,.54,1.98.85,2.95.31.97.67,1.91,1.05,2.84.27.64.57,1.25.87,1.87-.23-2.08-.41-4.16-.48-6.24-.04-1.18-.05-2.37-.04-3.56-.43.36-.89.67-1.38.95-.85.49-1.81.79-2.78.92-.97.12-1.95.05-2.87-.19-.92-.24-1.78-.63-2.56-1.14.88.3,1.77.51,2.66.6.89.08,1.78.04,2.62-.16.41-.09.8-.23,1.18-.39-.13,0-.27.02-.4.02-2.1.03-4.09-.69-5.74-1.77.95.31,1.89.57,2.85.72.95.15,1.91.18,2.84.09.66-.08,1.29-.25,1.9-.47-.71.1-1.44.09-2.14-.04-.83-.15-1.62-.46-2.33-.88-.7-.43-1.35-.97-1.8-1.68,1.29.48,2.49.88,3.69,1.15-.49-.25-.96-.52-1.38-.86-.61-.49-1.18-1.05-1.58-1.75,1.47.58,2.76,1.21,4.1,1.73.66.26,1.33.5,2.02.7.08.02.16.04.23.06-.1-.12-.19-.24-.29-.36-.7-.34-1.38-.75-1.98-1.24-1.08-.86-1.95-1.98-2.49-3.21-.1-.1-.2-.19-.3-.29-1-.98-1.98-2.01-2.83-3.16-.14.07-.3.15-.48.22-.09.03-.18.04-.27.06-.69.32-1.37.48-2.09.57-.81.1-1.64.02-2.42-.19-.78-.22-1.5-.6-2.12-1.08-.62-.48-1.14-1.07-1.55-1.7,1.16.98,2.48,1.72,3.87,1.91.15.02.31.02.46.03-1.51-.67-2.73-1.81-3.57-3.13,1.26,1.03,2.62,1.91,4.08,2.31.22.06.44.09.65.13-.27-.12-.53-.25-.77-.41-.58-.38-1.09-.87-1.49-1.43-.39-.57-.69-1.2-.77-1.89.67.55,1.28,1.03,1.89,1.49-.1-.16-.22-.32-.31-.49-.3-.58-.53-1.19-.57-1.87,1.01.86,1.8,1.72,2.64,2.52.42.4.83.79,1.28,1.16.02.02.03.03.05.04-.02-.02-.04-.04-.05-.05-.46-.51-.86-1.07-1.18-1.67-.65-1.2-.95-2.58-.81-3.89.18.62.39,1.21.66,1.77-.79-2.45-1.11-5.01-1.35-7.52-.02-.23-.04-.46-.06-.69,0,0-.01,0-.02,0h-.06c-.18.03-.35.04-.53.05-.52.16-1.04.26-1.58.28-.63.03-1.27-.06-1.87-.26-1.22-.4-2.15-1.37-2.63-2.47.35.49.75.94,1.22,1.29.47.35,1,.6,1.55.74.4.1.81.13,1.22.13-.27-.1-.54-.21-.79-.36-1.06-.59-1.84-1.55-2.31-2.61.34.47.7.91,1.13,1.28.39.35.83.63,1.29.85-.2-.15-.4-.3-.58-.47-.91-.94-1.4-2.21-1.44-3.46.54,1.13,1.08,2.19,1.9,3.02.62.64,1.39,1.12,2.26,1.43.08,0,.15,0,.22,0-.25-.11-.5-.24-.72-.39-.51-.35-.94-.81-1.29-1.32-.68-1.02-1.06-2.22-1.1-3.42.53,1.08.99,2.13,1.63,3.06.31.47.67.9,1.07,1.3.05.05.1.08.16.13-.04-.05-.09-.1-.13-.16-.33-.48-.59-.99-.8-1.53-.21-.53-.35-1.08-.45-1.64-.09-.56-.14-1.12-.13-1.68.22,1.1.54,2.16,1.02,3.13.24.49.51.95.83,1.38.19.25.41.49.64.72-.1-.23-.19-.46-.27-.69-.17-.52-.31-1.05-.42-1.58-.11-.53-.18-1.07-.23-1.61-.04-.54-.07-1.08-.06-1.62.22,1.06.46,2.09.75,3.11.06.22.15.42.21.64-.21-1.82-.48-3.63-.97-5.4.63,1.89,1.02,3.85,1.33,5.81.07-.48.13-.96.16-1.44.04-.57.06-1.14.06-1.72.02-.58,0-1.16-.02-1.74.16.56.25,1.14.34,1.72.08.58.12,1.17.13,1.76,0,.59-.03,1.18-.1,1.77-.04.27-.08.54-.13.81.15-.28.28-.57.39-.86.21-.54.38-1.1.5-1.67.12-.57.21-1.15.25-1.74.06-.59.05-1.18.04-1.79.16.58.24,1.18.29,1.79.04.61.01,1.22-.07,1.83-.08.61-.23,1.21-.43,1.79,0,.02-.02.04-.03.07.41-.45.72-.99.96-1.57.25-.6.43-1.25.57-1.91.15-.66.23-1.33.31-2.01.07.68.06,1.37.02,2.05-.06.69-.18,1.38-.41,2.04-.04.12-.1.23-.15.35.11-.17.22-.33.31-.51.3-.6.54-1.24.71-1.9.18-.66.28-1.35.37-2.04.07.69.04,1.4-.04,2.1-.1.7-.28,1.4-.56,2.06-.54,1.3-1.59,2.46-2.95,3,0,0-.01.02-.02.02,0,0-.02,0-.02,0,0,0-.01,0-.02,0h0s-.04.01-.06.01c.03.21.06.43.1.64.34,2.31.77,4.61,1.53,6.78-.05-.39-.08-.78-.07-1.18.47,1.11.96,2.15,1.48,3.2l.55,1.08c-.01-.51-.03-1.02-.06-1.53-.04-.64-.09-1.28-.14-1.93l-.19-1.96c.34.57.6,1.2.83,1.82.12.34.22.69.32,1.04,0-.35.03-.7.02-1.05-.02-.66-.1-1.33-.16-2.01.35.59.61,1.24.81,1.91.19.67.32,1.36.36,2.07.03.55,0,1.1-.06,1.66.29-.59.43-1.27.49-1.98.05-.78.01-1.61-.05-2.44-.05-.83-.14-1.67-.16-2.52.31.79.56,1.59.8,2.41.15.56.26,1.14.34,1.73.12-.6.2-1.22.24-1.85.06-.87.02-1.75,0-2.65.32.84.52,1.72.65,2.62.11.9.13,1.83-.02,2.76-.14.93-.47,1.85-.98,2.68-.46.71-1.05,1.34-1.73,1.84.84,1,1.79,1.92,2.79,2.79.25.21.5.43.75.64-.15-.27-.29-.54-.41-.83,1,1.06,2.03,2.03,3.08,2.99l1.57,1.38s-.03-.08-.05-.12c-.31-.72-.65-1.42-1-2.12-.3-.59-.61-1.18-.93-1.77-.07-.06-.15-.12-.23-.19.06.03.11.06.17.09-.04-.07-.08-.15-.12-.22-.38-.7-.78-1.38-1.19-2.08.63.51,1.19,1.1,1.73,1.71.31.36.57.75.85,1.13.09.03.19.05.28.08-.19-.49-.4-.98-.63-1.46-.35-.73-.77-1.44-1.19-2.16.65.53,1.22,1.15,1.74,1.81.43.56.79,1.16,1.12,1.79.07-.5.15-1,.23-1.49-.05-.1-.09-.2-.14-.3-.11-.07-.23-.13-.33-.2-.92-.63-1.72-1.44-2.28-2.37.65.62,1.35,1.14,2.1,1.56-.03-.06-.06-.12-.09-.18-.47-.91-.98-1.8-1.42-2.73.69.77,1.34,1.56,1.97,2.38.15.2.28.41.42.61.06-.29.11-.58.17-.86.02-.1.05-.21.07-.31-.95-.98-1.65-2.18-1.9-3.49.26.3.51.58.76.86-.04-.08-.07-.16-.11-.24.2.22.37.47.55.7.28.29.56.58.86.84.04.04.09.07.13.11.16-.6.33-1.2.51-1.8-.34-.98-.5-2.01-.42-3.03.28.61.56,1.18.85,1.74.31-.87.64-1.74,1.03-2.59.53-1.16,1.15-2.27,1.84-3.34-.49-1.32-1-2.64-1.5-3.97-.65.58-1.37.97-2.18,1.2-.88.24-1.83.27-2.7.06-.88-.19-1.68-.59-2.4-1.07-.72-.49-1.35-1.07-1.9-1.72,1.37.99,2.85,1.85,4.44,2.06.73.09,1.46.05,2.15-.16-.88-.02-1.76-.25-2.52-.67-.79-.43-1.46-1.02-2.02-1.68-.55-.67-1.01-1.4-1.36-2.17,1.04,1.33,2.24,2.55,3.7,3.2.73.31,1.5.48,2.28.44.23,0,.45-.04.68-.08-.23-.11-.46-.21-.69-.33-.7-.4-1.36-.87-1.94-1.41-.6-.53-1.12-1.12-1.6-1.76-.46-.63-.88-1.3-1.21-2.01,1.02,1.18,2.09,2.27,3.29,3.17.51.38,1.04.72,1.59,1.01-.5-.53-.96-1.11-1.34-1.72-.42-.67-.77-1.39-1.05-2.12-.27-.74-.5-1.49-.62-2.26.66,1.41,1.39,2.75,2.3,3.95.37.48.77.93,1.19,1.35-.17-.32-.33-.66-.47-1-.24-.61-.43-1.23-.56-1.87-.13-.64-.21-1.29-.18-1.96.35.57.63,1.15.89,1.73.27.58.5,1.16.74,1.74.04.1.08.2.11.29-.13-.38-.25-.77-.35-1.16l-.34-1.35c-.22-.9-.44-1.81-.64-2.72-.35-1.57-.67-3.15-.96-4.74-.51.42-1.06.71-1.68.89-.72.2-1.49.22-2.21.04-1.44-.34-2.58-1.26-3.44-2.31,1.12.77,2.32,1.43,3.57,1.58.37.04.74.03,1.11-.02-.51-.08-1.01-.25-1.45-.5-1.29-.72-2.14-1.92-2.68-3.16.87,1.05,1.84,2.01,3.01,2.5.58.24,1.19.37,1.79.33.08,0,.15-.02.23-.03-.09-.05-.19-.08-.28-.13-.56-.33-1.09-.71-1.56-1.15-.47-.44-.89-.92-1.27-1.44-.36-.52-.69-1.06-.94-1.64.85.92,1.72,1.78,2.69,2.49.27.19.54.37.82.54-.27-.32-.52-.66-.74-1.01-.34-.55-.61-1.13-.83-1.73-.21-.6-.37-1.21-.45-1.84.57,1.12,1.17,2.18,1.91,3.13.19.23.38.47.58.69-.05-.11-.11-.22-.15-.33-.2-.49-.34-1-.43-1.51-.09-.52-.14-1.05-.07-1.6.32.45.57.91.79,1.37.23.46.42.92.61,1.39.11.28.21.57.32.85-.09-.42-.16-.84-.19-1.26-.04-.54-.03-1.09.03-1.63,0-.08.03-.16.04-.24-.25-2.02-.44-4.05-.53-6.09-.03-.76-.04-1.52-.05-2.29-.26.08-.52.15-.79.19-.33.12-.67.21-1.03.23-.59.03-1.18-.06-1.72-.29-.53-.22-1.01-.56-1.41-.95-.38-.41-.74-.86-.87-1.41.26.48.65.86,1.08,1.17.42.32.89.56,1.37.72,0,0,.01,0,.02,0-.47-.29-.88-.67-1.21-1.1-.32-.46-.62-.96-.67-1.51.19.51.53.94.9,1.31.37.37.8.68,1.26.9.4.18.82.29,1.24.33-.1-.05-.21-.1-.31-.15-.54-.31-1.01-.75-1.36-1.25-.36-.5-.61-1.06-.79-1.62-.17-.58-.28-1.16-.31-1.74.17.56.34,1.12.6,1.63.24.52.53,1.01.89,1.43.36.42.78.78,1.27,1.02.04.02.08.03.12.05-.34-.4-.6-.86-.76-1.34-.19-.53-.3-1.07-.35-1.61-.04-.54-.05-1.08,0-1.62.09.53.17,1.06.3,1.57.13.51.29,1.01.51,1.48.22.46.49.9.84,1.24.22.23.5.42.78.54-.17-.84-.24-1.68-.28-2.52-.02-.98-.01-1.95.16-2.95.33.96.44,1.95.48,2.93.02.84-.02,1.68-.19,2.52.07-.04.13-.09.2-.13.02-2.65.2-5.3.68-7.91-.4,2.53-.52,5.08-.48,7.63.15-.61.32-1.2.49-1.79.26-.87.5-1.72.81-2.62.2.94.06,1.9-.2,2.8-.13.43-.3.84-.5,1.24.47-.44.9-.93,1.28-1.45.68-.97,1.28-2.03,1.55-3.22,0,.62-.15,1.22-.34,1.81-.21.58-.47,1.15-.8,1.68-.2.32-.42.63-.66.93.31-.25.61-.52.89-.81.81-.87,1.55-1.83,1.98-2.98-.09.61-.32,1.19-.59,1.75-.28.55-.63,1.07-1.02,1.55-.33.4-.7.77-1.1,1.11.47-.19.92-.4,1.34-.68.54-.36,1.02-.8,1.39-1.34.38-.53.61-1.16.71-1.83.05.68-.12,1.37-.43,2-.33.62-.81,1.16-1.37,1.58-.24.18-.49.34-.76.49.31-.1.62-.22.91-.36.58-.28,1.12-.65,1.56-1.13.45-.47.76-1.07.96-1.71-.05.67-.31,1.34-.71,1.92-.41.57-.97,1.03-1.58,1.38-.61.35-1.28.58-1.96.74-.6.12-1.21.17-1.83.13.03.76.06,1.52.11,2.27.11,1.65.3,3.29.52,4.92.02-.06.03-.13.06-.19.19.54.29,1.07.37,1.6.09.53.14,1.06.17,1.58.02.35.03.69.03,1.04,0,.02,0,.04.01.06.07-.36.14-.71.21-1.07.2-1.1.38-2.22.61-3.34.15,1.14.17,2.28.11,3.42-.02.39-.07.78-.11,1.17.17-.36.32-.74.46-1.12.36-1.07.64-2.2.91-3.34.11,1.17.04,2.36-.21,3.54-.02.13-.07.25-.1.37.06-.13.12-.26.17-.4.21-.51.38-1.04.56-1.59.17-.55.33-1.11.54-1.69.19.59.23,1.21.19,1.83-.02.39-.1.77-.2,1.15.13-.2.26-.39.38-.59.3-.47.59-.96.95-1.45.02.61-.08,1.19-.27,1.76-.08.25-.19.5-.3.74.24-.28.47-.57.69-.88.41-.57.77-1.17,1.08-1.82-.1.72-.36,1.41-.67,2.06-.32.66-.71,1.28-1.19,1.85-.17.21-.38.41-.57.6.18-.08.36-.16.53-.25.6-.33,1.17-.72,1.72-1.16.55-.43,1.06-.92,1.53-1.46-.29.66-.73,1.25-1.21,1.8-.49.54-1.04,1.04-1.65,1.45-.61.43-1.29.76-2.04.98-.38.1-.77.15-1.18.15-.16,0-.3-.02-.45-.04.33,1.58.68,3.15,1.08,4.72.22.9.46,1.79.7,2.68l.18.63c0-.27.01-.54.04-.8.06-.68.16-1.35.38-2.01.18.67.29,1.34.37,2,.09.66.15,1.32.19,1.98.04.66.07,1.31.09,1.97.02.04.03.08.05.12,0,0,0,0,0-.01.15-.67.26-1.36.38-2.05.23-1.38.42-2.77.67-4.17.14,1.42.14,2.84.06,4.25-.04.69-.12,1.38-.22,2.06,0-.01.02-.03.02-.04.33-.6.58-1.26.81-1.92.25-.77.46-1.56.65-2.36,0-.07-.01-.13-.02-.19-.1-2.36.58-4.7,1.8-6.61-.38,1.07-.68,2.16-.82,3.26-.16,1.1-.16,2.2-.03,3.28.03.23.09.46.13.69l.54-1.97c.18.74.22,1.5.15,2.26-.04.47-.13.94-.26,1.4.03.09.06.18.09.27.16-.25.32-.49.48-.75.03-.53.09-1.05.19-1.57.19-1.01.53-1.98,1.01-2.89.48-.9,1.1-1.73,1.88-2.38-.35.96-.68,1.85-.96,2.76-.28.91-.5,1.82-.68,2.75-.11.57-.2,1.13-.28,1.71.08-.11.17-.21.24-.32.5-.72.94-1.48,1.29-2.3-.15.88-.48,1.73-.88,2.54-.24.46-.51.91-.81,1.34-.04.39-.08.78-.11,1.18.12-.07.24-.15.36-.23.1-.26.19-.51.3-.77.39-.84.82-1.67,1.34-2.44,1.02-1.54,2.28-2.93,3.78-3.98-1.12,1.43-2.11,2.92-2.92,4.48-.19.38-.38.77-.56,1.15.41-.39.81-.79,1.18-1.24-.38.81-.94,1.54-1.54,2.21-.03.03-.06.05-.08.08-.03.07-.06.13-.09.2,0,0,0,.02-.01.03.57-.56,1.17-1.1,1.77-1.62.64-.55,1.29-1.08,1.97-1.57.68-.49,1.39-.96,2.15-1.33,0,0-.01.01-.02.02.7-.48,1.41-.96,2.12-1.43-.01-.02-.03-.05-.04-.07-.65-.71-1.13-1.54-1.49-2.41-.39-.92-.6-1.91-.71-2.89-.19-1.97.1-3.94.77-5.75-.23,1.91-.3,3.81.02,5.64.08.47.18.92.32,1.37-.02-.44,0-.88.02-1.32.17-1.97.81-3.86,1.79-5.52-.57,1.84-.98,3.69-.99,5.55-.02.93.09,1.85.29,2.73.05.21.13.4.19.6,0-.19,0-.37,0-.55.02-.79.15-1.59.36-2.35.21-.77.51-1.52.92-2.21.4-.69.9-1.33,1.53-1.82-.3.74-.6,1.43-.85,2.14-.25.71-.48,1.42-.68,2.14-.09.32-.16.65-.24.98.1-.27.2-.54.33-.8.35-.72.78-1.4,1.3-2,.52-.61,1.13-1.15,1.83-1.52-.43.67-.85,1.31-1.22,1.96-.37.65-.72,1.31-1.05,1.99-.43.87-.81,1.77-1.18,2.68.84-.63,1.67-1.28,2.47-1.96,1.13-.98,2.25-1.98,3.15-3.21-.29.71-.71,1.36-1.17,1.97-.46.61-.97,1.19-1.51,1.74-.18.18-.38.35-.56.53.87-.57,1.74-1.15,2.58-1.75,1-.72,1.97-1.47,2.88-2.28.89-.78,1.71-1.65,2.54-2.52h0c-.12-.14-.22-.28-.33-.42-.65-.55-1.19-1.2-1.62-1.92-.48-.79-.79-1.65-1.02-2.53-.43-1.76-.42-3.59-.04-5.31.06,1.76.26,3.48.81,5.08.1.32.23.63.36.93-.05-.31-.1-.61-.12-.92-.11-1.81.23-3.61.91-5.23-.25,1.74-.36,3.47-.12,5.15.11.84.33,1.65.63,2.42.05.12.11.23.16.34-.02-.1-.04-.2-.06-.31-.09-.72-.09-1.46,0-2.18.09-.72.27-1.44.55-2.12.28-.68.65-1.32,1.17-1.84-.16.72-.32,1.39-.45,2.06-.13.67-.23,1.34-.32,2.02-.02.13-.02.25-.04.37.02-.08.04-.16.06-.24.22-.7.52-1.37.92-1.99.39-.62.88-1.18,1.48-1.61-.29.68-.57,1.31-.82,1.95-.24.64-.47,1.28-.67,1.93-.26.8-.48,1.62-.7,2.46.64-.65,1.28-1.32,1.89-2.01.9-1.03,1.78-2.08,2.45-3.3-.16.68-.45,1.33-.78,1.95-.28.53-.61,1.03-.95,1.52,1.69-1.95,3.3-3.96,4.84-6.04-.02,0-.03-.01-.05-.02-.76-.13-1.46-.57-1.94-1.15-.51-.6-.8-1.32-.98-2.04-.17-.73-.22-1.48-.15-2.21.09-.72.27-1.47.71-2.06-.3.66-.39,1.37-.37,2.07.01.7.12,1.4.32,2.06.15.48.37.93.64,1.34-.21-.54-.3-1.1-.33-1.66-.03-.75.06-1.49.27-2.2.22-.7.54-1.4,1.08-1.89-.42.59-.63,1.28-.75,1.97-.12.69-.15,1.4-.07,2.08.07.68.26,1.35.59,1.92.15.26.33.48.54.68-.05-.27-.08-.54-.1-.82-.04-.59.02-1.17.13-1.74.22-1.15.7-2.21,1.33-3.16-.44,1.05-.76,2.13-.87,3.22-.05.51-.06,1.02-.02,1.52.08-.54.23-1.07.42-1.58.43-1.08,1.1-2.04,1.9-2.85-.63.95-1.14,1.95-1.46,3-.16.53-.26,1.06-.31,1.6,0,.03,0,.07,0,.1.2-.5.45-.99.71-1.46.54-.91,1.17-1.8,2.04-2.46-.46.97-.97,1.87-1.48,2.77-.4.67-.81,1.34-1.26,1.99,0,.07.02.14.02.21.24-.33.49-.65.72-.99,1.43-2.02,2.79-4.09,4.17-6.14.2-.3.41-.59.61-.88-.43-.15-.83-.39-1.17-.69-.89-.35-1.64-1.03-2.04-1.88-.28-.57-.41-1.2-.38-1.83.04-.62.23-1.22.57-1.71-.21.56-.31,1.14-.25,1.71.05.57.23,1.11.51,1.58.16.26.35.5.57.71-.06-.15-.12-.31-.16-.47-.17-.61-.18-1.26-.03-1.86.16-.6.46-1.16.89-1.57-.31.51-.52,1.06-.57,1.63-.06.56.01,1.13.2,1.65.19.52.49.99.88,1.37.02.02.05.03.07.06-.13-.24-.22-.49-.3-.74-.15-.54-.2-1.1-.14-1.65.11-1.1.56-2.1,1.15-2.96-.19.49-.37.98-.48,1.48-.12.5-.19,1.01-.19,1.5,0,.5.07.99.22,1.45.04.13.11.24.17.37-.02-.5.03-1,.17-1.47.15-.53.4-1.02.68-1.47.3-.44.63-.86,1.01-1.23-.28.45-.55.89-.75,1.37-.21.47-.38.95-.48,1.44-.09.49-.12.99-.05,1.47.02.11.05.21.08.32.32-.61.66-1.19.99-1.77.46-.78.88-1.55,1.38-2.37,0,.96-.36,1.87-.82,2.69-.24.4-.51.79-.82,1.14-.19.22-.41.43-.64.62.18,0,.35-.01.53-.03.96-1.35,1.97-2.68,3.08-3.92-1.05,1.25-2.01,2.56-2.93,3.9.04,0,.09-.01.13-.02.33-.39.67-.78,1-1.16.6-.68,1.16-1.36,1.8-2.06-.19.94-.71,1.77-1.32,2.48-.16.18-.36.34-.54.51.33-.12.65-.26.95-.45.91-.59,1.61-1.53,1.99-2.61-.07.58-.28,1.13-.57,1.64-.29.51-.68.98-1.16,1.35-.66.52-1.46.81-2.28.94-.02,0-.04.02-.05.03.08.04.17.08.25.12.82.09,1.66.02,2.43-.3,1.01-.41,1.88-1.2,2.45-2.19-.18.55-.49,1.05-.87,1.5-.38.45-.86.83-1.39,1.1-.33.17-.68.28-1.04.36.42.06.84.08,1.27.01.69-.09,1.36-.37,1.97-.76.61-.38,1.15-.9,1.65-1.45-.37.65-.86,1.24-1.45,1.73-.59.49-1.3.85-2.08,1.01-.77.15-1.59.11-2.34-.12-.05-.01-.1-.04-.15-.06.79.55,1.67.93,2.62.97.7.04,1.41-.1,2.08-.37.68-.26,1.3-.66,1.89-1.11-.49.56-1.08,1.05-1.75,1.42-.67.36-1.44.59-2.23.6-.79,0-1.58-.2-2.27-.56-.67-.34-1.26-.81-1.78-1.33,0,0-.01,0-.02,0-1.52,2.3-2.95,4.66-4.5,6.94.29-.27.58-.55.88-.81.83-.69,1.69-1.34,2.68-1.84-.66.89-1.45,1.63-2.27,2.33-.62.51-1.28.98-1.97,1.41.79-.12,1.56-.42,2.27-.84.98-.6,1.87-1.38,2.63-2.28-.28.53-.64,1-1.03,1.46-.4.45-.84.86-1.34,1.21-.3.22-.64.41-.99.57.38-.07.76-.16,1.12-.3,1.07-.4,2.09-1,3.01-1.74-.37.47-.82.86-1.29,1.24-.47.37-.99.69-1.54.94-.41.2-.86.33-1.32.43.51.03,1.02.02,1.53-.06.66-.1,1.32-.28,1.96-.51.65-.22,1.27-.53,1.88-.85-.54.45-1.13.82-1.75,1.15-.63.32-1.3.57-2,.72-.36.08-.73.13-1.1.15.37.07.74.12,1.11.13.67.03,1.35-.03,2.02-.14.68-.1,1.34-.28,2.01-.48-.61.34-1.26.6-1.94.8-.68.2-1.38.32-2.1.34-.72.02-1.44-.06-2.14-.27-.59-.19-1.15-.43-1.67-.81-.01,0-.02-.01-.04-.02-1.48,2.1-3.03,4.13-4.67,6.11.91-.74,1.78-1.5,2.53-2.43-.28.64-.68,1.23-1.12,1.78-.44.55-.92,1.07-1.42,1.55-.46.44-.94.87-1.44,1.27.04,0,.08-.01.12-.02.79-.19,1.57-.45,2.31-.81.74-.35,1.44-.79,2.1-1.3.67-.5,1.26-1.1,1.83-1.73-.85,1.47-2.1,2.75-3.61,3.63-.64.37-1.33.67-2.05.9.71-.06,1.43-.16,2.12-.35.79-.21,1.56-.52,2.3-.9.74-.38,1.44-.86,2.11-1.38-1.1,1.29-2.55,2.33-4.2,2.93-.7.25-1.44.42-2.18.52,0,0,.01,0,.02,0,1.06.15,2.15.14,3.21-.07,1.06-.19,2.1-.56,3.04-1.11.95-.55,1.77-1.32,2.43-2.23-.46,1.04-1.22,1.95-2.14,2.66-.93.71-2.02,1.19-3.16,1.48-.93.22-1.9.31-2.87.25.86.24,1.76.37,2.67.36,1.08,0,2.17-.17,3.19-.55,1.03-.37,1.98-.98,2.79-1.76-.64.94-1.55,1.7-2.58,2.23-1.04.53-2.2.81-3.37.89-1.17.06-2.36-.06-3.49-.43-.92-.3-1.82-.75-2.56-1.45-.81.88-1.61,1.77-2.51,2.59-.82.76-1.69,1.47-2.57,2.14-.15.15-.29.3-.44.44-.57.52-1.17,1-1.8,1.44-.61.43-1.24.84-1.88,1.22.09,0,.19,0,.28,0,.89-.08,1.77-.25,2.63-.52.86-.27,1.69-.64,2.48-1.08.8-.45,1.53-1,2.25-1.6-1.17,1.44-2.72,2.62-4.5,3.33-.86.34-1.76.58-2.69.7,0,0,.01,0,.02,0,.89.08,1.79.08,2.68-.04.89-.11,1.78-.32,2.64-.62.87-.29,1.69-.71,2.5-1.17-1.41,1.21-3.15,2.09-5.02,2.47-.87.17-1.77.24-2.67.21.08.03.16.06.24.08,1.12.33,2.32.49,3.5.44,1.19-.04,2.37-.28,3.48-.74,1.11-.45,2.12-1.16,2.98-2.06-.67,1.05-1.64,1.9-2.75,2.52-1.12.61-2.37.96-3.65,1.08-1.19.1-2.41.01-3.58-.29,1.02.5,2.12.85,3.26,1.01,1.17.17,2.38.15,3.55-.11,1.18-.24,2.3-.76,3.3-1.49-.84.91-1.96,1.58-3.16,1.98-1.21.4-2.51.52-3.78.41-1.27-.13-2.53-.45-3.69-1.02-.99-.49-1.93-1.16-2.63-2.09-2.03,1.39-4.02,2.83-5.86,4.43-.81.7-1.59,1.44-2.34,2.21.26-.04.52-.08.78-.14.84-.17,1.66-.43,2.48-.71,1.63-.59,3.19-1.4,4.75-2.3-1.22,1.32-2.71,2.41-4.36,3.21-.69.35-1.42.61-2.16.84,0,0,.02,0,.02,0,1.03.15,2.07.26,3.11.25,2.09.02,4.18-.34,6.18-1.19-.84.69-1.83,1.21-2.88,1.58-1.05.37-2.15.58-3.26.68-.7.05-1.41.04-2.11,0,1,.27,2.03.44,3.07.51-.02-.06-.05-.13-.06-.19.03.07.07.13.11.19.02,0,.04,0,.06,0,.21.01.41,0,.62,0-.05-.17-.11-.35-.15-.52.09.18.18.35.27.52.25,0,.49,0,.74,0-.05-.18-.08-.36-.14-.55.1.18.18.36.26.54.22-.01.43-.04.65-.06-.04-.24-.1-.47-.17-.71.12.22.21.45.3.69.15-.02.3-.04.46-.06,0-.23-.01-.47-.02-.71.1.21.16.45.22.68.17-.03.34-.03.51-.07,0,0,0,0,0,0,0-.2,0-.4,0-.61.08.18.14.37.19.56,1.11-.23,2.2-.6,3.26-1.07-.86.65-1.83,1.16-2.85,1.55-.02.48-.15.96-.42,1.38-.08.12-.17.24-.27.34.18-.1.36-.2.51-.34.21-.19.39-.43.52-.69.13-.27.2-.56.25-.86.04.61-.15,1.26-.6,1.72-.22.23-.49.42-.78.55-.25.12-.51.19-.78.24-.03.02-.07.03-.1.04.75,2.27,1.43,4.58,2.03,6.93,0-.09,0-.19,0-.29-.02-.57-.07-1.13-.05-1.78.23.24.38.52.49.82.03.09.05.18.08.27.03-.37.06-.75.08-1.17.23.25.36.57.44.9.08.32.09.67.03,1.01-.02.15-.06.29-.11.43.06-.1.12-.19.18-.29.33-.66.46-1.44.49-2.23.2.73.22,1.54-.03,2.31.05-.06.1-.11.14-.18.38-.57.55-1.29.57-2.03.1.36.14.74.11,1.12-.02.38-.13.77-.3,1.12-.18.35-.42.68-.72.94-.25.22-.53.4-.85.54-.04.03-.09.07-.14.1.24,1.01.47,2.02.68,3.04.21,1.01.38,2.02.56,3.04.36.53.6,1.16.68,1.8.06.41.06.83.02,1.25,0,.02,0,.03,0,.05,0-.02,0-.03.01-.04.08-.34.15-.68.21-1.03.08-.41.14-.83.22-1.27-.11-.35-.2-.71-.26-1.08.1.27.2.53.32.78.04-.21.07-.41.13-.63.22.35.33.74.38,1.13.02.12.02.23.02.35.14-.44.26-.9.4-1.41.04.06.05.13.07.19.03-1.24.37-2.45.97-3.5-.27,1.49-.49,2.94-.3,4.36.02.13.05.26.08.39.02-.06.05-.12.07-.17-.06-.84,0-1.68.15-2.5,0,.58.05,1.16.12,1.73.05-.16.1-.32.14-.48.02.33,0,.67-.05,1,.05.31.09.62.17.92,0,0,0,0,0,0,.3-.48.53-1.04.68-1.62,0,.06,0,.13,0,.19.18-1.35.6-2.66,1.27-3.84-.26,1.46-.57,2.86-.7,4.28-.07.71-.09,1.42-.06,2.13.02.27.05.54.09.81,0-.19,0-.37.03-.56.07-.62.19-1.23.36-1.83.17-.6.39-1.17.63-1.73.26-.56.53-1.1.86-1.62-.2.58-.41,1.14-.57,1.73-.17.58-.32,1.16-.45,1.74-.11.59-.21,1.17-.24,1.76-.03.44-.02.89.03,1.32.01,0,.02,0,.03-.01.09-.35.19-.69.3-1.03.2-.58.41-1.14.65-1.7.24-.56.5-1.1.77-1.64.29-.53.57-1.06.89-1.57l-.61,1.7-.59,1.69c-.16.49-.32.98-.47,1.47,1.22-1.57,2.27-3.31,3.21-5.08,1.1-2.06,2.15-4.17,3.38-6.17-.06,0-.11,0-.17,0-.01,0-.02-.02-.04-.02-.02,0-.03,0-.04,0-.39-.19-.72-.43-1.04-.69-.31-.27-.6-.58-.83-.92-.48-.68-.72-1.52-.64-2.31.08.39.17.77.35,1.12.16.35.37.67.61.96.22.27.49.52.76.74-.14-.2-.29-.39-.4-.6-.35-.69-.49-1.48-.42-2.22.07.37.15.73.29,1.06.13.34.28.66.47.97.09.14.2.26.3.39-.03-.25-.04-.5-.02-.75.05-.74.3-1.44.68-2.04-.21.68-.34,1.37-.32,2.05.01.34.06.67.14,1,.05.17.1.34.17.51.01,0,.02.02.03.03,0-.14,0-.27,0-.41.02-.34.08-.67.17-.99.17-.65.45-1.25.8-1.81-.19.63-.35,1.25-.45,1.88-.04.31-.08.63-.08.94,0,.08,0,.16.01.24.09-.09.19-.18.27-.27.26-.28.48-.61.69-.94.4-.68.67-1.43.91-2.21-.04.81-.23,1.63-.58,2.38-.17.38-.4.74-.67,1.07-.08.1-.17.18-.26.27.19-.09.38-.19.56-.3.35-.22.65-.5.93-.81.55-.62.91-1.41,1.15-2.25-.05.87-.33,1.74-.86,2.47-.21.3-.47.55-.75.77.22-.06.43-.14.63-.23.39-.17.75-.41,1.06-.7.32-.28.57-.64.8-1.03-.12.42-.34.83-.63,1.19-.3.35-.66.65-1.06.87-.35.21-.74.33-1.13.43.06,0,.12.02.18.03.43.05.87.04,1.3-.02.43-.07.84-.21,1.19-.47.37-.24.64-.6.87-1-.13.44-.38.86-.72,1.18-.36.32-.8.53-1.27.65-.46.13-.94.14-1.42.11-.25-.02-.5-.05-.75-.1.08.03.15.07.22.1.29.09.58.15.89.17.61.06,1.25.02,1.93.08-.51.27-1.07.4-1.65.4.03.01.06.02.1.04.84.28,1.72.37,2.67.36-.87.38-1.9.4-2.82.1-.8-.27-1.52-.75-2.03-1.4-1.15,2.03-2.13,4.16-3.16,6.26-.87,1.76-1.81,3.53-2.97,5.15.27-.19.53-.39.78-.6.4-.34.78-.72,1.13-1.12.36-.4.68-.83.99-1.28-.38,1.02-.99,1.98-1.78,2.77-.39.4-.83.75-1.28,1.07-.25.16-.5.32-.76.46h0s.01,0,.02,0c.44-.04.9-.1,1.33-.21.59-.12,1.16-.31,1.71-.55.55-.24,1.07-.54,1.54-.92.48-.36.88-.83,1.23-1.34-.22.58-.58,1.11-1.01,1.58-.44.46-.97.84-1.53,1.14-.49.26-1.01.45-1.53.6.43.03.85.03,1.28-.03.64-.08,1.26-.26,1.85-.54.59-.27,1.13-.66,1.6-1.13-.36.57-.87,1.04-1.44,1.42-.58.36-1.24.62-1.92.76-.19.04-.38.05-.56.07.43.07.87.12,1.31.14.71.03,1.42-.02,2.11-.2.69-.17,1.34-.5,1.86-1.02-.4.62-1.06,1.06-1.76,1.33-.71.26-1.46.37-2.21.4-.75.02-1.5-.06-2.23-.2-.71-.15-1.41-.35-2.08-.63,0,0,0,0,0,0,0,0,0,0,0,0-.02,0-.03-.01-.04-.02h0s-.02-.02-.02-.02l-.06-.04c-.28.3-.57.6-.88.89-1.05.99-2.24,1.83-3.51,2.53.05.84.09,1.68.12,2.53.06.27.1.56.11.84.02.39-.02.79-.09,1.18v.14c.12-.34.23-.69.32-1.04.23-.77.39-1.56.7-2.43.21.42.29.87.31,1.32,0,.13,0,.27-.02.4.2-.49.4-.99.61-1.55.2.44.24.93.2,1.4-.04.47-.18.95-.39,1.38-.09.19-.21.36-.34.53.13-.1.25-.21.37-.32.74-.75,1.24-1.75,1.64-2.81-.05,1.08-.38,2.19-1.05,3.12.09-.06.19-.11.27-.18.77-.6,1.3-1.5,1.65-2.5-.03.53-.13,1.06-.34,1.56-.2.51-.5.99-.89,1.39-.39.4-.86.74-1.38.96-.44.19-.89.31-1.38.36-.08.03-.16.06-.25.08-.02,0-.03,0-.04,0-.02,1.06-.08,2.12-.15,3.18.58-.02,1.16-.05,1.74-.1-.57.17-1.16.31-1.76.43-.04.62-.1,1.23-.16,1.84.48-.01.96-.03,1.44-.07-.36.11-.72.2-1.09.28.34.99.38,2.11.11,3.16-.13.55-.34,1.08-.6,1.58,0,.02-.02.03-.03.05.01-.01.02-.03.03-.04.28-.39.53-.79.79-1.19.51-.81.96-1.66,1.6-2.55.1.55.04,1.09-.08,1.61-.04.15-.1.3-.15.45.39-.49.78-1,1.21-1.58.08.57-.03,1.14-.23,1.67-.2.53-.51,1.03-.9,1.45-.17.18-.36.34-.56.5.18-.08.36-.15.53-.25,1.09-.62,2-1.6,2.8-2.68-.41,1.22-1.15,2.38-2.22,3.23.12-.04.25-.07.36-.12,1.08-.44,1.98-1.3,2.71-2.32-.2.6-.5,1.17-.9,1.68-.39.52-.9.96-1.48,1.3-.58.33-1.23.56-1.9.65-.59.08-1.17.08-1.78-.03-.08,0-.15.01-.23,0-.17-.02-.32-.05-.45-.09-.29,1.33-.63,2.65-1.03,3.94.09,1.25-.23,2.55-.86,3.69-.31.59-.71,1.12-1.16,1.62-.03.04-.07.07-.11.11-.06.13-.13.25-.2.37.14-.11.29-.21.42-.32.45-.36.87-.74,1.29-1.14.83-.8,1.59-1.67,2.51-2.55-.08.64-.33,1.23-.63,1.78-.2.36-.45.69-.71,1,.79-.57,1.54-1.2,2.33-1.94-.11.66-.43,1.26-.82,1.8-.4.53-.89,1.01-1.46,1.37-.48.31-1.02.55-1.58.69.52-.03,1.04-.09,1.55-.24.72-.21,1.42-.53,2.08-.94.67-.4,1.29-.89,1.89-1.41-.9,1.32-2.15,2.46-3.72,3.09-.1.04-.2.07-.3.11.33,0,.67-.02,1-.08.69-.11,1.36-.35,1.99-.69.63-.34,1.23-.78,1.79-1.27-.42.61-.94,1.17-1.55,1.63-.61.47-1.32.82-2.07,1.03-.76.2-1.56.27-2.35.17-.7-.09-1.36-.25-2.03-.56-.09-.02-.18-.03-.27-.06-.06-.02-.11-.05-.16-.07-.56.91-1.18,1.79-2.04,2.5,0,0-.02.01-.03.02-.41.32-.96.16-1.21-.36-.25-.52-.13-1.2.29-1.52.51-.4,1-1,1.44-1.66-.54-.44-1.02-.98-1.4-1.57-.5-.8-.82-1.69-.97-2.59-.15-.9-.15-1.81-.05-2.69.1-.88.29-1.75.57-2.58-.05.87-.1,1.74-.06,2.6.03.81.13,1.61.32,2.38.05-.77.18-1.52.36-2.25.21-.81.45-1.59.72-2.38-.04.83-.14,1.65-.21,2.47-.08.81-.13,1.62-.08,2.4.05.78.2,1.53.56,2.17.06.11.13.21.2.32,0-.04-.02-.07-.02-.11-.12-.68-.16-1.38-.13-2.06.03-.69.14-1.37.31-2.02.18-.66.41-1.29.73-1.88-.09.67-.18,1.32-.21,1.97-.04.6-.04,1.2,0,1.79.12-.59.26-1.18.45-1.76.21-.62.44-1.23.75-1.8-.08.65-.17,1.28-.24,1.91-.07.63-.13,1.26-.17,1.89-.03.47-.05.95-.07,1.42.24-.47.46-.96.67-1.45.92-2.16,1.64-4.49,2.2-6.87,0-.02,0-.04.01-.06-.44-.24-.87-.51-1.23-.86-.57-.56-1.03-1.23-1.33-1.95-.31-.71-.49-1.46-.58-2.21-.04-.33-.05-.65-.06-.98-.37-.09-.74-.19-1.1-.32-1.32-.44-2.56-1.11-3.71-1.91-.3.18-.6.35-.91.51-.64.34-1.31.63-1.99.88-.11.36-.19.72-.3,1.07-1.08,3.32-2.78,6.47-4.91,9.23.16.75.33,1.5.46,2.26.42,2.48.77,5.07.41,7.77v.02s0,.02,0,.03c-.11.7-.77,1.17-1.47,1.06-.7-.11-1.17-.77-1.06-1.47.36-2.22.12-4.62-.24-7.01-.37-2.39-.89-4.79-1.46-7.18-.36-1.39-.65-2.81-.9-4.25-.07.02-.14.04-.21.05-.22.03-.43.05-.64.05h-.11c-1.13.15-2.25.24-3.38.24-1.45,0-2.91-.13-4.33-.42-1.42-.29-2.83-.77-4.1-1.49-.92-.52-1.77-1.19-2.46-1.98-.1.08-.19.16-.29.24-.6.44-1.26.82-1.96,1.09-.69.28-1.38.49-2.17.57h0c.45,1.29.99,2.54,1.67,3.73.95,1.65,2.13,3.17,3.5,4.49.47.45.97.87,1.48,1.29-.3-.81-.51-1.65-.53-2.52.53.84,1.02,1.65,1.54,2.41.47.7.98,1.36,1.5,2,.17.13.35.25.52.38.6.44,1.21.88,1.81,1.33-.41-.69-.82-1.39-1.21-2.1-.49-.88-.93-1.77-1.37-2.68-.43-.91-.84-1.82-1.19-2.76l1.69,2.47,1.67,2.47,1.22,1.81c-.21-.82-.43-1.63-.65-2.45-.29-.99-.57-1.98-.9-2.96-.32-.98-.67-1.95-1.04-2.93.59.86,1.1,1.78,1.57,2.71.46.94.89,1.9,1.26,2.88.35.9.65,1.81.93,2.72,0-.04,0-.07,0-.11-.03-1.18-.15-2.36-.35-3.53-.2-1.17-.48-2.33-.85-3.47-.36-1.14-.81-2.26-1.31-3.38.76.96,1.38,2.02,1.92,3.14.53,1.12.94,2.29,1.25,3.49.27,1.11.45,2.25.53,3.39.27-.98.45-1.98.51-3,.06-1.15-.02-2.32-.26-3.47-.23-1.15-.63-2.28-1.12-3.39.75.95,1.34,2.04,1.75,3.21.41,1.17.63,2.41.66,3.66.03,1.25-.13,2.51-.46,3.72,0,0,0,.02,0,.02.22-.5.42-1,.6-1.52.28-.83.53-1.69.76-2.57.23-.88.44-1.78.72-2.7.24.93.31,1.89.25,2.85-.05.95-.22,1.92-.54,2.84-.32.92-.79,1.8-1.42,2.56-.12.14-.25.27-.37.4.05-.04.11-.09.17-.13.61-.52,1.16-1.09,1.66-1.69.5-.61.97-1.25,1.4-1.94l1.31-2.16c.04.89-.12,1.76-.42,2.59-.3.83-.74,1.63-1.32,2.32-.58.69-1.29,1.28-2.09,1.7-.59.31-1.23.54-1.89.61,1.3,1.27,2.37,2.44,3.21,4.86.52,1.49-1.12,1.48-1.48.48-.81-2.26-1.58-3.18-2.73-4.39-1.01.6-2.05,1.03-3.14,1.38-1.35.39-2.75.63-4.15.61-1.4,0-2.79-.23-4.11-.65-1.31-.44-2.55-1.06-3.65-1.86,1.24.54,2.51.99,3.81,1.25,1.29.27,2.61.35,3.91.27.97-.07,1.93-.23,2.86-.48-1.04.02-2.08-.04-3.09-.22-2.63-.43-5.12-1.51-7.23-3.03,1.2.52,2.4.99,3.63,1.33,1.23.36,2.48.59,3.73.71,1.25.11,2.52.12,3.75-.03.04,0,.08-.01.12-.02-1.33-.29-2.62-.7-3.86-1.26-.04-.02-.06-.04-.1-.05-.02,0-.03-.01-.05-.02-1.21-.54-2.35-1.23-3.38-2.05-1.02-.84-1.93-1.83-2.53-2.98.1.12.21.24.32.35-.05-.09-.12-.18-.17-.28,1.23,1.49,2.79,2.56,4.47,3.37.54.25,1.09.49,1.65.69.85.31,1.72.55,2.61.75-.81-.38-1.61-.81-2.34-1.35-.93-.7-1.78-1.55-2.43-2.53-.65-.98-1.1-2.11-1.17-3.26.57,1,1.22,1.87,1.95,2.65.73.78,1.55,1.48,2.41,2.12.59.44,1.2.86,1.83,1.26-.33-.31-.64-.63-.93-.98-.12-.14-.21-.3-.32-.45-1.22-.95-2.44-1.93-3.55-3.07-1.38-1.43-2.57-3.05-3.5-4.8-.68-1.28-1.21-2.61-1.63-3.98l-.09.02h-.03s0,0,0,0c-.02,0-.04,0-.06,0,0,0,0,0-.01,0,0,0,0,0-.01,0-.89.06-1.78.02-2.65-.09-.9-.13-1.8-.33-2.66-.66-.7-.27-1.37-.63-1.99-1.07-.01.34-.02.68-.06,1.01-.11.85-.3,1.7-.66,2.51-.34.81-.86,1.57-1.51,2.21-.42.39-.89.72-1.4.99,0,.02,0,.03.01.05.64,2.7,1.45,5.33,2.5,7.79.24.56.49,1.11.76,1.65-.02-.54-.04-1.07-.08-1.61-.05-.72-.12-1.43-.2-2.15-.07-.72-.18-1.43-.27-2.17.36.65.62,1.34.86,2.05.21.64.38,1.31.51,1.97.04-.66.04-1.33,0-2.01-.04-.74-.14-1.48-.24-2.23.36.67.63,1.39.83,2.14.2.74.32,1.52.35,2.3.04.78-.02,1.57-.15,2.34,0,.04-.02.08-.03.12.08-.12.16-.23.22-.36.4-.72.57-1.57.63-2.46.05-.89,0-1.81-.09-2.73-.08-.92-.19-1.85-.24-2.8.31.89.58,1.78.82,2.7.2.83.36,1.68.41,2.55.21-.87.33-1.78.36-2.7.04-.97,0-1.95-.06-2.95.32.94.53,1.92.65,2.92.11,1,.11,2.03-.06,3.05-.17,1.02-.54,2.03-1.1,2.94-.43.67-.97,1.27-1.59,1.78.51.75,1.06,1.43,1.64,1.88.47.36.62,1.14.32,1.73-.29.59-.91.77-1.38.4,0,0-.02-.02-.03-.02-.98-.82-1.68-1.81-2.32-2.84-.06.03-.12.05-.18.08-.11.03-.21.04-.31.07-.75.35-1.5.54-2.3.64-.89.11-1.8.03-2.66-.2-.86-.24-1.66-.64-2.35-1.17-.7-.52-1.28-1.16-1.76-1.85.63.56,1.31,1.05,2.03,1.44.72.38,1.48.66,2.26.78.38.07.76.09,1.13.09-.12-.04-.24-.08-.35-.12-1.78-.71-3.2-2.01-4.22-3.51.69.59,1.4,1.14,2.15,1.6.75.47,1.54.82,2.36,1.07.62.18,1.26.28,1.9.3-.68-.16-1.34-.44-1.92-.82-.64-.42-1.2-.95-1.65-1.56-.44-.61-.8-1.29-.93-2.04.9.84,1.75,1.56,2.65,2.2-.3-.36-.58-.73-.81-1.14-.34-.63-.62-1.3-.72-2.03,1.04,1,1.9,1.99,2.84,2.9.47.45.95.89,1.46,1.29.15.13.32.24.48.36-.07-.14-.15-.28-.22-.43-.04-.04-.08-.08-.12-.12-.51-.56-.96-1.17-1.31-1.83-.71-1.29-1.07-2.76-.97-4.19-.45-1.47-.84-2.96-1.17-4.47-.16.04-.32.07-.52.1-.09,0-.17,0-.26,0-.7.13-1.35.12-2.03.04-.76-.1-1.5-.36-2.16-.74-.66-.38-1.23-.89-1.68-1.48-.45-.58-.79-1.23-1.02-1.91.83,1.16,1.86,2.13,3.08,2.63ZM25.28,76.67c-.18.52-.4,1.02-.66,1.51-.07.13-.16.25-.23.38.34-.45.66-.92.9-1.42.04-.09.08-.19.12-.28-.04-.06-.09-.12-.13-.18ZM25.94,77.57c-.24.46-.53.89-.86,1.28.07.07.13.13.2.19.41-.27.81-.57,1.18-.9-.18-.19-.35-.38-.52-.58ZM29.48,78.41c-.54-.6-1.01-1.25-1.4-1.95-.31.6-.7,1.15-1.13,1.68.56.43,1.15.81,1.76,1.15,1.28.72,2.66,1.25,4.06,1.65-.02,0-.03-.01-.05-.02-1.2-.66-2.32-1.5-3.24-2.51ZM60.56,55.63c-.37.06-.74.08-1.11.02-.47-.08-.91-.27-1.29-.52-.39-.25-.72-.56-1.01-.89-.28-.34-.54-.7-.74-1.09.32.3.63.6.96.87.24.19.49.36.75.52-.19-.22-.36-.45-.51-.68-.22-.35-.43-.71-.61-1.08.3.28.58.59.86.88.28.29.56.58.87.81.28.22.58.38.9.47-.23-.16-.45-.32-.64-.52-.24-.25-.46-.51-.64-.8-.17-.29-.33-.6-.43-.92.23.25.45.49.68.72.14.13.28.25.43.37-.11-.16-.22-.32-.32-.49-.15-.29-.3-.58-.39-.89l.65.71c.21.23.43.46.65.68.17.17.35.32.52.48l-.2-.51c-.21-.53-.43-1.05-.68-1.58.23.19.42.41.6.64.07.1.13.2.2.3-.08-.39-.16-.79-.25-1.18-.03-.05-.05-.1-.08-.15.02.02.04.03.06.05-.34-1.56-.7-3.13-1.1-4.81,0,0,0,0-.01,0h-.01s0,0-.01,0,0,0-.02,0c-.74.08-1.48-.2-2.02-.66-.28-.23-.53-.5-.73-.79-.07-.1-.13-.21-.19-.31-.96-.04-1.91-.19-2.84-.41-1.24-.31-2.4-.75-3.57-1.4l-.06-.08c-.34.4-.68.81-1,1.23-.68.88-1.31,1.8-1.9,2.74.27.69.53,1.38.79,2.07.02.04.03.09.05.13.38.71.7,1.44.99,2.18.3.79.57,1.59.8,2.41.12.42.2.84.3,1.26.05-.35.11-.7.15-1.05.08-.89.15-1.79.17-2.69.02-.9,0-1.81-.04-2.73.29.87.48,1.78.62,2.7.13.92.2,1.85.2,2.77,0,.79-.04,1.58-.13,2.37.24-1.22.45-2.41.55-3.61.08-.95.11-1.89.05-2.85-.06-.95-.21-1.91-.41-2.92.68.78,1.14,1.75,1.4,2.76.26,1.02.33,2.08.24,3.12-.02.18-.06.35-.08.52.32-.95.61-1.91.81-2.89.21-1,.33-2.02.4-3.12.46,1,.63,2.12.6,3.23-.02.53-.08,1.06-.17,1.59.22-.56.42-1.13.54-1.72.22-1,.25-2.04.12-3.09.4.98.55,2.08.49,3.17-.07,1.09-.33,2.17-.74,3.18-.33.85-.79,1.63-1.28,2.39.43-.44.85-.89,1.23-1.37,1.28-1.63,2.25-3.53,2.56-5.68.12,1.08-.03,2.19-.34,3.25-.32,1.06-.81,2.07-1.42,3-.6.94-1.34,1.78-2.14,2.55-.69.64-1.44,1.21-2.3,1.69.57,2.51.97,5.06,1.19,7.64.29-.51.62-1.01.98-1.47.78-.97,1.7-1.82,2.73-2.49-.83.89-1.58,1.84-2.18,2.86-.6,1.02-1.07,2.11-1.38,3.23,0,.02,0,.04-.01.05.02.53.05,1.05.05,1.58,0,.08,0,.16,0,.24.33-.65.68-1.3,1.08-1.91.68-1.05,1.46-2.03,2.33-2.93.87-.89,1.82-1.69,2.86-2.37-.84.9-1.64,1.82-2.35,2.79-.72.97-1.37,1.98-1.94,3.03-.21.38-.4.77-.58,1.17-.08.47-.19.93-.32,1.39.38-.5.76-1.01,1.17-1.5.67-.81,1.39-1.59,2.14-2.34.75-.74,1.54-1.45,2.39-2.07-.67.81-1.32,1.63-1.95,2.46-.63.83-1.23,1.68-1.83,2.52-.38.56-.76,1.12-1.13,1.69.16-.09.32-.18.48-.26.12-.06.24-.1.36-.16l.3-.23c.8-1.13,1.52-2.33,2.19-3.59-.14.83-.36,1.64-.66,2.44l1.19-.9,2.42-1.81c-.64.78-1.33,1.52-2.04,2.25-.3.3-.62.59-.92.89.42-.14.85-.28,1.27-.4,0-.03-.02-.07-.02-.1.02.03.03.06.05.09.14-.04.28-.09.42-.13.17-.05.33-.1.49-.15,0-.02-.01-.05-.02-.07.01.02.02.05.04.07,1.2-.36,2.38-.74,3.5-1.22-.07-1.45-.19-2.89-.34-4.33-.39-.04-.78-.11-1.14-.25-.55-.23-1.04-.56-1.44-.97-.41-.4-.73-.87-1-1.36-.26-.49-.47-1-.62-1.53.31.45.61.9.95,1.31.24.3.5.57.78.83-.17-.32-.32-.64-.45-.97-.18-.49-.34-.97-.47-1.48.3.43.55.87.82,1.3.27.43.54.85.85,1.22.29.34.61.62.97.81-.23-.25-.46-.51-.65-.8-.23-.36-.42-.75-.57-1.15-.14-.4-.24-.81-.28-1.23.21.36.41.72.64,1.05.13.2.28.38.42.57-.09-.23-.19-.45-.25-.68-.11-.39-.21-.79-.24-1.19l.61,1.04c.2.34.41.67.62,1,.06.09.12.16.18.25-.22-1.67-.47-3.33-.78-4.97-.2-1.08-.4-2.1-.59-3.1ZM59.21,45.99s-.01.07-.02.11c.01-.03.03-.06.04-.1.09-.27.15-.55.18-.83.01-.09,0-.19.01-.28-.08.02-.17.03-.25.05,0,.06.03.12.04.17.03.29.03.58,0,.87ZM57.84,45.18s.04.08.06.12c.15.24.31.49.48.72.02.02.03.04.05.06-.05-.22-.11-.43-.16-.65-.03-.13-.04-.22-.04-.29-.13.02-.26.04-.39.05ZM56.15,45.27c-.1,0-.21,0-.31,0,.06.07.1.14.16.21.23.26.49.49.76.69.08.06.17.11.25.16-.05-.04-.1-.08-.15-.12-.26-.25-.47-.53-.66-.82-.02-.03-.03-.07-.06-.11ZM56.34,45.28c.21.26.44.51.7.72.24.2.51.37.8.48,0,0-.02-.02-.03-.02-.23-.21-.43-.45-.61-.7-.11-.16-.19-.33-.29-.5-.1,0-.2.02-.3.02-.09,0-.18,0-.27,0,0,0,0,0,0,.01ZM57.4,45.6c.19.23.39.44.62.63.12.11.24.2.37.29-.09-.11-.17-.22-.25-.33-.17-.25-.32-.51-.46-.77-.04-.07-.06-.14-.09-.21-.15.02-.3.02-.45.03.08.12.16.24.25.35ZM46.97,41.47c.14-.05.27-.11.41-.17-.02-.03-.04-.07-.06-.1-.11.1-.23.19-.35.28ZM42.28,58.25c-.01.07-.02.14-.04.21.1.25.19.5.27.75.23.05.46.12.7.16.79.12,1.58.16,2.37.15-.98-.16-1.95-.48-2.83-.97-.16-.09-.32-.19-.47-.29ZM60.42,72c.15.33.3.67.47.98.13.24.28.46.42.69-.07-.27-.16-.53-.21-.8-.06-.35-.11-.71-.13-1.07-.18.07-.37.13-.55.2ZM56.95,75.37c-.22.14-.46.25-.7.37-.05.06-.09.12-.14.18.6-.15,1.2-.32,1.79-.51.15-.05.29-.11.44-.16.05-.05.11-.1.16-.15.2-.21.4-.42.59-.65-.11-.18-.2-.36-.29-.54-.57.55-1.18,1.06-1.85,1.48ZM48.92,60.4c-.26.05-.52.12-.78.16-.56.3-1.13.58-1.73.8-1,.37-2.04.64-3.1.74-.11.01-.22.01-.33.02,0,.45-.03.91-.1,1.36-.2,1.12-.64,2.21-1.27,3.15-.02.04-.04.08-.07.11-.03.05-.06.1-.08.15-.04,1.81,0,3.63.1,5.44.13,2.13.34,4.26.64,6.37.32-1.08.61-2.18.84-3.29.24-1.16.44-2.33.57-3.51.14-1.18.19-2.37.2-3.58.29,1.17.42,2.39.46,3.61.03,1.22-.04,2.44-.2,3.65-.16,1.18-.4,2.36-.7,3.51.36-.42.71-.85,1.04-1.29.57-.8,1.1-1.64,1.54-2.54.36-.71.65-1.46.92-2.23h0c-.33-.85-.49-1.76-.5-2.65-.01-.89.12-1.78.45-2.61l.54,2.49c.19.8.42,1.57.71,2.31.2.51.43,1.02.69,1.51.02-.06.06-.11.08-.16-.24-.79-.35-1.61-.36-2.43,0-.98.15-1.95.41-2.88.21-.75.52-1.46.9-2.14-.17-2.03-.46-4.05-.85-6.07ZM41.6,66.62h0s0,0,0,0h0ZM49.45,76.59c.02-.09.02-.19.04-.28-.32-.19-.61-.42-.89-.68-.42,1.03-1,2.01-1.67,2.9-.45.6-.96,1.15-1.49,1.68,1.07-.7,2.07-1.5,2.95-2.42.38-.38.72-.79,1.06-1.2ZM46.95,73.24c-.23,1.77-.85,3.51-1.77,5.07-.32.55-.68,1.07-1.07,1.57.74-.6,1.44-1.25,2.08-1.96.7-.79,1.35-1.64,1.89-2.57.03-.06.06-.12.09-.18-.51-.57-.92-1.23-1.21-1.94ZM49,74.47s-.01.05-.02.07c.03.06.06.13.1.19.04.06.08.12.12.18-.07-.14-.14-.29-.19-.44ZM59.78,74.29c-.14-.34-.26-.68-.36-1.03-.05.06-.1.13-.15.19-.02.03-.06.05-.08.08.19.27.38.52.6.76ZM61.32,75.08s-.07.05-.1.07c.11.11.24.2.36.29-.09-.12-.18-.24-.26-.36ZM60.29,72.05c-.17.29-.35.57-.55.83.02.04.04.07.05.11.23.47.47.93.74,1.35.1-.05.2-.09.3-.14-.15-.34-.28-.69-.37-1.05-.09-.36-.14-.73-.16-1.1,0,0,0,0-.01,0ZM59.11,74.47c-.12.22-.25.43-.4.63.22-.08.45-.15.67-.24-.1-.13-.19-.26-.27-.39ZM55.62,77.15c.15.02.29.04.44.05.05-.03.09-.07.14-.11-.19.03-.38.04-.57.06ZM42.92,61.18c.08-.01.16-.02.24-.04.59-.12,1.17-.29,1.74-.49-.64-.05-1.28-.15-1.9-.31-.07-.02-.14-.04-.21-.06.06.29.11.6.14.9ZM49.94,71.34c.02-1.04,0-2.07-.05-3.1-.02.18-.03.36-.04.54-.07.91-.11,1.81-.11,2.7,0,.55.03,1.1.08,1.65,0,0,0-.02,0-.03.01-.18.04-.35.05-.52.02-.41.06-.82.07-1.23ZM55.08,74s-.01.02-.02.04c-.3.53-.65,1.03-1.02,1.51.76-.4,1.51-.81,2.23-1.26.53-.33,1.05-.67,1.56-1.03.01-.02.03-.04.04-.06,0,.02-.02.03-.02.04.17-.12.35-.24.52-.37-.02-.05-.04-.09-.05-.14-1.11.38-2.21.78-3.24,1.27ZM58.63,72.68s.09-.07.14-.11c-.06.02-.11.04-.17.06.01.02.02.04.03.05ZM62.62,74.87l-.05-.84s0-.06,0-.09c-.09.1-.18.2-.27.3.11.21.22.42.34.63ZM62.19,76.78c-.38-.09-.75-.21-1.1-.39-.32-.17-.61-.38-.87-.61-.61.34-1.26.62-1.92.83-.35.11-.71.18-1.07.26-.12.12-.24.24-.36.36.5.02,1,.04,1.49.03.6-.02,1.2-.06,1.8-.12.68-.08,1.36-.21,2.03-.38ZM54.15,78.22s.07.04.11.05c.04.02.09.04.14.06.04-.03.08-.05.12-.08-.12-.01-.24-.02-.36-.03ZM51.17,78.48c-.08.07-.17.14-.25.2-.05.24-.08.48-.13.71.28-.15.54-.33.81-.5-.14-.13-.28-.27-.42-.42ZM48.62,80.16c-.35.19-.71.37-1.07.53-.22.1-.45.19-.68.28.56-.15,1.12-.32,1.67-.53.03-.09.06-.18.09-.27ZM47.45,59.02c.15.04.3.07.44.11-.02-.04-.04-.07-.06-.11-.03-.02-.06-.04-.08-.06-.38-.3-.73-.62-1.06-.95-.66-.68-1.23-1.43-1.72-2.22-.55-.91-.99-1.87-1.33-2.86-.18.53-.35,1.06-.51,1.6.34.51.7,1.01,1.09,1.47.93,1.11,2.01,2.09,3.21,3.02ZM47.85,55.87c-.38-1.44-.8-2.86-1.25-4.28.22.95.47,1.89.76,2.81.15.5.32.99.5,1.47ZM64.77,64.15c-.03.05-.05.1-.08.15.03-.04.07-.07.1-.11,0-.01-.02-.03-.03-.04ZM61.09,71.77l.44.96c.13.27.26.54.39.81.19-.12.38-.24.56-.38-.04-.52-.08-1.03-.15-1.56.1.17.19.33.27.51,0-.32-.02-.64-.03-.96-.49.22-.99.43-1.49.62ZM62.31,77.41c-1.25.45-2.57.73-3.9.85h0c-.06,0-.11.02-.17.02-.85.08-1.71.08-2.57.04-.14.12-.28.24-.43.36.84.34,1.7.63,2.59.85,1.23.29,2.51.48,3.79.54.25.02.51,0,.76.01.08-.93.16-1.86.2-2.8-.09.04-.18.08-.28.12ZM39.3,61.53s.04.04.05.07c0-.02-.01-.04-.02-.05-.01,0-.02-.01-.03-.02ZM42.55,56.91c.27.17.54.35.82.51.31.17.63.32.95.47-.38-.32-.74-.67-1.06-1.06-.19-.23-.37-.47-.54-.71-.06.26-.11.52-.17.79ZM44.46,50.8c-.2.46-.38.93-.56,1.41.6,1.05,1.22,2.06,1.94,2.99.29.39.61.76.93,1.12-.17-.55-.31-1.1-.43-1.66-.19-.95-.32-1.91-.38-2.86-.04-.71-.03-1.42,0-2.13-.13-.37-.26-.74-.39-1.1-.41.73-.79,1.47-1.12,2.24ZM47.2,43.81c.34-.43.7-.84,1.06-1.25-.02-.02-.05-.02-.07-.05-.13-.17-.25-.35-.37-.53-.52.28-1.07.53-1.66.69-.46.12-.95.19-1.44.18-.07,0-.15,0-.22-.01.4.99.81,1.98,1.21,2.98.48-.69.98-1.37,1.5-2.02ZM45.89,38.62c-.15.68-.37,1.34-.66,1.99.01-.02.03-.04.04-.06.35-.61.65-1.24.91-1.89.02-.04.03-.09.05-.14-.07-.25-.13-.5-.18-.76-.05.29-.09.57-.16.86ZM47.94,39.37c-.03.05-.06.11-.1.16,0,0,0,0,0,0,.03-.04.07-.08.1-.11,0-.02,0-.03,0-.05ZM59.14,33.12h0s0,0,0,0ZM58.52,45.08c.02.05.04.1.05.15.03.1.04.21.07.32.07.22.14.43.21.65.02-.08.04-.17.06-.25.04-.26.06-.54.05-.81,0-.05-.01-.1-.01-.15-.15.03-.29.07-.43.09ZM59.71,44.8c0,.13.03.27.01.4-.04.31-.12.61-.27.89-.06.12-.15.24-.24.35,0,0,.02,0,.02-.01.35-.36.63-.76.76-1.22.05-.17.09-.35.11-.53-.13.04-.27.08-.4.12ZM60.54,44.97c.06-.16.11-.32.14-.49-.09.04-.18.07-.28.11,0,.24-.02.48-.09.72-.03.11-.08.2-.13.3.14-.2.27-.41.36-.64ZM65.12,63.11c-.03.21-.08.41-.15.61.04.05.07.1.11.14.06-.08.11-.16.17-.24-.06-.16-.08-.34-.12-.51ZM65.85,63.54c.02.08.06.15.08.22-.02-.09-.04-.19-.06-.28,0,.02-.01.04-.02.06ZM66.9,62.68c-.02.14-.04.28-.08.42-.08.27-.2.54-.34.79.1.31.22.61.36.89.13.27.29.53.45.78-.13-.33-.22-.68-.29-1.03-.12-.61-.13-1.23-.1-1.85ZM66.88,67.53c.26-.23.49-.49.73-.74-.53-.26-.99-.58-1.42-.95-.27-.23-.52-.5-.76-.77-.13.1-.26.21-.41.29-.37.2-.76.35-1.18.44-.07.03-.13.07-.21.09-.09.02-.17.03-.24.04.15,1.25.27,2.5.36,3.75,1.12-.59,2.17-1.31,3.13-2.15ZM59.52,83.2c.12.68.25,1.34.45,1.96.19.55.44,1.04.78,1.45-.16-.42-.29-.84-.37-1.28-.11-.57-.16-1.16-.14-1.73.01-.29.04-.57.08-.85-.3-.02-.6-.05-.89-.09.03.18.06.36.1.54ZM60.78,83.55c.06.32.16.62.25.92,0-.33-.01-.66.02-.98.02-.24.06-.48.09-.72-.06,0-.13,0-.19,0-.11,0-.22-.01-.32-.02.04.27.09.53.15.79ZM61.59,83.48c.07.45.15.89.23,1.33.11-.68.19-1.38.27-2.07-.2.02-.41.02-.62.03l.11.71ZM63.76,83.93c.09-.47.14-.95.16-1.45-.11.02-.23.04-.34.06-.11,1.04-.23,2.08-.39,3.11.04-.09.1-.17.13-.26.18-.47.34-.96.44-1.46ZM61.34,93.57c-.03.1-.06.2-.1.3.03-.1.06-.2.1-.3ZM58.5,83.26c.15.5.35.97.57,1.43-.06-.49-.08-.97-.08-1.45,0-.21.03-.42.04-.63-.25-.04-.5-.09-.75-.15.07.27.14.53.22.8ZM57.18,81.12c.25.11.51.2.77.29,0-.09,0-.18.01-.27.02.1.05.2.07.31.35.12.7.23,1.06.32.02-.21.02-.41.04-.62.05.22.09.44.13.66.4.1.8.18,1.2.25.01-.05.02-.1.03-.15,0,.05.02.11.02.16.16.02.32.06.48.08.09.01.18.02.27.03.02-.1.04-.21.07-.3l.05.32c.26.03.51.05.77.07.06-.54.13-1.08.19-1.62-1.56.18-3.15.17-4.72-.1-.98-.15-1.95-.41-2.89-.75.77.51,1.58.97,2.44,1.34ZM47.96,82.23c-.13.03-.25.07-.38.09-1.02.21-2.06.32-3.1.34-.53.06-1.07.1-1.61.11.27,1.34.57,2.68.94,3.99.2.75.38,1.51.56,2.27,1.5-2.09,2.7-4.38,3.59-6.81ZM28.22,80.99c1.27.56,2.63.88,4,1.08.35.05.71.06,1.06.09-.26-.08-.53-.16-.79-.26-1.46-.51-2.85-1.2-4.12-2.08-.59-.42-1.15-.89-1.67-1.41-.32.36-.68.68-1.05.99.78.66,1.65,1.19,2.57,1.59ZM25.19,79.11c-.05-.07-.1-.13-.15-.21-.22.25-.45.49-.7.7.19-.1.39-.19.58-.31.1-.06.18-.13.28-.19ZM12.28,80.62c.12-.36.22-.74.31-1.12-.02-.01-.04-.02-.06-.04-.36-.3-.68-.66-.95-1.04.08.72.13,1.45.15,2.18,0,.54-.03,1.09-.09,1.65.25-.52.47-1.06.64-1.63ZM9.18,92.66c-.04-.11-.07-.23-.11-.34.04.11.07.23.11.34Z"/></g></svg>