<?xml version="1.0" encoding="UTF-8"?><svg id="Layer_2" xmlns="http://www.w3.org/2000/svg" viewBox="0 0 600 59.51"><defs><style>.cls-1{fill:#022e44;stroke-width:0px;}</style></defs><g id="poster"><path class="cls-1" d="M570.65,22.01c-11.51,6.9-23.23,13.74-35.83,18.47-12.05,4.52-24.93,7.51-37.64,9.46-11.7,1.8-24.06,3.16-35.81,1.04-14.82-2.68-29.1-8.26-43.61-12.2-7.89-2.14-15.75-4.01-23.99-3.73-7.16.25-14.22,1.41-21.17,3.16-14.12,3.57-27.92,8.94-42.34,11.25-12.28,1.97-24.29.83-36.27-2.31-12.79-3.35-25.66-8.09-39-8.65-15.39-.65-30.42,1.66-45.5,4.46-12.52,2.32-23.97,2.57-36.57.39-13.47-2.33-26.8-6.07-40.42-7.41-7.06-.7-14.16-1.01-21.21-1.77-4.95-.53-11.26-.66-15.8-2.8-6.16-2.92-10.42-8.32-16.3-11.61-6.83-3.82-14.54-2.86-22.01-2.44-12.97.72-27.33,3.56-39.76-1.46C10.08,12.89,4.51,6.57,0,0v59.51h600V5.28c-9.93,5.2-19.6,10.89-29.35,16.73Z"/></g></svg>