<?xml version="1.0" encoding="UTF-8"?><svg id="Layer_2" xmlns="http://www.w3.org/2000/svg" viewBox="0 0 141.97 116.44"><defs><style>.cls-1{fill:#106589;stroke-width:0px;}</style></defs><g id="poster"><path class="cls-1" d="M85.09,65.39c-2.55-.79-4.16,5.17-5.72,6.54-1.41,1.24-3.26,1.76-4.63,3.07-1.19,1.14-1.9,2.52-3.28,3.54-2.23,1.65-4.22,2.06-6.76,1.43-.37-.09-.71-.17-1.04-.24.06,1.04.15,2.1.31,3.05,1.19.08,2.36.4,3.69.45,2.31.09,4.98-.77,6.99-1.83,2.41-1.27,3.77-3.55,5.48-5.66,2.05-2.53,3.18-2.42,6.26-2.79.66-.08,1.68-.07,2.25-.47.04-.57.09-1.15.17-1.73-.57-.75-1.91-.43-2.75-.61-3.92-.84-.81-2-.97-4.76Z"/><path class="cls-1" d="M55.61,87.03c.22-1.47.18-3.01,0-4.56-1.68,1.23-3.15,2.09-5.3,2.82-1.13.38-2.55.75-3.82,1.28-.07-.31-.15-.61-.2-.94-.16-1.09-.41-2.04-.73-2.94,2.84-.7,2.95-6.65,5.35-8.48,1.24-.95,2.68-1.46,4.19-1.77,1.73-.35,3.54-.45,5.25-.59,4.57-.37,7.39-2.64,11.5-4.2,2.94-1.11,6.08-1.14,8.96-2.52,2.41-1.15,3.56-3.67.02-2.29-2.41.94-4.67.9-1.96-1.85,1.82-1.84,1.39-4,4.94-5.86,2.58-1.36-.2-3.39-2.2-1.68-2.5,2.13-4.46,5.6-6.16,8.39-.94,1.52-5.12,5.54-6.73,2.31-1.16-2.33,3.29-6.18,5.09-6.95,1.44-.62,4.56.73,4.02-1.23-.37-1.36-2.4-.61-2.73-1.14-1-1.63,2.88-4.64,3.79-5.46,1.75-1.6,3.94-2.88,5.36-4.76.68.62,2.12.97,3.69,1.11.32-.58.68-1.07,1.08-1.28.4-.21.84-.24,1.25-.09.59.23.9.76,1.09,1.36.88-.08,1.62-.23,2.08-.43,1.97-.83,4.69-4.08,6.58-4.93,2.03-.91,3.98.47,6.16-.27.36-.12.74-.27,1.12-.43-.04-1.27.06-2.44.51-3.76-1.47.68-3.05,1.24-4.29,1.24-3.02,0-.71-3.28.75-4.86,2.09-2.27,6.12-5.09,8.54-7.36.48-.86,1.08-1.66,1.76-2.05.29-.53.32-.98,0-1.31-1.23-1.25-2.38,1.15-3.27,2.26-1.03,1.29-4.61,3.75-5.37,2.46-.5-.84,1.9-5.09,2.66-6.75,1.21-2.63-.39-3.55-1.43-2.17-1.35,1.79-2.5,4.59-3.1,6.74-.67,2.36-.3,4.36-1.34,6.78-.95,2.25-2.25,4.46-3.91,6.22-2.37,2.52-7.79,8.26-13.14,5.09,1.44-2.92,2.2-5.86,4.74-8.96.6-.72,2.61-1.64,2.43-2.79-.26-1.67-3.01-.67-2.95-2.97.03-1.31.46-2.96,1.27-4.01,1.38-1.8,3.2-2.26,5.16-2.82,2.33-.66,4.7-1.54,6.74-2.86,2.89-1.88,3.51-4.71.75-3.45-.83.38-10.13,6.44-8.67,1.87.91-2.87,2.75-3.69,4.21-6.25.46-.8,2.18-2.58,1.13-3.08-1.24-.59-2.68,1.06-3.37,1.84-2.99,3.39-4.43,7.74-7.44,11.1-3.86,4.32-1.62,9.28-3.27,14.2-.83,2.49-2.98,11.3-5.6,9.93-.94-.49-.23-2.53.42-4.4.61-1.79,1.35-4.62,1.49-6.55.14-2.05-.9-3.93-.85-5.99.06-2.44,1.13-4.7,2.61-6.6.17-.21,4.05-5.9,3.51-6.31-2.86-2.21-7.29,5.95-8.3,9.17-1.19,3.77-.31,7.74-.35,11.59-.06,4.29-1.9,8.38-3.06,12.46-.38,1.32-2.03,4.16-3.19,5.04-1.24.93-1.07-2.18-2-.81-.74,1.09.29,3.16-.38,4.56-1.08,2.27-1.55-.42-1.93-2.01-.47-1.98-1.32-3.27-1.67-5.23.89-.45,1.95-2.16,2.8-3,2.21-2.17,4.02-3.3,5.45-6.2,3.07-6.24,3.72-11.23,2.69-17.24-.44-2.53.65-5.14,1.77-7.58,1.19-2.59,3.11-3.46,5-5.47,1.42-1.51,4.2-6.17,3.03-8.43-1.61-3.13-2.95,2.61-3.69,3.96-.96,1.78-4.02,6.52-6.5,5.87-2.34-.62-2.13-7.1-4.41-6.55-2.53.61,2.29,9.17,3.02,13.35,1.19,6.83-4.89-4.12-5.84-3.58-2.7,1.52,4.82,10.48,5.32,14.52.36,2.9-.78,6.77-2.28,9.21-1.27,2.07-5.05,4.47-6.86,6.86-.12-3.13.23-7.66,2.39-13.22,1.33-3.44,1.03-6.01.06-5.8-1.4.31-1.62,3.74-2.05,4.75-1.92,4.44-2.57,9.54-3.07,14.32-.68,6.51,7.39,16.44-.62,20.94-1.25.71-6.66,2.83-7.48.6-.7-1.91,1.95-4.81,2.95-6.17,1.23-1.68,2.72-3.49,3.38-5.5.48-1.47-1.11-1.94-2.31-1.72-1.5.27-2.25.33-3.37-1.06-3.11-3.86-3.79-8.89-3.5-13.89-1.24.81-2.49,1.75-3.71,2.81-.1,1.75-.22,3.49-.11,5.24.1,1.74,1,5.33-1.7,4.26-1.61-.64-2.96-1.93-3.94-3.49-.3.38-.61.75-.9,1.14-.5.67-1,1.37-1.48,2.05,1.4,3.26,3.65,6.26,6.32,8.06,4.27,2.89,7.09,7.34,1.84,11.11-1.9,1.36-4.53,1.74-5.87,3.81-.65,1-1.04,2.13-1.45,3.26-2.09-3.78-3.21-7.22-2.15-11.9.86-3.78-2.16-5.62-2.32-1.88-.14,2.94.58,4.98-.69,7.22-2.56,4.5-6.73-5.06-5.97-8.01.61-2.38,2.2-4.45,2.43-7,.2-2.27,1.22-5.89-.63-7.23-1.84-1.35-2.43,6.75-3.01,8.58-.42,1.32-1.06,3.91-2.56,3.99-1.93.1-1.84-2.15-1.63-3.55.37-2.52,1.99-4.6,2.83-6.97.82-2.29.01-5,.97-7.08.83-1.8,13.96-7.55,10.49-9.87-1.85-1.23-5.97,3.62-7.54,4.37-3.89,1.85-2.14-1.93-.48-3.77,3.64-4.03,11.52-10.45,9.63-13.57-.79-1.3-2.53.63-3.35,1.59-2.92,3.44-6.75,11.55-8.81,2.74-1-4.26-2.06-1.01-2.15,1.79-.1,2.81,1.54,6.07,1.13,8.67-.4,2.56-2.68,4.38-2.94,7.14-.27,2.89.21,5.69-.62,8.67-1.68,6.07-4.29,9.85.37,15.26,1.34,1.55,5.07,4.96,1.19,5.77-.93.2-2.44-.57-3.5-.59-1.19-.02-2.36.3-3.53.25-2.44-.11-4.69-1.31-5.44-3.85-.71-2.38,1.68-8.34-1.21-7.75-1.81.37-.47,5.37-1.9,6.5-2.14,1.69-4.84-2.31-5.69-3.96-1.19-2.3-1.51-5.87-2.91-7.95-2.39-3.54-2.25,1.67-1.53,3.43,1.95,4.78,3.49,11.17,8.09,14.25,4.88,3.25,11.8,3.49,17.27,6.02,4.73,2.18,11.02,4.35,13.02,9.56.91,2.36,1,5.23.25,7.59-.71,2.28-2.98,5.72-.21,6.4,2.59.64,7.75,3.18,8.76.48.94-2.49,1.1-6.13.55-8.7-.06-.26-.13-.51-.2-.76,1.63-1.89,3.89-2.79,6.08-3.96.52-.28,1.03-.61,1.52-.96Z"/><path class="cls-1" d="M119.75,81.43c-.28.06-.52.09-.73.12.2.09.4.19.59.33,1,.75,1.25,1.7,1.11,2.72,1.43-.65,2.75-1.52,3.16-2.54,1.51-3.72-2.93-.88-4.13-.63Z"/><path class="cls-1" d="M74.97,88.73c-.25-1.21.16-2.43,1.06-3.2.81-.69,1.89-.87,2.89-.48.11.04.22.09.33.14,1.58.83,2.58,2.31,3.46,3.62l.25.37c.17.25.35.51.54.76,1.3-.64,2.71-1.12,4.47-.97,3.23.27,5.91.84,9,1.91,2.16.75,5.41,2.33,7.67,1.53,2.3-.82,3.85-3.22,5.79-4.57,1.08-.75,2.19-1.14,3.32-1.41,1-2.44,2.22-4.93,4.04-5.11-.44-.73,2.01-2.85,2.84-3.77,1.56-1.74,2.63-3.91,4.33-5.62,1.84-1.85,3.88-2.55,6.11-3.83,2.15-1.25,3.7-4.67-.12-3.45-1.78.56-5.14,2.28-3.04-1.34,1.34-2.31,4.78-3.17,5.77-5.67,1.77-4.45.87-6.31-1.05-4.3-1.76,1.84-1.39,4.77-4.24,6.01-6.77,2.95.89-9.73.06-11.17-1.69-2.93-6.16,7.16-6.4,9-.49,3.93.98,7.39-.83,11.35-.79,1.74-3.18,5.14-4.31,1.89-.27-.78.3-2.1.16-3.01-.2-1.28-.79-1.96-1.29-3.13-2.38-5.56,1.82-8.87,3.26-13.94.81-2.85-.62-5.13-2.54-1.8-1.18,2.05-1.24,4.83-2.26,7.07-4.28,9.44-3.74-5.9-5.69-5.75-1.7.13-1.15,6.84.06,10.22,1.24,3.48,3.17,6.27,4.28,9.77,1.41,4.43-3.5,10.19-5.92,13.58-1.97,2.74-4.11,2.31-7.01,2.27-2.23-.03-4.7.47-6.89-.22-2.42-.76-2.23-3.72-.68-5.77,1.1-1.45,3.86-1.45,5.66-2.05,2.4-.81,4.53-.6,6.87-1.51,1.77-.69,6.92-3.03,3.36-4.36-1.98-.74-5.13,2.1-6.39.27-.94-1.36.9-5.49,1.21-6.99.19-.91.89-7.06-1.39-6.34-.73.23-1.27,6.42-1.45,7.39-.5,2.59-1.32,5.65-3.1,7.68-2.13,2.44-3.41,2.42-4.14-.31-.97-3.66-.15-8.87.39-12.67.6-4.21,6.39-7.64,9.88-9.89,4.06-2.63,8.26-5.45,12.45-7.86,2.21-1.27,4.44-1.72,6.92-1.73,1.64,0,6.83-.25,3-2.21-1.81-.92-5.03.75-5.79-2.08-.59-2.18,3.97-4.79,2.79-6.52-.71-1.05-2.77,1.46-3.41,2.55-1.28,2.19-1.26,4.53-3.23,6.37-1.88,1.75-3.88,1.71-4.19-1.14-.52-4.87,5.95-12.29,4.38-14.17-1.21-1.45-2.8,2.25-3.27,3.57-.88,2.5-1.93,4.53-3.18,6.86-1.47,2.74-1.3,4.32-1.08,7.25.2,2.72-.8,3.03-3.19,4.26-2.06,1.06-3.64,2.4-5.46,3.81-1.98,1.54-10.45,9.6-11.33,4.23-.38-2.32,2.08-5.05,1.71-7.3-.67-4.01-2.42,2.07-2.67,3.19-.43,1.94-2.05,5.05-1.81,6.96.28,2.28,3.05,4.24,4.12,6.13,1.33,2.38.8,4.18.19,6.68-.59,2.39-.23,4.93-.87,7.28-1.74,6.36-6.1,4.31-10.94,4.35-4.06.03-9.86,7.46-13.53,5.61-3.3-1.67-2.05-10.53-2.97-14.15-.47.08-.95.15-1.46.19-.32.03-.65.05-.97.07-1.46.11-2.94.23-4.32.53.1.68.28,1.41.43,2.13,1.07,4.94,2.56,10.67-.09,15.36-1.32,2.34-3.58,3.7-4.43,6.38-.97,3.06-.45,6.38,2.76,7.08,2.15.47,5.1,3.34,7.53,3.05,2.87-.34,2.84-2.14,3.34-4.66,1.16-5.76,5.03-10.74,11.29-10.37.49.03.95,0,1.39-.05-1.13-1.05-2.09-2.27-2.42-3.86Z"/><path class="cls-1" d="M133.31,94.24c-1.43.36-4.19,2.2-5.63,1.24-1.93-1.28,2.01-3.62,2.81-4.09,1.91-1.12,4.08-1.64,5.97-2.72,1-.57.6-1.28-.18-1.87-1.44-1.09.03-2.21,1.26-3.1,1.03-.74,2.07-1.45,2.97-2.35.43-.43,1.44-2.52-.12-2.21-.7.14-3.62,2.3-3.99.36-.57-2.93,6.68-5.38,5.42-7.79-.63-1.2-3.02,1.29-4.06,1.86-1.71.95-3.4,2.09-3.9,4.11-.27,1.07.49,5.63-1.5,5.36-3.1-.43-3.39-3.83-2.21-6.01,1.19-2.22,5.26-4.04,4.31-6.39-.41-1.02-4.38,2.56-5.08,3.09-1.49,1.14-3.37,2.35-3.23,4.48.18,2.55,2.75,4.14,3.36,6.54.64,2.51-1.53,4.81-3.29,6.26-1.44,1.18-10.55,6.73-10.35,1.53.12-3.17,5.52-7.79,3.02-9.68-2.64-2-4.35,5.85-5.8,8.12-2.37,3.72-7.41,4.23-11.39,4.33-2.44.06-5.05.83-7.48.41-1.46-.25-3.02-3.44-4.43-2.6-3.51,2.11-5.85-.31-7.84-3.26-.88-1.31-1.81-2.83-3.26-3.59-1.47-.77-2.86.66-2.54,2.21.76,3.66,5.84,5.17,7.45,8.33,1.78,3.5-2.36,9.28-4.6,11.66-1.07,1.14-3.37,3.14-2.53,4.96.55,1.17.98,1.13,2.99,2.44,1.65,1.08,3.32.56,4.46-.94.18-.25.67-1.53.98-2.28-.03.08-.05.16-.08.21,2.57-4.21,3.84-8.54,8.39-11.18,3.29-1.91,6.73-.9,10.12-2.18,2.82-1.07,5.71-3.31,8.8-1.84,3.25,1.55,4.56.89,7.8-.05,1.73-.5,2.94.2,4.52.75,1.69.59,3.59,0,5.25-.41,1.6-.41,3.3-1.05,4.71-1.93,1.67-1.03.51-2.19-1.11-1.78Z"/></g></svg>