<?xml version="1.0" encoding="UTF-8"?><svg id="Layer_2" xmlns="http://www.w3.org/2000/svg" viewBox="0 0 121.34 73.52"><defs><style>.cls-1{fill:#022e44;stroke-width:0px;}</style></defs><g id="poster"><path class="cls-1" d="M26.47,22.75c-1.4,1.08-2.33,2.78-3.23,4.43-.59,1.08-1.2,2.2-1.94,3.14-1.96,2.48-5.11,5.6-7.55,6.22-1.06.27-1.87.05-2.64-.14-.54-.14-1.06-.28-1.62-.22-.45.04-.91.21-1.39.51-.92.56-1.7,1.35-2.46,2.12-.72.73-1.46,1.48-2.34,2.06-.22.15-.55.31-.92.5-.82.42-2.07,1.05-2.29,1.62-.18.44-.05.61,0,.66.17.23.84.59,3.27.35,1.58-.16,3.43-.52,4.91-.81,1.17-.23,2.15-.42,2.65-.44.42-.01.83.03,1.22.07.61.06,1.18.12,1.78-.02.91-.2,1.29-.58,1.82-1.09.25-.24.53-.51.9-.8,1.08-.86,2.4-1.2,3.67-1.53.97-.25,1.96-.51,2.83-.98,1.75-.96,2.81-1.96,2.96-2.84.08-.42-.05-.83-.4-1.23-.12-.14-.42-.22-.71-.29-.58-.14-1.36-.33-1.51-1.24-.15-.96.92-1.77,1.63-2.3.1-.07.19-.14.26-.2,1.71-1.38,4.06-3.27,4.46-5.6.14-.83-.02-1.53-.45-2-.66-.72-1.89-.7-2.91.07Z"/><path class="cls-1" d="M120.8,28.92c-.29,2.71-9.4,4.52-11.41,3.15.07,1.35-.31,2.73-1.17,4.19-.57.98-1.3,1.92-1.95,2.71-1.2,1.49-4.3,6.25-2.85,8.52.06.09.12.18.2.26.89.99,2.09.66,3.48.28.72-.2,1.47-.4,2.19-.39.14-.36.22-.68.3-1.02.09-.39.18-.79.38-1.26.06-.34.24-.71.55-1.13,1.68-2.26,6.19-2.38,8.27-1.23,1.57-1.84,2.02-4.85,2.22-6.99.04-.42.08-.83.13-1.25.23-2.13.45-4.15-.33-5.86Z"/><path class="cls-1" d="M112.35,31.14c-.11,0-.2-.02-.29-.03.09.01.19.02.29.03Z"/><path class="cls-1" d="M112.08,30.78c.29-1.46,2.37-1.99,3.6-2.29,1.21-.3,1.95,0,2.42.65-1.95-.47-4.31.48-5.66,1.93-.02.03-.03.05-.04.07.62.04,1.41-.03,2.23-.17.71-.41,1.54-.66,2.33-.66-.34.14-.72.27-1.11.38,1.65-.46,3.04-1.22,2.72-2.08-1.01-2.7-6.76-.25-7.4,1.77-.12.38.2.6.74.7.07-.08.13-.18.16-.31Z"/><path class="cls-1" d="M115.84,30.69c-.38.11-.77.19-1.16.27.39-.07.78-.16,1.16-.27Z"/><path class="cls-1" d="M118.95,46.24c-.99,1.12-4.03.65-5.53.71-1.12.05-2.6-.1-3.04-.83-.07.22-.12.43-.17.65-.1.42-.19.85-.43,1.36l-.07.14c-.61,1.21-1.55,2.58-2.87,4.18-.18.22-.4.46-.66.73-1.4,1.5-2.58,2.95-1.62,4.09.39.47.77.43,1.35.36.26-.03.55-.06.87-.04.25.01.5.04.74.08.56.08,1.08.15,1.64-.06.41-.16.76-.45,1.12-.76.35-.3.71-.6,1.16-.81.49-.22.99-.39,1.48-.55.61-.2,1.18-.39,1.74-.69,2.46-1.33,3.56-3.55,4.39-5.75l.09-.24c.39-1.01,1.13-2.91.51-4.12.01.45-.19.97-.71,1.55Z"/><path class="cls-1" d="M113.96,45.76c1-.04,2.83.45,3.59-.19,2.3-1.97-4.01-2.62-5.42-1.2-1.28,1.29.7,1.43,1.83,1.39Z"/><path class="cls-1" d="M105.76,38.56c.61-.75,1.29-1.62,1.83-2.53l-.06-.29c-.2-.9-.4-1.83-.66-2.71-.95-3.21-2.17-5.86-3.83-8.34-.49-.73-1.05-1.41-1.7-2.08h0c-1.18-1.22-2.53-2.24-3.77-3.11.03.38-.14.83-.58,1.37-1.31,1.57-3.97,2.46-4.98,1.79.05.46.09.92.12,1.36.16,2.07.3,3.86,1.66,5.77.25.35.53.67.79.98.52.61,1.07,1.24,1.41,2.11.34.85.68,1.77.78,2.78.12,1.17-.09,2.28-.29,3.35-.1.53-.2,1.08-.27,1.63.75,1.86,1.42,3.96,1.63,5.13.1.57.12,1.15.08,1.72.65.21,1.34.27,2.07.34h.13c1.12.11,1.81-.02,2.59-.33-1.22-2.69,1.75-7.32,3.06-8.95Z"/><path class="cls-1" d="M83.85,15.45c.09.32.21.67.31.95.2.57.4,1.17.49,1.67.15.92.15,1.85.16,2.75,0,.32,0,.63.01.95.21.23.56.74.56.74,1.65,2.82,2.21,5.41,2.79,8.14.26,1.21.53,2.46.9,3.78,2.21.13,3.95.87,4.96,2.13t0,0s0,0,0,0c.03.03.06.07.09.11.48.59,1.01,1.54,1.59,2.82.04-.2.07-.41.11-.61.2-1.07.4-2.09.29-3.16-.1-.93-.42-1.8-.74-2.61-.3-.77-.79-1.33-1.3-1.93-.27-.32-.56-.65-.83-1.02-1.47-2.06-1.62-4.02-1.78-6.1-.05-.62-.1-1.27-.18-1.94h0c-.06-.36.01-.78.22-1.29.49-1.15,1.41-2.03,2.61-2.49,1.03-.39,2.14-.4,2.89-.04h0c.15.07.27.16.37.25,0,0,2.49,1.8,3.63,2.85h0c-.15-.72-.3-1.4-.49-2.05-.43-1.52-1.11-3.07-1.65-4.26-1.09-2.41-1.99-3.83-3.44-5.38.03.14.05.29.06.46.16,3.76-9.57,7.28-11.64,5.27Z"/><path class="cls-1" d="M95.58,20.58c1.43-1.71-1.56-1.48-2.46.26-.86,1.67,1.39,1.03,2.46-.26Z"/><path class="cls-1" d="M91.58,11.69c-1.35.41-2.45,1.29-3.6,2.09-.19.13-.26.3-.25.48,2.1-.34,5.04-1.53,5.84-2.81-.67.02-1.35.06-1.99.25Z"/><path class="cls-1" d="M91.54,9.54c-1.34.42-2.8,1.36-3.88,2.01-1.03.61-1.75,1.49-1.96,2.6.24.17.7.23,1.26.19.28-1.54,2.37-2.21,3.61-2.82.97-.48,2.2-1.32,3.21-.69,0-.02,0-.03,0-.05,0-1.34-.98-1.56-2.25-1.25Z"/><path class="cls-1" d="M95.57,40.81c-.35-.83-.68-1.56-.99-2.16.02.17.03.34.03.51-.1,2.9-2.17,3.7-4.27,3.29-2.45-.48-4.86-2.58-7.33-3.01-1.5-.26-4.66-1.56-4.16-3.43-1.06,1.08-1.96,2.59-2.4,4.09-.11.37-.19.76-.24,1.14-.1.87-.34,1.76-.6,2.71-.32,1.2-.65,2.45-.67,3.61,1.03-.23,1.95-.02,2.79.63h0s.05.04.05.04c0,0,0,0,0,0,.21.17.42.37.63.61.03.03.05.06.08.1,0,0,0,0,0,0l.1.08v.03c.9,1.01,1.29,1.93,1.65,3.15.26.9.27,1.8.28,2.68,0,.53.01,1.02.07,1.52.08.69.24,1.4.38,2.08.08.34.15.69.21,1.03,1.3-.22,2.88.16,4.41.55,1.24.31,2.41.61,3.27.52,3.08-.28,4.23-2.54,5.48-5.68.33-.82.74-1.64,1.13-2.42.77-1.53,1.57-3.11,1.75-4.77.07-.6.04-1.21-.06-1.81-.2-1.13-.88-3.26-1.62-5.08h0Z"/><path class="cls-1" d="M80.78,37.17c3.54-.88,10.11-.04,11.66,2.81.35-.37.52-.89.37-1.61-1.1-1.06-2.77-1.83-4.63-2.3-1.11.08-2.12.37-3.22.12-1.06-.23-2.88-.76-3.88-.34-1.1.46-.94.92-.3,1.32Z"/><path class="cls-1" d="M92.31,40.09c-2.94-1.97-6.71-2.79-10.21-2.4-.03,0-.05.02-.07.03.82.28,1.72.48,2.21.57.87.15,2.09.87,2,.81,1.6.26,3.16.78,4.56,1.56.63-.07,1.22-.26,1.61-.64-.03.03-.06.05-.09.07Z"/><path class="cls-1" d="M83.48,14.3h-.03s.02.01.02.01h0s0-.01,0-.01Z"/><path class="cls-1" d="M57.9,13.43s.1-.07.18-.11c2.68-1.63,8.06-1.8,10.09-.38h0s0,0,0,0c.07.05.13.09.19.14,0,0,0,0,0,0h0c1.78,1.33,2.21,4.76,2.56,7.52.04.33.08.65.12.96,3.82-1.52,9.12-2.03,11.81-1.09.45.16.9.4,1.3.7,0-.12,0-.24,0-.36,0-.87,0-1.78-.15-2.65-.07-.45-.27-1.01-.46-1.56-.35-1.01-.64-1.88-.38-2.4.02-.17.05-.35.11-.53.22-.73,1.15-1.59,1.78-2.1-.07-.31-.16-.63-.24-.93-.08-.3-.16-.58-.22-.84-.16-.66-.37-1.34-.58-1.99-.16-.49-.32-.99-.45-1.48-.34-1.24-.73-2.25-1.17-3.05,1.9,7.26-9.96,2.97-11.96,2.88-2.95-.12-5.86.62-8.81.5-3.19-.12-3.86-1.89-3.67-3.93-.57,1.51-.84,3.48-.8,5.82,0,.13,0,.25,0,.38,0,.75,0,1.53-.01,2.31-.01.89-.02,1.8,0,2.7.22-.2.46-.37.73-.51Z"/><path class="cls-1" d="M84.41,25.87c-1.64,1.41-3.68.65-5.39.17-2.22-.61-4.67.4-7.04,1.43-1.03.45-3.76.3-4.79-.75.08,1.23,0,2.39-.09,3.52-.08.95-.15,1.95-.11,2.97,1.24-.35,2.31-.15,3.04.58,1.13.64,4.25,3.48,5.98,5.54.64-1.75,1.82-3.46,3.13-4.48,1.23-1.32,5.09-.51,5.53-.41.84.19,1.65.12,2.52.05.39-.03.79-.06,1.2-.06-.35-1.27-.61-2.47-.86-3.64-.49-2.32-.97-4.52-2.1-6.81-.02.63-.31,1.28-1.01,1.89Z"/><path class="cls-1" d="M72.62,2.54c2.29.24,6.16.95,8.18,2.89.47-.78-.02-1.73.02-1.62-2.3-1.6-5.64-2.25-8.03-2.56-.76-.1-1.61-.18-2.51-.22,3.94,0,8.01.75,10.31,2.27-.02-.03-.03-.06-.04-.1-1.38-2.56-6.29-2.79-8.99-3.13-1.24-.16-4.74-.07-7.56.35-1.81.49-3.33,1.19-4.32,2.12-.19.61.02,1.1.43,1.48.78-1.08,2.4-1.87,4.43-2.36-1.59.51-2.95,1.39-3.78,2.8.38.2.82.35,1.23.45,1.9-3.09,7.63-2.7,10.64-2.38Z"/><path class="cls-1" d="M78.2,4.67c-4.54-2.5-10.14-1.53-14.64.46,2,.08,3.98-.36,5.99-.42-.01,0-.02,0-.04,0,2.49-.35,5.01-.14,7.53.86.37.15.73.32,1.07.51,0,0,1.16.2,2.03-.1.02-.05-1.27-.93-1.94-1.3Z"/><path class="cls-1" d="M69.38,26.16c1.18-4.1,9.97-4.63,14.46-2.24-.08-.98-1.32-1.88-2.33-2.22-2.89-.98-11,.35-12.68,3.04-.86,1.37.59,1.43.55,1.42Z"/><path class="cls-1" d="M70.53,26.19s-.04.09-.06.14c-.07,0,1.83-.14,1.74-.12,2.35-2.28,7-2.28,10.38-.69.18-.06.35-.14.51-.26.29-.21.48-.44.6-.67-4.28-2.28-10.68-2.1-13.17,1.6Z"/><path class="cls-1" d="M79.63,52.37c-.12-.41-.25-.79-.4-1.14.16,1.61-1.08,2.99-2.57,3.89-3.18,1.91-13.71,3.6-12.87-1.04,0-.03.02-.06.02-.08-1.56,1.91-2.25,4.35-2.09,7.43.64.62,1.1,1.28,1.33,1.93.67,1.12,1.02,3.2.83,4.83.54.63,1.22,1.13,1.95,1.45-.08-.57-.09-1.19-.03-1.86-.06-.77.4-1.45,1.29-1.86,1.59-.74,5.15-1.56,7.12-1.18,1.27.24,2.28.77,2.69,1.44h.01s.14.2.14.2c.18.27.37.57.53.89,3.49-2.83,3.41-5.27,3.04-7.34-.08-.44-.18-.88-.27-1.32-.15-.7-.31-1.42-.4-2.15-.06-.53-.07-1.07-.07-1.59-.01-.87-.02-1.69-.26-2.5Z"/><polygon class="cls-1" points="63.77 46.7 63.78 46.7 63.76 46.7 63.76 46.7 63.77 46.7"/><path class="cls-1" d="M69.02,50.22c.99-.33,1.93-.64,2.51-.99l.49-.3c.73-.45,1.48-.9,2.27-1.19-.02-1.31.34-2.66.7-3.98.25-.92.48-1.79.58-2.62.04-.36.12-.72.22-1.08-1.41-1.76-4.2-4.39-5.6-5.41.45,2.14-5.61,5.19-7.33,4.17.07.39.14.78.21,1.17.2,1.05.42,2.14.46,3.18v.25c.04.84.08,1.71.22,2.55.17.17.28.37.33.6.69,1.14,1.44,3.45,1.87,4.82.96-.48,2.07-.86,3.07-1.19Z"/><path class="cls-1" d="M66.46,55.37c-.31-1.35,4.55-3.69,5.34-4,1.88-.73,3.24-.45,4.18.41-3.21-.44-7.19,1.37-9.38,3.64-.04-.01-.08-.03-.12-.04.44.19,1.02.29,1.68.33,2.22-1.93,5.94-3.39,8.53-2.41-.13.14-.28.28-.44.41-2.47.06-4.86.87-7.18,2.01,2.25-.06,4.99-.71,6.25-1.39,1.41-.76,2.53-1.99,1.73-3.36-.82-.81-1.9-1.28-3.26-1.27-.74.23-1.46.67-2.14,1.03-.9.48-2.72.85-4.14,1.45-.79.57-1.48,1.22-1.9,1.89-.05.61.27,1.03.85,1.29Z"/><path class="cls-1" d="M76.78,67.14c-.09.37-.4.76-1.02,1.16-1.05.68-4.82,1.27-6.06,1.45-1.49.22-2.73-.41-3.28-1.23,0,.56.05,1.09.17,1.55.4,1.62,1.5,2.7,3.29,3.21,2.04.58,5.93.14,7.13-1.85.74-1.22.49-2.59.15-3.53-.09-.26-.23-.51-.38-.76Z"/><path class="cls-1" d="M62.56,16.71c-.9.29-6.17,1.43-5.62-1.48-.86,1.35-.98,3.24-1.01,4.94-.03,1.78.26,3.28.57,4.86.15.76.3,1.56.43,2.41.45.12.89.28,1.32.49.63.33,1.19.75,1.62,1.2h0s.06.06.09.09c1.59,1.62,3.02,3.95,3.7,5.97.8-.76,1.76-1.39,2.69-1.76-.05-1.14.03-2.21.11-3.25.1-1.31.21-2.66.03-4.12h0s0-.09,0-.13v-.02h0s0-.03,0-.04c-.02-.37.09-.77.33-1.2.62-1.08,1.87-2.06,3.63-2.84-.05-.37-.1-.75-.15-1.15-.27-2.16-.6-4.76-1.58-6.27,0,.2-.03.41-.12.63-.61,1.62-4.71,1.23-6.02,1.66Z"/><path class="cls-1" d="M70.26,68.41c.82-.12,3.3-.53,4.03-.88,1.83-.87.38-1.54-1-1.72-1.2-.16-3.5.3-4.6.74-1.65.66-.38,2.15,1.57,1.86ZM69.41,67.26c.67-.39,1.42-.63,2.17-.77,1.25-.24,2.4,0,3.14.8-.05.03-.11.07-.16.1-1.97-.72-3.97-.73-5.86.84-.05-.02-.1-.04-.14-.06,0-.07,0-.14-.04-.22,0,.01.62-.53.89-.69Z"/><path class="cls-1" d="M59.82,15.8c-.16.1-.23.24-.26.37-.1-.01-.21-.02-.3-.04,1.06.22,2.88-.15,3.32-.27.85-.23,3.23-.18,4.13-.78-2.31-.59-4.55-.78-6.89.72Z"/><path class="cls-1" d="M59.26,16.13c.1-.06.2-.14.26-.27.77-1.37,3.4-1.5,4.8-1.7,1.11-.16,1.99.03,2.7.53.83-2.06-7.76-1.48-8.46.4-.23.61.13.91.7,1.03Z"/><path class="cls-1" d="M68.42,34.65c-.88-1.03-3.71,1.09-4.36,2.33-1.2,2.3,5.88-.54,4.36-2.33Z"/><path class="cls-1" d="M61.07,60.86c-.06-3.44.98-6.21,3.13-8.23,0,0,0,0,0,0,0,0,0-.01.01-.02h0c.29-.31.67-.6,1.15-.89-.36-1.14-1.01-3.18-1.62-4.39-.54,2.56-6.56,3.45-7.31,1.57-.63,1.61-.96,3.06-.6,5.74.22.37.44.77.67,1.22.56,1.13.92,2.61.64,3.7,1.21-.22,2.72.38,3.92,1.29Z"/><path class="cls-1" d="M62.09,38.21c-.03-.25,0-.53.08-.87.13-.49.48-1.04.98-1.62-.46-1.55-1.45-3.37-2.64-4.87.19.83-.11,1.7-1.19,2.5-1.98,1.47-11.96,3.01-12.15-1.88,0-.12.02-.23.05-.34-1.08,1.44-.88,3.7-.74,5.18.04.4.07.74.07,1,0,.98-.28,2.14-.56,3.37-.34,1.48-.69,3-.61,4.3,1.3.37,2.66,1.05,3.79,1.89,1.92,1.44,4.19,3.97,5.9,6.54-.14-2.36.35-3.78,1.04-5.42h0c.27-.9,1.3-1.7,2.86-2.2,1.34-.43,2.99-.59,4.06-.22-.09-.72-.12-1.45-.14-2.11v-.25c-.05-.99-.26-2.06-.46-3.09-.12-.63-.25-1.28-.33-1.91l.32-.05h0s-.32.04-.32.04Z"/><path class="cls-1" d="M51.97,10.76c.24.59.5,1.27.72,1.97,1.37,4.33,1.33,8.89,1.29,13.29,0,.43,0,.86,0,1.29.82-.11,1.58-.12,2.28-.02-.12-.75-.25-1.47-.39-2.15-.32-1.62-.62-3.15-.58-5,.03-1.87.17-3.99,1.25-5.5-.05-1.14-.03-2.3-.02-3.43,0-.54,0-1.07,0-1.61-.85,1.09-3.44,1.48-4.56,1.13Z"/><path class="cls-1" d="M62.06,47.01c-.28-1.26-4.5.02-4.55,1.17-.04.98,4.93.48,4.55-1.17Z"/><path class="cls-1" d="M62.84,64.73c-1.27,4.35-7.44-.06-6.95-3.48-1.13,1.25-1.88,2.59-2.14,3.85-.35,1.67.13,3.13,1.38,4.21,1.98,1.34,3.89,2.5,5.55,2.11.86-.2,1.58-.82,2.18-1.89.18-.32.31-.76.38-1.27.16-1.16,0-2.63-.36-3.72-.01.06-.02.13-.04.19Z"/><path class="cls-1" d="M55.2,8.53c-.55-.8-2.67.18-2.53,1.22.08.62,3.49.16,2.53-1.22Z"/><path class="cls-1" d="M56.15,33.24c-.19.04-.38.08-.58.12.2-.04.39-.08.58-.12Z"/><path class="cls-1" d="M54.71,33.49c-.26.03-.53.06-.8.08.95-.4,1.99-.63,2.95-.53.53-.16.97-.33,1.22-.51,1.92-1.3.73-2.84-.91-3.6-1.48-.69-3.25-.48-4.84.02-.99.31-3.75,1.28-3.72,2.4.06,2.22,3.35,2.5,6.09,2.14ZM58.53,32.17c-2.19-1.01-5.12-.11-7.06,1.3-.02.02-.03.04-.05.06-.29-.04-.57-.09-.83-.16.71-2.08,4.25-2.85,6.14-2.75.96.06,1.58.6,1.99,1.34-.06.07-.12.14-.19.21ZM54.79,29.38c1.25-.27,2.46-.26,3.41.38-.48-.25-1.05-.42-1.74-.46-2.37-.13-5.81,1-6.93,3.29,0-.03,0-.06-.01-.1-.64-2.07,3.99-2.83,5.27-3.11Z"/><path class="cls-1" d="M56.79,33.07c-.14.04-.29.08-.44.12.15-.04.3-.08.44-.12Z"/><path class="cls-1" d="M55.45,33.38c-.24.04-.48.08-.72.11.25-.03.49-.07.72-.11Z"/><path class="cls-1" d="M61.36,64.17c.42-1.43-2.71-3.7-3.84-2.42-.22,1.77,3.05,5.09,3.84,2.42Z"/><path class="cls-1" d="M34.3,26.36c.17.55.34,1.1.52,1.65.89.35,1.67.79,2.31,1.34.64.55,1.12,1.03,1.51,1.5,1.75,1.37,2.41,4.79,2.85,7.06.06.29.11.57.16.82l.13.62c.35,1.74.71,3.53,1,5.31.61-.05,1.26,0,1.93.14-.04-1.34.3-2.83.64-4.28.28-1.2.54-2.33.54-3.23,0-.23-.03-.56-.06-.94-.17-1.9-.5-5.45,2.27-6.77,1.2-.88,2.98-1.53,3.69-1.76.56-.18,1.06-.31,1.53-.4,0-.49,0-.95,0-1.41.04-4.36.08-8.86-1.26-13.09-.24-.78-.53-1.49-.87-2.33l-.08-.2c-.49-1.21-.92-2.31-1.18-3.61-.2-1.01-.4-1.75-.63-2.56-.3,2.53-2.83,3.4-4.85,3.84-2.9.64-12.77.61-13.66-3.03-.49,1.92-.7,3.97-.62,6.12.15,3.75,1.19,7.84,3.07,12.19.43.98.74,2.02,1.04,3.01Z"/><polygon class="cls-1" points="48.25 29.88 48.25 29.89 48.26 29.89 48.25 29.88"/><path class="cls-1" d="M55.48,60.73c-1.69.46-3.82-.33-4.77-1.59-2.31-3.05-5.58-.02-9.87-1.12-4.62-1.19-4.94-6.97-3.89-8.98.49-.93,1.08-1.66,1.72-2.23-2.66,1.53-5.21,4.66-5.47,8.12-.07.95-.05,1.9.08,2.83.17,1.29.53,2.52,1.06,3.66.83,1.79,2.06,3.33,3.65,4.56.52.41,1.08.78,1.65,1.11,2.64,1.51,5.63,1.34,7.68.93.27-.06.54-.11.8-.17.52-.11,1.01-.22,1.5-.29,1.88-.65,2.68-1.25,3.52-2.67.31-1.41,1.12-2.83,2.35-4.16Z"/><path class="cls-1" d="M42.13.95c-3.58-.21-8.57.49-9.36,2.72-.28.79-.01,1.4.59,1.86-.2-3.81,12.53-5.51,13.41-1.34-3.81-2.26-9.99-1.45-12.88,1.67.38.2.84.36,1.34.49,2.59-2.35,8.01-2.95,11.12-.93.69-.55,1.14-1.31.99-2.44-.22-1.61-3.44-1.91-5.2-2.02Z"/><path class="cls-1" d="M36.63,6.61c2.52.37,5.53.23,6.82-.04.47-.1.97-.23,1.45-.4-2.48-1.09-5.56-.92-8.26.44Z"/><path class="cls-1" d="M51.94,53.25c-1.24-1.03-2.7-1.77-4.46-1.97-2.75-.3-6.26,1.59-7.48,4.24.29.28.61.53.97.74.93-3.45,6.76-4.25,9.38-2.62,1.78,1.11,3.1,2.98,4.23,4.86,1.13-.75-2.79-5.41-2.66-5.25Z"/><path class="cls-1" d="M48.25,48.84c.09.08-2.98-3.31-7.02-1.37-2.11,1.01-2.97,3.13-2.67,5.14.15-.51.32-1.02.55-1.51,1.41-3.07,5.99-3.58,9.14-2.26Z"/><path class="cls-1" d="M50.42,51.35c-.38-.58-1.17-1.52-1.09-1.44-2.72-1.16-5.83-1.01-8.41.85-1.08.78-1.67,1.9-1.99,3.15.25.59.62,1.14,1.08,1.6.11-.82.29-1.62.63-2.39,1.78-4.06,7.74-2.85,10.37-.68.13.11.26.14.38.14.02.02-.78-.94-.97-1.24Z"/><path class="cls-1" d="M50.79,54.62c-2.99-1.54-7.04-1.28-9.1,1.64-.07.1-.1.2-.11.3.05.02.1.04.14.06.56.25,1.16.23,1.16.23,1.83-2.32,5.31-2.34,7.69-.84.88.56,1.44,1.36,1.79,2.28.26.17.53.29.79.33.25.04.46.05.65.05-.44-1.69-1.34-3.19-3.02-4.06Z"/><path class="cls-1" d="M52.99,66.22c-.47.57-.98.96-1.58,1.29.63.08,1.32.29,2.05.72-.3-.62-.45-1.29-.46-2.01Z"/><path class="cls-1" d="M39.97,45.5c.69-.37,1.42-.61,2.17-.74-.29-1.76-.64-3.54-.99-5.26l-.13-.62c-.05-.25-.11-.53-.17-.83-.3-1.57-.72-3.7-1.5-5.23.2.82.03,1.66-.81,2.46-1.73,1.66-5.08.7-7.15.84-2.55.18-5.58,1.49-8.12.59-1.2-.43-2.25-1.44-2.75-2.58-.03,1.61-.01,3.14.05,4.77.05,1.18.23,2.39.41,3.56.07.44.13.88.19,1.33.48-.03,1.04.01,1.45.28l.05.11c.14.18.27.35.4.53.95,1.34,1.49,2.79,2.01,4.19.39,1.03.78,2.09,1.34,3.12,1.18,2.19,3.63,4.65,6.16,5.37-.08-.82-.09-1.66-.03-2.5.32-4.38,4.09-8.27,7.42-9.38Z"/><path class="cls-1" d="M24.56,35.35c.18.06.37.09.56.12,2.49-1.24,5.88-1.35,8.8-.55.36,0,1.7,0,2.71-.75.56-.41.72-.94.72-1.41-1.7-2.07-4.92-2.73-7.57-2.81-1.54-.05-3.96.15-5.75,1.02,1.06-.97,3.66-1.7,3.89-1.73,4.3-.51,6.35.52,8.18,1.4.49.47.02-.04-.71-.61-3.05-2.41-9.79-1.7-12.63,1.06-1.47,1.42-.07,3.66,1.79,4.26ZM30.75,33.14c.05,0,.11,0,.16-.02,1.9-.19,3.16.12,4.29.83-1.4-.49-2.93-.76-4.45-.81ZM29.6,31.24c1.44,0,3.27.22,4.78.89-.7-.2-1.51-.31-2.55-.33-2.78-.06-6.22.09-8.65,1.65.86-1.99,4.68-2.21,6.42-2.21ZM27.12,33.45c-1.28.28-2.48.74-3.51,1.4,0,0,0,0,0,0-.02-.02-.05-.03-.08-.05,1.07-.82,2.31-1.17,3.6-1.36Z"/><polygon class="cls-1" points="24.57 15.79 24.56 15.79 24.57 15.79 24.57 15.79"/><path class="cls-1" d="M29.64,20.37c.35.64.68,1.28,1.01,1.92.37.71.74,1.43,1.13,2.14.59,1.06,1.37,1.99,2.13,2.88-.08-.25-.16-.5-.23-.76-.29-.98-.6-1.99-1.01-2.94-1.8-4.15-2.83-8.08-3.07-11.71-1.31,1.41-6.83,1.9-6.92.62-.23.79-.22,1.82-.11,2.77.77-.13,1.48-.06,2.07.19,2.36.32,4.43,3.82,5.01,4.89Z"/><path class="cls-1" d="M32.05,61.65c-4.17-.93-7.23-4.52-10.01-8.1-.96-1.24-1.76-2.71-2.53-4.13-.4-.73-.81-1.48-1.22-2.17-.27-.46-.57-.91-.88-1.35-.36-.49-.71-.9-1.08-1.25.06.19.1.39.12.63.28,3.62-6,4.92-7.84,3.29.27,1.62.63,3.05,1.15,4.97,3.32,12.42,13.51,14.6,15.52,14.91,4.08.63,10.55-1.06,12.03-2.19-1.48-1.21-2.64-2.68-3.46-4.38-.78-.03-1.45-.15-1.79-.23Z"/><path class="cls-1" d="M17.62,26.52s.08.08.11.12l.07.06.02.06c.85,1.03,1.54,3.13,2.16,5.22.13-.49.37-.94.74-1.32,2.65-2.77,8.17-4.09,12.54-3.11-.73-.86-1.47-1.76-2.05-2.8-.39-.71-.76-1.43-1.14-2.15-.33-.64-.66-1.27-1-1.9-.34-.62-1.91-3.38-3.7-4.28.17.19.32.41.44.68.8,1.76-6.85,4.45-8.28,3.45-.35,1.61-.5,3.76-.38,5.65.17.09.33.21.46.34h0Z"/><path class="cls-1" d="M28.1,11.12c-.59-.76-3.3.05-3.93.74-.99,1.06,4.77.33,3.93-.74Z"/><path class="cls-1" d="M18.97,47.15c.38.64.75,1.31,1.1,1.96.76,1.4,1.55,2.84,2.48,4.04,2.71,3.49,5.68,6.98,9.64,7.87.42.09.9.16,1.35.19-.41-.99-.71-2.04-.87-3.14-2.8-.67-5.53-3.37-6.82-5.75-.58-1.07-.99-2.16-1.38-3.21-.48-1.29-.95-2.52-1.7-3.69-.31,1.42-2.34,1.9-3.8,1.72Z"/></g></svg>