<?xml version="1.0" encoding="UTF-8"?><svg id="Layer_2" xmlns="http://www.w3.org/2000/svg" viewBox="0 0 148.01 130.72"><defs><style>.cls-1{fill:#b3b3b3;}.cls-1,.cls-2,.cls-3,.cls-4,.cls-5{fill-rule:evenodd;stroke-width:0px;}.cls-2{fill:#6b6b6b;}.cls-3{fill:#615d5d;}.cls-4{fill:#858084;}.cls-5{fill:#a5a0a4;}</style></defs><g id="_1"><g id="_4"><polygon class="cls-1" points="36.39 11.39 6.79 3.66 26.61 17.4 36.09 17.4 56.55 32.67 66.03 32.67 36.39 11.39"/><polygon class="cls-4" points="26.61 17.4 6.79 3.66 8.29 20.46 22.95 68.11 66.03 101.71 66.03 32.67 56.55 32.67 36.09 17.4 26.61 17.4"/><polygon class="cls-2" points="66.03 101.71 80.2 34.95 81.22 35.12 109.88 52.68 114.15 58.74 103.63 69.64 86.43 130.25 85.32 130.72 66.03 101.71"/><polygon class="cls-3" points="103.63 69.64 112.74 56.73 116.29 61.77 144.73 52.68 139.74 82.84 148.01 102.34 142.72 130.72 85.32 130.72 103.63 69.64"/><polygon class="cls-5" points="66.03 101.71 22.95 68.11 6.88 71.62 14.33 77.12 15.46 93.73 29.72 113.94 75.68 116.22 66.03 101.71"/><polygon class="cls-4" points="10.66 70.8 6.94 71.41 0 93.73 0 112.7 17.67 130.72 21.53 102.34 15.46 93.73 14.33 77.12 10.66 70.8"/><polygon class="cls-3" points="21.53 102.34 17.67 130.72 38.51 127.98 85.32 130.72 75.68 116.22 29.72 113.94 21.53 102.34"/><polygon class="cls-5" points="36.39 11.39 6.79 3.66 29.25 0 55.32 3.66 92.37 6.72 142.14 32.67 144.73 52.68 135.52 61.77 116.29 61.77 109.88 52.68 81.22 35.12 66.03 32.67 36.39 11.39"/><polygon class="cls-2" points="21.53 102.34 29.72 113.94 38.51 127.98 17.67 130.72 21.53 102.34"/><polygon class="cls-1" points="12.72 70.35 6.96 71.35 12.4 77.87 15.46 93.73 14.33 77.12 12.72 70.35"/><polygon class="cls-1" points="19.75 99.81 24.57 106.64 29.72 113.94 46.76 114.79 30.66 110.71 19.75 99.81"/><polygon class="cls-2" points="35.87 17.62 26.61 17.4 35.69 51.96 35.87 17.62"/><polygon class="cls-3" points="66.03 101.71 56.55 32.67 66.03 32.67 88.98 30.23 81.22 35.12 66.03 101.71"/><polygon class="cls-3" points="38.51 102.34 18.5 98.03 19.03 120.69 21.53 102.34 38.51 102.34"/><polygon class="cls-2" points="142.72 130.72 93.9 130.72 104.02 128.36 122.84 119.52 143.57 91.87 148.01 102.34 142.72 130.72"/><polygon class="cls-2" points="123.27 52.68 109.88 52.68 103.63 69.64 96.26 94.25 113.56 57.9 123.27 52.68"/></g></g></svg>