<?xml version="1.0" encoding="UTF-8"?><svg id="Layer_2" xmlns="http://www.w3.org/2000/svg" viewBox="0 0 474.23 371.59"><defs><style>.cls-1{fill:#b3b3b3;}.cls-1,.cls-2,.cls-3,.cls-4,.cls-5,.cls-6,.cls-7,.cls-8,.cls-9,.cls-10,.cls-11{fill-rule:evenodd;stroke-width:0px;}.cls-2{fill:#888788;}.cls-3{fill:#6b6b6b;}.cls-4{fill:#969395;}.cls-5{fill:#7a7479;}.cls-6{fill:#615d5d;}.cls-7{fill:#858084;}.cls-8{fill:#b0b1b1;}.cls-9{fill:#9d9d9d;}.cls-10{fill:#a5a0a4;}.cls-11{fill:#8d8d8d;}</style></defs><g id="_1"><g id="_1-2"><polygon class="cls-10" points="232.04 78.58 125 83.26 151.18 68.21 179.86 31.1 209.92 0 235.49 0 232.04 78.58"/><polygon class="cls-4" points="241.95 238.23 243.06 134.91 231.76 78.44 124.25 83.39 113.8 128.89 111.74 197.1 111.47 235.03 241.95 238.23"/><polygon class="cls-3" points="235.49 0 254.76 84.82 261.02 89.93 271.82 137.49 265.45 162.06 282.75 238.23 241.95 238.23 243.06 134.91 232.04 78.58 235.49 0"/><polygon class="cls-7" points="125 83.26 151.18 68.21 181.19 74.48 232.22 74.48 232.04 78.58 125 83.26"/><polygon class="cls-1" points="235.49 0 209.92 0 179.86 31.1 171.28 56.42 187.39 28.21 212.72 8.77 235.3 4.39 235.49 0"/><polygon class="cls-6" points="246.57 134.91 232.54 81.18 223.06 158.41 203.39 193.71 199.04 226.26 203.39 238.23 241.95 238.23 251.49 218.06 246.57 134.91"/><polygon class="cls-1" points="124.91 83.16 154.01 81.99 128.65 106.81 111.82 194.18 113.8 128.89 124.91 83.16"/><polygon class="cls-1" points="104.21 207.64 111.74 197.15 128.15 198.72 148.86 205.99 104.21 207.64"/><polygon class="cls-3" points="148.86 205.99 104.21 207.64 99.55 220.66 101.88 235.46 149.83 236.08 146.82 221.86 148.86 205.99"/><polygon class="cls-3" points="232.91 77.71 160.14 81.72 203.39 89.88 223.06 161.1 232.91 77.71"/><polygon class="cls-1" points="203.39 193.71 222.34 159.7 188.31 179.62 160.14 185.38 203.39 193.71"/><polygon class="cls-7" points="203.8 193.2 160.14 185.38 166.74 207.64 166.04 236.37 181.76 236.08 203.8 237.72 199.04 226.26 203.8 193.2"/><polygon class="cls-1" points="232.91 77.71 222.53 78.28 228.05 85.83 224.15 149.51 232.91 77.71"/><path class="cls-10" d="M75.04,211.86c-.64,2.82-2.08,9.83-3.85,11.87-.04.05-.31,5.38-.7,6.4-.29.76-.25,1.4-.25,2.18,2.36,2.63,10.26,5.75,12.39,10.24.62,1.32,10.81,4.69,13.05,5.23.02-.02,2.17-5.39,3.15-6.79.74-1.07,6.42-6.62,7.72-10.39.7-2.02-2.36-3.53-2.51-3.55l-1.94-7.71,5.69.76c-1.52-3.47-2.28-5.2-2.28-5.2,1.9-2.1,2.85-3.15,2.85-3.15-1.84-8.04-.98-3.24,11.03-10.15,3.59-1.46,6.57-2.56,7.85-3.13-18.95-7.83-17.42-3.52-35.66,4.48-5.76,2.96-10.47,6.24-16.54,8.9Z"/><path class="cls-9" d="M82.7,242.65c2.02,1.51,6.35,3.22,12.99,5.13l1.93-4.46c-.92-.16-3.88,1.5-4.67.76-1.07-1.01-1.65-1.71-2.95-2.49-2.15-1.28-3.19-1.78-5.74-2.36-1.84-.42-2.86-.18-3.67-1.9-.61-1.3-5.87-1.75-7.17-2.58,3.1,1.85,5.49,3.55,7.17,5.11.85.79,1.56,1.72,2.11,2.8Z"/><polygon class="cls-6" points="126.99 241.86 128.56 222.38 137.17 222.38 145.78 218.25 146.76 223.96 143.53 234.38 134.33 239.12 126.99 241.86"/><polygon class="cls-3" points="102.59 231.9 101.59 235.09 114.93 234.74 117.6 226.02 124.45 220.91 128.26 213.44 131.1 214.42 128.56 222.38 131.1 228.99 127.97 236.05 126.99 241.86 111.44 245.4 106.64 245.4 101.65 247.78 95.69 247.78 89.01 245.65 82.92 242.87 82.01 241.49 88.78 241.86 96.35 239.58 102.59 231.9"/><polygon class="cls-10" points="128.56 222.38 131.1 214.42 132.67 216.98 139.12 216.98 145.78 218.25 137.17 222.38 128.56 222.38"/><polygon class="cls-1" points="137.17 222.38 128.56 222.38 136.1 223.29 137.71 227.42 139.52 233.52 139.52 226.44 138.64 223.97 142.56 221.28 145.78 218.25 137.17 222.38"/><polygon class="cls-6" points="106.64 245.4 101.65 247.78 106.21 243.29 107.45 239.2 111.76 240.75 114.2 240.75 116.3 239.91 126.99 241.86 111.44 245.4 106.64 245.4"/><path class="cls-7" d="M117.99,201.99c2.39-1.19,5.47-2.36,9.26-3.51,8.9,10.8,13.35,16.21,13.35,16.21,2.15.59,3.22.89,3.22.89,1.82,5.97,2.73,8.96,2.73,8.96-3.94.63-5.9.94-5.9.94-4.36.27-8.33.52-11.93.77-.88.06-2.42-.25-3.26-.19-.91.07-1.62.21-1.96.57l-8.15,8.54-13.75.58-5.24,3.84-7.56,2.28-4.25-.33,1.65-1.2,6.54-1.13,11.65-8.59-1-2.75c-5.04-.55-7.53-.73-7.53-.73-1.86-1.11-2.79-1.66-2.79-1.66l8.93-6.14,5.8.77-2.28-5.2,2.85-3.15c-2.38-8.16-1.57-4.21,9.62-9.77Z"/><polygon class="cls-3" points="129.89 215.74 124.45 214.02 121.87 218.95 117.72 232.1 128.62 226.24 140.65 225.47 146.55 224.53 143.74 215.55 140.59 214.69 133.92 206.58 133.83 213.22 129.89 215.74"/><path class="cls-6" d="M143.82,215.57l-3.22-.89c-.64.3-7.82,1.85-7.7,1.88l-.46,6.64-2.53,1.22.11,1.73,10.64-.68,5.9-.94-2.73-8.96Z"/><polygon class="cls-10" points="140.59 214.69 132.89 216.57 140.15 216.79 141.27 216.25 143.82 215.57 140.59 214.69"/><polygon class="cls-8" points="140.15 216.79 137 216.69 140.27 217.78 142.26 223.95 141.22 217.18 143.86 215.72 143.82 215.57 141.27 216.25 140.15 216.79"/><path class="cls-1" d="M77.61,220.19v-1.66c2.6-.33,6.87-1.17,9.45-1.91.73-.21-.28,1,2.61,0,.67-.23,9.92-3.43,10.74-4.28,2.1-2.16,4.02-4.39,6.87-5.24l1.09,5.02-2.23,4.43-19.24,3.64h-9.27Z"/><path class="cls-9" d="M80.42,221.87c-2.88-1.07-5.07-2.31-6.86-3.65,1.7.03,9.23.7,10.47,1.41.49,0,1.41-.65,3.96-.65,1.53,0,10-.94,9.91-1.52-.05-.35,3.54-2.06,5.86-2.03.61,0,2.23-.14,1.75-.52l2.28,5.2-5.8-.77-8.93,6.14-8.58-3.6h-4.07Z"/><path class="cls-10" d="M132.43,223.2l-2.53,1.22c.33.14.91.97,2.68,1.27,1.43.24,4.08-.05,4.59,0l2.04-.13-5.25-1.61-1.53-.75Z"/><polygon class="cls-3" points="106.13 195.86 99.27 199.29 89.05 204.29 79.73 209.58 77.91 211.46 90.83 204.3 99.14 200.73 106.13 195.86"/><path class="cls-1" d="M113.09,194.36c.16.03,3.5.42,6.21,1.18,3.98,1.13,7.79,2.79,7.85,3.07.35.08.31.26.4.31-.06.07-3.29.77-3.39.77-2.59.09-5.88,3.57-7.29,3.66-.72.05-3.64,1.06-3.68,1.06-1.84.04-3.9,1.24-5.58,1.86.08-.33,1.91-1.55,2.22-1.85,2.6-2.56,4.76-2.67,6.64-4.45,2.07-1.96-4.98-4.21-3.37-5.6Z"/><polygon class="cls-10" points="136.98 183.37 143.22 191.76 155.97 199 174.96 199 193.66 183.37 155.69 180.67 136.98 183.37"/><path class="cls-3" d="M136.98,183.37c0,5.34-14.45,40.79-14.45,40.79l14.45,8.38,16.15,14.11,36.27,17.91-2.92-31.32-11.53-34.24h-18.99l-12.75-7.24-6.23-8.39Z"/><polygon class="cls-1" points="137.55 184.13 141.94 196.14 148.32 196.14 152.71 209.1 155.4 232.92 159.37 208.53 173.82 199 155.97 199 143.22 191.76 137.55 184.13"/><polygon class="cls-6" points="193.66 183.37 214.31 242.26 188.28 268.61 179.32 249.84 184.43 233.24 173.82 199 193.66 183.37"/><polygon class="cls-10" points="59.58 234.25 87.4 224.45 122.53 222.6 135.67 230.61 149.04 239.29 180.45 250.82 142.78 268.61 120.02 258.55 107.44 250.82 59.58 234.25"/><polygon class="cls-3" points="179.86 194.91 193.66 183.37 215.18 241.86 248.31 271.31 226.47 268.61 179.32 250.41 214.31 242.26 195.29 207.36 179.86 194.91"/><polygon class="cls-6" points="142.78 268.61 151 318.19 189.41 306.41 248.31 293.4 248.31 271.31 226.47 268.61 180.45 249.84 142.78 268.61"/><path class="cls-1" d="M59.58,234.25l-8.35,28.59s24.3,37.06,23.56,35.1c-.74-1.96-14.4-34.44-14.4-34.44l6.8-17.89,37.25,4.17-44.85-15.53Z"/><polygon class="cls-7" points="74.79 297.94 108.67 306.94 125.74 318.19 151 318.19 149.53 291.44 142.78 268.61 120.02 258.55 107.44 250.82 104.43 249.78 67.19 245.61 60.39 263.5 74.79 297.94"/><polygon class="cls-6" points="110.92 253.43 114.31 298.01 118.48 257.69 110.92 253.43"/><polygon class="cls-6" points="110.92 253.43 118.39 258.55 140.57 243.21 110.92 253.43"/><polygon class="cls-3" points="224.53 298.65 187.61 306.96 190.99 287.13 190.99 267.74 204 287.35 224.53 298.65"/><polygon class="cls-7" points="205.79 310.35 189.32 310.35 179.65 306.06 184.79 290.36 187.18 257.65 203.07 248.07 209.86 218.73 260.89 148.21 306.15 128.4 354.41 128.03 307.59 188.05 307.59 247.56 253.24 297.86 259.72 306.06 255.12 331.29 214.98 315.9 205.79 310.35"/><polygon class="cls-3" points="307.59 188.05 354.41 128.03 372.6 177.59 372.6 185.4 399.35 212.39 398.8 277.88 399.35 292.17 366.19 313.06 329.12 326.24 255.12 331.29 259.72 306.06 253.24 297.86 281.93 268.43 307.59 247.56 307.59 188.05"/><path class="cls-5" d="M258.05,168.25l-16.07,31.8-9.2,54.4,7.8,23,12.68-34.63c1.41-3.86,2.91-7.69,4.52-11.46,2.71-6.35,5.75-12.58,9.34-18.69,3.48-5.93,26.64-17.63,34.5-25.47,3.74-3.73-21.23-.28-13.69-7.37,9.27-8.71-11.87-10.27-12.73-13.4-4.14.3-.33-2.81-10.75.66-3.28,1.09.53-1.52-4.9,1.59l-1.49-.42Z"/><polygon class="cls-10" points="306.15 128.4 260.89 148.21 267.03 178.22 307.59 188.05 339.08 147.68 351.31 139.4 354.41 128.03 306.15 128.4"/><polygon class="cls-1" points="267.03 178.22 307.59 188.05 273.36 183.13 255.85 195.06 260.89 183.76 260.89 179.28 256.87 163.68 256.66 155.06 260.89 148.21 267.03 178.22"/><polygon class="cls-6" points="309.41 257.86 270.31 280.35 281.93 268.43 307.59 247.56 310.16 195.06 328.62 162.27 315.02 198.27 316.93 222.64 309.41 257.86"/><polygon class="cls-1" points="307.59 188.05 301.61 187.19 307.59 247.56 310.16 195.06 331 158.04 307.59 188.05"/><polygon class="cls-1" points="203.07 248.07 187.18 257.65 204.12 259.33 210.85 251.18 203.07 248.07"/><polygon class="cls-3" points="210.85 251.18 204.12 259.33 205.79 310.36 210.85 251.18"/><polygon class="cls-6" points="354.49 127.9 350.7 138.4 340.84 146.02 328.7 162.13 354.41 195.06 364.08 241.17 399.35 277.45 399.35 212.39 372.6 185.4 372.6 177.59 354.49 127.9"/><polygon class="cls-6" points="329.12 326.24 301.36 328.13 322.22 317.35 331 297.5 366.75 312.62 329.12 326.24"/><polygon class="cls-8" points="253.24 297.86 262.21 301.4 262.21 301.4 255.76 327.78 258.83 305.32 253.24 297.86"/><polygon class="cls-6" points="335.03 154.23 340.86 147.59 321.75 150.38 335.03 154.23"/><polygon class="cls-1" points="375.63 231.66 349.48 224.83 366.99 236.97 375.36 236.97 393.44 250.46 401.82 250.46 375.63 231.66"/><polygon class="cls-7" points="366.99 236.97 349.48 224.83 350.81 239.67 363.76 281.76 401.82 311.44 401.82 250.46 393.44 250.46 375.36 236.97 366.99 236.97"/><polygon class="cls-3" points="401.82 311.44 414.33 252.47 415.23 252.62 440.55 268.13 444.32 273.48 435.03 283.11 419.83 336.65 418.85 337.07 401.82 311.44"/><polygon class="cls-6" points="435.03 283.11 443.07 271.71 446.21 276.16 471.33 268.13 466.92 294.77 474.23 311.99 469.56 337.07 418.85 337.07 435.03 283.11"/><polygon class="cls-10" points="401.82 311.44 363.76 281.76 349.56 284.86 356.14 289.72 357.14 304.39 369.74 322.25 410.33 324.25 401.82 311.44"/><polygon class="cls-7" points="352.9 284.13 349.62 284.68 343.49 304.39 343.49 321.15 359.09 337.07 362.51 311.99 357.14 304.39 356.14 289.72 352.9 284.13"/><polygon class="cls-6" points="362.51 311.99 359.09 337.07 377.5 334.64 418.85 337.07 410.33 324.25 369.74 322.25 362.51 311.99"/><polygon class="cls-10" points="375.63 231.66 349.48 224.83 369.32 221.6 392.35 224.83 425.08 227.53 469.05 250.46 471.33 268.13 463.19 276.16 446.21 276.16 440.55 268.13 415.23 252.62 401.82 250.46 375.63 231.66"/><polygon class="cls-3" points="362.51 311.99 369.74 322.25 377.5 334.65 359.09 337.07 362.51 311.99"/><polygon class="cls-1" points="354.72 283.74 349.64 284.62 354.44 290.38 357.14 304.39 356.14 289.72 354.72 283.74"/><polygon class="cls-1" points="360.93 309.76 365.19 315.8 369.74 322.25 384.79 322.99 370.56 319.39 360.93 309.76"/><polygon class="cls-3" points="375.17 237.16 366.99 236.97 375.01 267.49 375.17 237.16"/><polygon class="cls-6" points="401.82 311.44 393.44 250.46 401.82 250.46 422.09 248.3 415.23 252.62 401.82 311.44"/><polygon class="cls-6" points="377.5 311.99 359.82 308.19 360.3 328.21 362.51 311.99 377.5 311.99"/><polygon class="cls-3" points="469.56 337.07 426.43 337.07 435.37 334.98 452 327.17 470.31 302.75 474.23 311.99 469.56 337.07"/><polygon class="cls-3" points="452.38 268.13 440.55 268.13 435.03 283.11 428.51 304.85 443.8 272.74 452.38 268.13"/><polygon class="cls-10" points="368.22 216.32 362.84 213.47 374.78 202.59 390.2 195.72 410.17 196.83 407.74 202.06 418.31 204.6 428.24 213.47 411.76 215.8 407.8 211.83 407 218.65 386.72 220.23 368.22 216.32"/><polygon class="cls-7" points="368.22 216.32 362.84 213.47 362.27 221.56 364.87 229.14 376.26 234.39 382.98 219.45 368.22 216.32"/><polygon class="cls-6" points="376.26 234.39 382.98 219.45 386.72 220.23 389.38 220.03 389.38 227.84 394.43 234.39 379.53 235.56 376.26 234.39"/><polygon class="cls-3" points="389.21 220.04 407 218.65 403.83 227.5 405 232.39 394.17 234.41 389.29 227.94 389.21 220.04"/><polygon class="cls-6" points="407.8 211.83 411.76 215.8 410.32 225.54 410.17 231.54 405 232.39 403.73 227.4 407 218.65 407.8 211.83"/><polygon class="cls-3" points="411.76 215.8 428.24 213.47 428.24 218.65 425.63 222.11 425.63 227.65 410.17 231.54 410.21 225.65 411.76 215.8"/><polygon class="cls-8" points="368.22 216.32 362.84 213.47 368.43 215.06 386.72 218.23 407 218.65 386.72 220.23 382.98 219.45 368.22 216.32"/><polygon class="cls-3" points="407.74 202.06 410.17 196.83 411.77 203.03 407.74 202.06"/><polygon class="cls-6" points="410.17 231.54 410.18 230.83 412.42 228.59 417.19 228.59 425.87 227.41 410.17 231.54"/><path class="cls-8" d="M391.38,195.79l18.79,1.04c-1.61,1.58-6.03,2.88-8.06,2.92-.76.01-2.62-1.82-2.66-1.82-6.46.21-7.35-1.31-12.42,2.93-.79.66-4.75,2.37-5.19,2.35-2.55-.12-15.76,7.18-15.36,6.94.07-.04,6.71-6.18,6.81-6.2,2.47-.57,4.06-.88,6.38-1.61,6.72-2.1,5.94-5.55,11.71-6.55Z"/><polygon class="cls-3" points="376.26 234.39 379.15 227.96 373.94 231.94 369.89 231.46 376.26 234.39"/><path class="cls-10" d="M277.86,315.58c-15.84-11.19-14.57-5.04-29.82,6.4-11.01,9.69-15.63,17.12-15.07,21.82,2,2.46,3.91,4.19,5.73,5.22h3.41l7.17,5.14c4.98-5.85,7.47-8.78,7.47-8.78,3.23.74,4.85,1.11,4.85,1.11-1.27-4.95-1.91-7.43-1.91-7.43,1.59-3,2.38-4.51,2.38-4.51-1.54-11.49-.82-4.63,9.22-14.51,3.01-2.08,5.5-3.66,6.56-4.47Z"/><path class="cls-1" d="M267.48,309.95l2.66.97,3.65,2.21,4.15,3.01c-.34-.18-3.97-.87-4.5-.4-.26.23-.51,1.46-1.22,1.78-1.9.86-7.19.76-8.07,2.28-1.32,2.29-5.57,4.08-5.72,6.37-.26,3.92,1.18,6.35.36,10.55-.21,1.06-13.06,11.32-15.04,10.16-2.52-1.49,10.39-10.42,10.76-13.2.39-2.96-18.23,8.37-16.06,5.64,2.21-2.78,17.02-14.51,20.24-16.47,1.91-1.17,4.18-4.31,6.27-6.11,1.44-1.25.97-1.15,1.66-1.88,1.31-1.4.47-1.51.86-1.83,1.21-1.01.52-1.9,0-3.05Z"/><path class="cls-7" d="M270.12,320.59c2-1.7,4.58-3.37,7.74-5.01,7.44,15.44,11.16,23.17,11.16,23.17,1.8.84,2.69,1.27,2.69,1.27,1.52,8.54,2.29,12.81,2.29,12.81-3.29.9-4.94,1.34-4.94,1.34-3.64.39-6.97.75-9.97,1.1-.73.09-2.03-.36-2.72-.28-.76.09-.92.72-1.64.82-11.15,1.48-16.79,1.92-16.79,1.92-4.22-.79-6.32-1.19-6.32-1.19-1.55-1.58-2.33-2.37-2.33-2.37l7.47-8.78,4.85,1.11-1.91-7.43,2.38-4.51c-1.99-11.67-1.31-6.02,8.05-13.96Z"/><polygon class="cls-3" points="280.08 340.25 275.53 337.8 272.45 334.56 273.37 344.84 277.46 350.77 276.37 354.99 279.01 355.27 289.07 354.16 294.01 352.82 291.65 339.98 289.03 338.75 283.44 327.17 283.37 336.65 280.08 340.25"/><path class="cls-6" d="M291.72,340.01l-2.69-1.27c-.54.42-6.54,2.65-6.44,2.69l-.39,9.49-2.11,1.74-1.02,2.64,10.01-1.14,4.94-1.34-2.29-12.81Z"/><polygon class="cls-10" points="289.03 338.75 282.59 341.44 288.65 341.76 289.59 340.98 291.72 340.01 289.03 338.75"/><polygon class="cls-8" points="288.65 341.76 286.02 341.62 288.75 343.18 290.42 351.99 289.55 342.31 291.76 340.22 291.72 340.01 289.59 340.98 288.65 341.76"/><path class="cls-9" d="M238.71,349.03c-2.41-1.53-4.24-3.3-5.73-5.22,1.42.05,7.72,1,8.75,2.01.41,0,1.18-.93,3.31-.94,1.28,0,8.36-1.34,8.29-2.17-.04-.5,2.96-2.95,4.9-2.9.51.01,1.87-.2,1.46-.75l1.91,7.43-4.85-1.11-7.47,8.78-7.17-5.14h-3.41Z"/><path class="cls-10" d="M282.2,350.93l-2.11,1.74c.5.35,3.42.82,4.37.96l-.98-1.63-1.28-1.07Z"/><polygon class="cls-8" points="265.71 354.45 266.78 348.36 263.76 350.43 263.23 351.99 263.49 354.94 265.71 354.45"/><path class="cls-6" d="M258.67,357.64l16.15-1.85c-.02-.26-1.43-.99-1.7-1.21-1.45-1.17.08-1.53-2.32-2.94-2.13-1.25-2.47-2.9-3.57-3.43-.65-.32-1.67,2.36-1.91,2.81-1.85,3.57.6,3.4-2.93,3.18-.18.4-3.36,3.06-3.72,3.44Z"/><polygon class="cls-8" points="250.06 353.26 256.75 345.39 255.25 345.39 253.05 347.48 250.06 353.26"/><polygon class="cls-3" points="260.21 311.83 254.47 316.74 245.93 323.89 236.61 334.13 247.42 323.9 254.36 318.79 260.21 311.83"/><polygon class="cls-6" points="342.45 321.59 337.92 318.06 337.92 329.02 334.14 337.08 357.82 356.98 355.55 344.01 356.5 336.24 355.55 329.27 342.45 321.59"/><polygon class="cls-7" points="342.45 321.59 337.92 318.06 335.9 310.25 331.62 304.58 344.97 317.94 355.55 329.27 342.45 321.59"/><polygon class="cls-3" points="334.37 336.6 333.07 337.08 321.23 345.02 318.33 345.02 311.34 352.01 309.51 371.59 319.07 367.06 335.42 362.26 339.25 362.64 351.7 361.32 357.82 356.98 334.37 336.6"/><polygon class="cls-9" points="308.22 310.87 292.7 321.35 313.83 323.19 337.92 318.06 335.9 310.25 331.62 304.58 308.22 310.87"/><path class="cls-10" d="M337.92,318.06v10.96l-3.78,8.06h-1.07l-10.45,7.01-6.44-3.13-23.45-19.65,20.12.91,25.06-4.16Z"/><polygon class="cls-9" points="292.73 321.3 279.63 334.4 294.12 342.97 311.34 352.01 318.33 345.02 314.37 342.37 305.86 333.87 302.09 329.15 292.73 321.3"/><path class="cls-11" d="M279.63,334.4v16.5l-2.01,1.01.22,2.88,1.79,2.19,13.67,7.78,16.22,6.83,1.83-19.59-20.04-11.14-11.67-6.46Z"/><polygon class="cls-8" points="326.37 341.6 316.22 340.95 307.52 332.25 294.9 323.12 304.65 333.87 314.17 342.61 318.38 345.02 321.27 345.02 326.37 341.6"/><path class="cls-1" d="M277.62,351.92c.4.4,3.06,2.18,3.06,2.18l2.64.02-3.69-3.22-2.01,1.01Z"/><polygon class="cls-2" points="295.52 343.71 302.6 354.12 304.92 362.18 309.51 368.48 311.25 352.97 305.64 349.02 295.52 343.71"/><path class="cls-8" d="M312.35,351l2.49-2.49-4.03.94-10.54-4.09-16.08-8.27,15.33,10.16s7.83,1.16,8.09,3.14c.25,1.98,1.92,6.59,1.92,6.59l.45,9.8,1.38-14.78,1.01-1.01Z"/><polygon class="cls-1" points="331.62 304.58 308.22 310.87 304.54 313.36 309.84 311.29 331.62 307.01 334.63 308.56 331.62 304.58"/><polygon class="cls-1" points="312.5 322.58 327.39 319.81 337.92 318.06 337.92 319.99 312.5 322.58"/><path class="cls-6" d="M330.24,363.78c.8-.8,7.68-5.06,7.68-5.06h6.87s3.02-1.74,3.72-1.74,2.02-6.33,2.02-6.33l7.29,6.33-6.12,4.34-12.46,1.32-3.82-.38-5.18,1.52Z"/><polygon class="cls-10" points="158.1 176.83 154.75 175.06 162.16 168.31 171.72 164.06 184.1 164.75 182.59 167.99 189.15 169.56 195.3 175.06 185.08 176.5 182.63 174.05 182.14 178.27 169.56 179.25 158.1 176.83"/><polygon class="cls-7" points="158.1 176.83 154.75 175.06 154.4 180.08 156.02 184.77 163.07 188.03 167.25 178.77 158.1 176.83"/><polygon class="cls-6" points="163.07 188.03 167.25 178.77 169.56 179.25 171.21 179.13 171.21 183.97 174.34 188.03 165.1 188.75 163.07 188.03"/><polygon class="cls-3" points="171.11 179.13 182.14 178.27 180.17 183.76 180.89 186.79 174.18 188.05 171.16 184.03 171.11 179.13"/><polygon class="cls-6" points="182.63 174.05 185.08 176.5 184.19 182.54 184.1 186.26 180.89 186.79 180.11 183.69 182.14 178.27 182.63 174.05"/><polygon class="cls-3" points="185.08 176.5 195.3 175.06 195.3 178.27 193.68 180.42 193.68 183.85 184.1 186.26 184.12 182.61 185.08 176.5"/><polygon class="cls-8" points="158.1 176.83 154.75 175.06 158.22 176.05 169.56 178.01 182.14 178.27 169.56 179.25 167.25 178.77 158.1 176.83"/><polygon class="cls-3" points="182.59 167.99 184.1 164.75 185.09 168.59 182.59 167.99"/><polygon class="cls-6" points="184.1 186.26 184.1 185.82 185.49 184.44 188.45 184.44 193.83 183.7 184.1 186.26"/><path class="cls-8" d="M172.45,164.1l11.65.65c-1,.98-3.74,1.78-5,1.81-.47,0-1.62-1.13-1.65-1.13-4,.13-4.55-.81-7.7,1.82-.49.41-2.94,1.47-3.22,1.46-1.58-.07-9.77,4.45-9.52,4.31.04-.02,4.16-3.83,4.22-3.85,1.53-.36,2.52-.55,3.96-1,4.17-1.3,3.68-3.44,7.26-4.06Z"/><polygon class="cls-3" points="163.07 188.03 164.87 184.04 161.64 186.51 159.13 186.22 163.07 188.03"/><polygon class="cls-11" points="32.84 287.16 8.58 277.86 5.51 283.35 2.9 288.02 0 300.5 3.15 306.9 28.64 315.77 33.36 316.37 34.57 306.75 30.85 299.69 32.84 287.16"/><polygon class="cls-3" points="42.82 289.89 51.36 272.74 66.19 291.86 71.1 309.4 45.91 315.76 45.48 298.35 42.82 289.89"/><polygon class="cls-6" points="34.57 306.75 33.36 316.37 45.91 315.76 45.48 298.35 42.82 289.89 45.27 284.98 32.29 286.95 30.85 299.69 34.57 306.75"/><polygon class="cls-11" points="54.84 281.22 61.64 285.99 51.82 273.35 47.7 284.74 53.77 283.58 54.84 281.22"/><polygon class="cls-9" points="12.16 285.21 15.26 278.98 8.58 277.86 4.83 283.29 3.53 287.3 12.16 285.21"/><path class="cls-1" d="M51.19,272.68c-1.59,3.63-9.36,6.14-13.15,6.32-5.65.27-7.63.56-12.94,1.45-5.52.92-7.96-1.49-13.02-2.13-1.06-.13-2.58-.63-3.5-.44.71.4.93,1.89,2.32,2.7.18.1,2.02,1.43,2.27,1.61,1.53,1.17,9.24,3.48,11.16,3.71,3.73.45,3.06-.04,6.24,2.45,1.26.99-.95,9.02.28,11.35-.08-.89,4.08-6.45,4.74-6.37l2.91.34c.75.09,1.4-5.13,1.49-5.58l8.74-3.79c.99-.43,3.18-3.49,3.47-4.37,0-.02.02-.05.02-.08,0,0,0-.02,0-.03l.49-3.76c.01-.1-.48-1.65-.45-1.89.13-.03-.96-1.66-1.08-1.5Z"/><path class="cls-10" d="M51.4,272.74c-1.4,17.84-15.67,19.55-42.82,5.12,15.63-7.39,29.91-9.1,42.82-5.12Z"/><polygon class="cls-6" points="39.99 288.08 44.75 286.02 34.7 283.64 39.99 288.08"/><polygon class="cls-6" points="45.91 315.76 45.82 311.81 52.88 313.1 57 310.93 66.3 309.03 65.52 298.28 68.39 299.87 71.1 309.4 45.91 315.76"/></g></g></svg>