<?xml version="1.0" encoding="UTF-8"?><svg id="Layer_2" xmlns="http://www.w3.org/2000/svg" viewBox="0 0 226.77 137.63"><defs><style>.cls-1{fill:#b3b3b3;}.cls-1,.cls-2,.cls-3,.cls-4,.cls-5,.cls-6,.cls-7,.cls-8,.cls-9{fill-rule:evenodd;stroke-width:0px;}.cls-2{fill:#888788;}.cls-3{fill:#6b6b6b;}.cls-4{fill:#615d5d;}.cls-5{fill:#858084;}.cls-6{fill:#b0b1b1;}.cls-7{fill:#9d9d9d;}.cls-8{fill:#a5a0a4;}.cls-9{fill:#8d8d8d;}</style></defs><g id="_1"><g id="_5"><path class="cls-8" d="M182.62,16.16c-43.32-30.6-39.85-13.77-81.56,17.51-30.12,26.51-42.75,46.82-41.22,59.69,5.46,6.72,10.69,11.47,15.68,14.27h9.31l19.61,14.06c13.62-16,20.43-24,20.43-24,8.84,2.02,13.26,3.03,13.26,3.03-3.48-13.55-5.21-20.33-5.21-20.33,4.34-8.22,6.51-12.33,6.51-12.33-4.2-31.43-2.23-12.65,25.23-39.68,8.22-5.7,15.03-10.02,17.96-12.22Z"/><path class="cls-1" d="M154.22.76l7.29,2.65,9.99,6.05,11.34,8.22c-.92-.49-10.85-2.38-12.32-1.1-.71.63-1.4,3.98-3.32,4.86-5.2,2.36-19.67,2.08-22.07,6.24-3.61,6.26-15.23,11.16-15.64,17.42-.7,10.73,3.24,17.36.98,28.84-.57,2.9-35.72,30.97-41.14,27.78-6.9-4.07,28.41-28.49,29.42-36.1,1.07-8.09-49.86,22.89-43.93,15.44,6.05-7.6,46.56-39.68,55.36-45.05,5.23-3.2,11.44-11.8,17.14-16.72,3.95-3.41,2.66-3.14,4.54-5.15,3.58-3.82,1.28-4.12,2.34-5.01,3.3-2.76,1.43-5.19.02-8.35Z"/><path class="cls-5" d="M161.45,29.87c5.46-4.65,12.51-9.22,21.17-13.71,20.35,42.24,30.53,63.36,30.53,63.36,4.91,2.31,7.37,3.46,7.37,3.46,4.17,23.36,6.25,35.03,6.25,35.03-9,2.45-13.5,3.67-13.5,3.67-9.97,1.07-19.06,2.05-27.28,3.01-2,.23-5.54-.99-7.44-.75-2.09.26-2.53,1.97-4.49,2.23-30.51,4.04-45.94,5.25-45.94,5.25-11.53-2.16-17.3-3.24-17.3-3.24-4.25-4.33-6.37-6.49-6.37-6.49l20.43-24,13.26,3.03-5.21-20.33,6.51-12.33c-5.44-31.92-3.58-16.48,22.01-38.19Z"/><polygon class="cls-3" points="188.68 83.63 176.23 76.93 167.81 68.06 170.34 96.18 181.53 112.4 178.55 123.94 185.76 124.71 213.27 121.69 226.77 118.01 220.34 82.89 213.16 79.52 197.89 47.84 197.68 73.79 188.68 83.63"/><path class="cls-4" d="M220.52,82.98l-7.37-3.46c-1.47,1.16-17.9,7.25-17.62,7.36l-1.06,25.95-5.78,4.76-2.8,7.23,27.38-3.13,13.5-3.67-6.25-35.03Z"/><polygon class="cls-8" points="213.16 79.52 195.54 86.88 212.13 87.74 214.69 85.63 220.52 82.98 213.16 79.52"/><polygon class="cls-6" points="212.13 87.74 204.94 87.37 212.41 91.64 216.97 115.75 214.6 89.26 220.63 83.55 220.52 82.98 214.69 85.63 212.13 87.74"/><path class="cls-7" d="M75.53,107.63c-6.6-4.17-11.6-9.03-15.68-14.27,3.88.13,21.12,2.74,23.94,5.49,1.12,0,3.22-2.54,9.06-2.56,3.51-.01,22.87-3.66,22.66-5.93-.12-1.35,8.1-8.07,13.4-7.93,1.4.04,5.11-.53,4.01-2.05l5.21,20.33-13.26-3.03-20.43,24-19.61-14.06h-9.31Z"/><path class="cls-8" d="M194.48,112.83l-5.78,4.76c1.37.96,9.35,2.23,11.95,2.63l-2.68-4.47-3.49-2.92Z"/><polygon class="cls-6" points="149.38 122.47 152.3 105.82 144.04 111.48 142.59 115.75 143.31 123.81 149.38 122.47"/><path class="cls-4" d="M130.14,131.19l44.16-5.05c-.06-.7-3.91-2.7-4.65-3.31-3.97-3.21.22-4.18-6.34-8.05-5.82-3.43-6.76-7.93-9.75-9.39-1.79-.87-4.57,6.46-5.21,7.7-5.07,9.77,1.65,9.31-8.02,8.69-.48,1.1-9.19,8.38-10.18,9.4Z"/><polygon class="cls-6" points="106.57 119.2 124.88 97.68 120.78 97.68 114.74 103.41 106.57 119.2"/><polygon class="cls-3" points="134.33 5.89 118.64 19.33 95.28 38.89 69.79 66.89 99.36 38.9 118.35 24.94 134.33 5.89"/><polygon class="cls-4" points="76.15 78.9 70.82 74.75 70.82 87.62 66.39 97.09 94.2 120.47 91.54 105.23 92.65 96.1 91.54 87.92 76.15 78.9"/><polygon class="cls-5" points="76.15 78.9 70.82 74.75 68.46 65.58 63.43 58.92 79.11 74.61 91.54 87.92 76.15 78.9"/><polygon class="cls-3" points="66.65 96.53 65.13 97.09 51.22 106.41 47.82 106.41 39.61 114.62 37.46 137.63 48.69 132.31 67.89 126.67 72.38 127.11 87.01 125.56 94.2 120.47 66.65 96.53"/><polygon class="cls-7" points="35.94 66.31 17.71 78.62 42.53 80.78 70.82 74.75 68.46 65.58 63.43 58.92 35.94 66.31"/><path class="cls-8" d="M70.82,74.75v12.87l-4.44,9.47h-1.26l-12.28,8.23-7.56-3.68-27.54-23.08,23.63,1.07,29.44-4.88Z"/><polygon class="cls-7" points="17.75 78.56 2.37 93.95 19.38 104.01 39.61 114.62 47.82 106.41 43.16 103.31 33.17 93.32 28.74 87.78 17.75 78.56"/><path class="cls-9" d="M2.37,93.95v19.38l-2.37,1.19.26,3.38,2.11,2.57,16.05,9.13,19.04,8.03,2.15-23-23.54-13.09-13.7-7.59Z"/><polygon class="cls-6" points="57.26 102.4 45.34 101.64 35.12 91.42 20.3 80.7 31.75 93.32 42.94 103.58 47.87 106.41 51.27 106.41 57.26 102.4"/><path class="cls-1" d="M0,114.52c.47.47,3.6,2.56,3.6,2.56l3.11.03-4.34-3.78-2.37,1.19Z"/><polygon class="cls-2" points="21.03 104.87 29.34 117.11 32.06 126.57 37.46 133.97 39.5 115.76 32.91 111.11 21.03 104.87"/><path class="cls-6" d="M40.79,113.44l2.92-2.92-4.73,1.11-12.38-4.81-18.89-9.71,18,11.93s9.2,1.36,9.5,3.69c.3,2.33,2.25,7.74,2.25,7.74l.53,11.51,1.62-17.36,1.19-1.19Z"/><polygon class="cls-1" points="63.43 58.92 35.94 66.31 31.62 69.23 37.85 66.8 63.43 61.77 66.96 63.59 63.43 58.92"/><polygon class="cls-1" points="40.96 80.06 58.46 76.8 70.82 74.75 70.82 77.01 40.96 80.06"/><path class="cls-4" d="M61.81,128.45c.94-.94,9.02-5.94,9.02-5.94h8.07s3.55-2.04,4.36-2.04,2.38-7.44,2.38-7.44l8.56,7.44-7.18,5.1-14.63,1.55-4.49-.45-6.09,1.79Z"/></g></g></svg>